SplineFontDB: 2.0
FontName: ArialNarrow
FullName: Arial Narrow
FamilyName: Arial Narrow
Weight: Book
Copyright: Typeface © The Monotype Corporation plc. Data © The Monotype Corporation plc/Type Solutions Inc.1990-1991 All Rights Reserved.
Version: 2.30
ItalicAngle: 0
UnderlinePosition: -217
UnderlineWidth: 150
Ascent: 936
Descent: 64
NeedsXUIDChange: 1
FSType: 0
OS2Version: 0
OS2_WeightWidthSlopeOnly: 0
OS2_UseTypoMetrics: 0
CreationTime: 1173884963
ModificationTime: 1187850110
PfmFamily: 17
TTFWeight: 400
TTFWidth: 3
LineGap: 268
VLineGap: 0
Panose: 2 11 5 6 2 2 2 3 2 4
OS2TypoAscent: 0
OS2TypoAOffset: 1
OS2TypoDescent: 0
OS2TypoDOffset: 1
OS2TypoLinegap: 0
OS2WinAscent: 0
OS2WinAOffset: 1
OS2WinDescent: 0
OS2WinDOffset: 1
HheadAscent: 0
HheadAOffset: 1
HheadDescent: 0
HheadDOffset: 1
OS2Vendor: 'PfEd'
Lookup: 4 8 1 "'rlig' Ligatures requises  dans Arabe lookup 0"  {"'rlig' Ligatures requises  dans Arabe lookup 0 subtable"  } ['rlig' ('arab' <'dflt' > ) ]
Lookup: 4 8 1 "'liga' Ligatures standard lookups1"  {"'liga' Ligatures standard lookups1 subtable"  } ['liga' ('DFLT' <'dflt' > ) ]
Lookup: 4 0 1 "'liga' Ligatures standard dans Latin lookup 2"  {"'liga' Ligatures standard dans Latin lookup 2 subtable"  } ['liga' ('latn' <'dflt' > ) ]
Lookup: 4 0 1 "'liga' Ligatures standard dans Tha+AO8A lookup 3"  {"'liga' Ligatures standard dans Tha+AO8A lookup 3 subtable"  } ['liga' ('thai' <'dflt' > ) ]
Lookup: 4 8 1 "'liga' Ligatures standard dans Arabe lookup 4"  {"'liga' Ligatures standard dans Arabe lookup 4 subtable"  } ['liga' ('arab' <'dflt' > ) ]
Lookup: 4 8 1 "'liga' Ligatures standard dans Arm+AOkA-nien lookup 5"  {"'liga' Ligatures standard dans Arm+AOkA-nien lookup 5 subtable"  } ['liga' ('armn' <'dflt' > ) ]
Lookup: 4 8 1 "'liga' Ligatures standard dans Latin lookup 6"  {"'liga' Ligatures standard dans Latin lookup 6 subtable"  } ['liga' ('latn' <'dflt' > ) ]

StartChar: .notdef
Encoding: 0 -1 0
AltUni: 0
Width: 219
VWidth: 2048
Flags: W
HStem: 0 26<44 211> 604 21<21 189>
VStem: 21 23<0 604> 189 22<26 625>
Fore
21 0 m 1
 21 625 l 1
 211 625 l 1
 211 0 l 1
 21 0 l 1
44 26 m 1
 189 26 l 1
 189 604 l 1
 44 604 l 1
 44 26 l 1
EndSplineSet
EndChar
StartChar: exclam
Encoding: 33 33 2
Width: 219
VWidth: 2048
Flags: W
HStem: -20 20G<76 158> 716 21G<72 162>
VStem: 72 90<556 716>
Fore
94 178 m 1
 72 557 l 1
 72 716 l 1
 162 716 l 1
 162 557 l 1
 141 178 l 1
 94 178 l 1
76 0 m 1
 76 100 l 1
 158 100 l 1
 158 0 l 1
 76 0 l 1
EndSplineSet
EndChar
StartChar: quotedbl
Encoding: 34 34 3
Width: 282
VWidth: 2048
Flags: W
HStem: 716 21G<37 119 170 252>
VStem: 37 82<598 716> 170 82<598 716>
Fore
57 462 m 1
 37 599 l 1
 37 716 l 1
 119 716 l 1
 119 599 l 1
 101 462 l 1
 57 462 l 1
189 462 m 1
 170 599 l 1
 170 716 l 1
 252 716 l 1
 252 599 l 1
 233 462 l 1
 189 462 l 1
EndSplineSet
EndChar
StartChar: numbersign
Encoding: 35 35 4
Width: 447
VWidth: 2048
Flags: W
HStem: -32 20G<40 100 226 287> 196 73<7 75 147 261 333 445> 446 73<7 117 188 303 375 445> 728 21G<164 224 350 410>
Fore
40 -12 m 1
 75 196 l 1
 7 196 l 1
 7 269 l 1
 87 269 l 1
 117 446 l 1
 7 446 l 1
 7 519 l 1
 128 519 l 1
 164 728 l 1
 224 728 l 1
 188 519 l 1
 315 519 l 1
 350 728 l 1
 410 728 l 1
 375 519 l 1
 445 519 l 1
 445 446 l 1
 363 446 l 1
 333 269 l 1
 445 269 l 1
 445 196 l 1
 321 196 l 1
 287 -12 l 1
 226 -12 l 1
 261 196 l 1
 135 196 l 1
 100 -12 l 1
 40 -12 l 1
147 269 m 1
 273 269 l 1
 303 446 l 1
 177 446 l 1
 147 269 l 1
EndSplineSet
EndChar
StartChar: dollar
Encoding: 36 36 5
Width: 447
VWidth: 2048
Flags: W
VStem: 41 71<536 563> 203 43<-103 -14 59 327 423 666 739 782> 342 75<184 217>
Fore
203 -103 m 1
 203 -15 l 1
 164 -9 133 2 110 18 c 128
 88 34 69 57 54 87 c 128
 39 118 30 155 28 199 c 1
 101 215 l 1
 107 163 119 124 138 100 c 128
 157 76 178 62 203 59 c 1
 203 339 l 1
 171 346 139 361 108 384 c 0
 87 399 71 420 59 447 c 128
 47 473 41 505 41 541 c 0
 41 577 47 611 61 641 c 128
 75 671 93 694 115 709 c 128
 137 725 166 735 203 740 c 1
 203 782 l 1
 246 782 l 1
 246 740 l 1
 276 736 301 728 322 714 c 128
 343 700 360 681 374 656 c 128
 388 631 397 600 402 563 c 1
 328 550 l 1
 319 615 292 654 246 666 c 1
 246 412 l 1
 278 402 300 395 309 390 c 0
 331 380 349 367 365 350 c 128
 381 333 393 313 403 288 c 128
 412 263 417 235 417 204 c 0
 417 140 400 89 367 49 c 128
 334 10 294 -11 246 -14 c 1
 246 -103 l 1
 203 -103 l 1
203 667 m 1
 175 661 153 648 137 626 c 128
 121 605 112 577 112 544 c 0
 112 486 142 446 203 423 c 1
 203 667 l 1
246 59 m 1
 273 63 295 78 314 102 c 128
 333 127 342 159 342 199 c 0
 342 231 335 257 322 276 c 128
 308 296 282 312 246 327 c 1
 246 59 l 1
EndSplineSet
EndChar
StartChar: percent
Encoding: 37 37 6
Width: 720
VWidth: 2048
Flags: W
HStem: -26 60<546 559> 292 60<541 559> 350 60<167 175> 667 61<167 175>
VStem: 46 63<517 567> 234 63<539 567> 426 62<149 183> 614 63<149 183>
Fore
46 544 m 0xbf
 46 604 58 649 82 681 c 128
 105 712 134 728 169 728 c 0
 205 728 235 712 260 681 c 128
 285 649 297 602 297 539 c 0
 297 478 285 431 260 398 c 128
 235 366 205 350 170 350 c 0
 135 350 106 366 82 398 c 128
 58 430 46 479 46 544 c 0xbf
171 667 m 0
 153 667 139 658 127 639 c 128
 115 620 109 586 109 539 c 0
 109 491 115 457 127 438 c 128
 139 420 154 410 173 410 c 0
 190 410 205 420 217 439 c 128
 228 458 234 491 234 539 c 0
 234 586 228 619 216 639 c 128
 204 658 189 667 171 667 c 0
171 -26 m 1
 493 728 l 1
 551 728 l 1
 231 -26 l 1
 171 -26 l 1
426 168 m 0
 426 228 438 273 461 305 c 128
 485 336 514 352 548 352 c 0xdf
 584 352 615 336 640 305 c 128
 664 274 677 226 677 164 c 0
 677 102 664 55 639 22 c 128
 615 -10 585 -26 550 -26 c 0
 515 -26 486 -10 462 22 c 128
 438 54 426 103 426 168 c 0
551 292 m 0
 533 292 518 282 506 263 c 128
 494 244 488 210 488 163 c 0
 488 115 494 81 506 62 c 128
 518 44 534 34 553 34 c 0
 570 34 584 44 596 63 c 128
 608 82 614 116 614 163 c 0
 614 211 608 244 596 263 c 128
 584 282 569 292 551 292 c 0
EndSplineSet
EndChar
StartChar: ampersand
Encoding: 38 38 7
Width: 537
VWidth: 2048
Flags: W
HStem: -12 77<209 229> 656 72<242 261>
VStem: 36 77<190 208> 109 74<566 579> 318 74<558 579>
Fore
390 84 m 1xd8
 343 20 287 -12 222 -12 c 0
 164 -12 118 10 85 53 c 128
 52 97 36 145 36 198 c 0xe8
 36 286 82 357 175 411 c 1
 150 447 132 477 123 500 c 128
 114 524 109 546 109 568 c 0
 109 614 124 652 152 682 c 128
 181 713 215 728 255 728 c 0
 293 728 326 714 352 685 c 128
 378 656 392 619 392 575 c 0
 392 507 355 449 281 401 c 1
 386 237 l 1
 398 265 407 299 414 337 c 1
 489 317 l 1
 476 256 459 204 437 163 c 1
 463 120 494 83 528 53 c 1
 480 -17 l 1
 451 7 421 40 390 84 c 1xd8
244 458 m 1
 274 479 293 499 303 515 c 128
 313 532 318 551 318 573 c 0
 318 598 311 618 298 633 c 128
 285 648 270 656 251 656 c 0
 233 656 217 648 203 634 c 128
 190 619 183 600 183 577 c 0xd8
 183 554 193 530 211 503 c 2
 244 458 l 1
345 154 m 1
 213 354 l 1
 176 326 150 301 135 277 c 128
 121 253 113 229 113 203 c 0xe8
 113 171 123 139 144 110 c 128
 164 80 190 65 223 65 c 0
 243 65 265 73 289 89 c 128
 312 105 330 127 345 154 c 1
EndSplineSet
EndChar
StartChar: quotesingle
Encoding: 39 39 8
Width: 148
VWidth: 2048
Flags: W
HStem: 716 21G<35 117>
VStem: 35 82<595 716>
Fore
53 462 m 1
 35 596 l 1
 35 716 l 1
 117 716 l 1
 117 596 l 1
 98 462 l 1
 53 462 l 1
EndSplineSet
EndChar
StartChar: parenleft
Encoding: 40 40 9
Width: 263
VWidth: 2048
Flags: W
HStem: 728 21G<191 243>
VStem: 49 74<221 287>
Fore
191 -210 m 1
 156 -154 123 -85 94 -3 c 128
 64 79 49 166 49 260 c 0
 49 418 97 574 191 728 c 1
 243 728 l 1
 207 652 182 592 168 550 c 128
 154 508 143 462 135 411 c 128
 127 361 123 310 123 259 c 0
 123 103 163 -54 243 -210 c 1
 191 -210 l 1
EndSplineSet
EndChar
StartChar: parenright
Encoding: 41 41 10
Width: 263
VWidth: 2048
Flags: W
HStem: 728 21G<30 82>
VStem: 149 75<221 287>
Fore
82 -210 m 1
 30 -210 l 1
 110 -54 149 103 149 259 c 0
 149 310 145 361 137 411 c 128
 129 462 119 508 105 550 c 128
 91 592 66 652 30 728 c 1
 82 728 l 1
 176 574 224 418 224 260 c 0
 224 169 209 83 181 1 c 128
 153 -81 120 -152 82 -210 c 1
EndSplineSet
EndChar
StartChar: asterisk
Encoding: 42 42 11
Width: 309
VWidth: 2048
Flags: W
HStem: 728 21G<127 186>
Fore
24 584 m 1
 43 654 l 1
 85 636 116 620 135 606 c 1
 130 666 128 707 127 728 c 1
 186 728 l 1
 185 697 182 656 176 607 c 1
 203 624 235 639 271 654 c 1
 289 584 l 1
 255 571 222 562 189 557 c 1
 206 540 229 509 258 465 c 1
 210 423 l 1
 195 448 177 483 155 528 c 1
 135 482 118 447 103 423 c 1
 56 465 l 1
 85 510 108 541 123 557 c 1
 88 565 55 574 24 584 c 1
EndSplineSet
EndChar
StartChar: plus
Encoding: 43 43 12
Width: 470
VWidth: 2048
Flags: W
HStem: 312 82<45 205 273 433>
VStem: 205 68<116 312 394 589>
Fore
205 116 m 1
 205 312 l 1
 45 312 l 1
 45 394 l 1
 205 394 l 1
 205 589 l 1
 273 589 l 1
 273 394 l 1
 433 394 l 1
 433 312 l 1
 273 312 l 1
 273 116 l 1
 205 116 l 1
EndSplineSet
EndChar
StartChar: comma
Encoding: 44 44 13
Width: 219
VWidth: 2048
Flags: W
HStem: -20 20G<74 115>
VStem: 74 82<-1 100>
Fore
74 0 m 1
 74 100 l 1
 156 100 l 1
 156 0 l 2
 156 -39 151 -69 139 -91 c 128
 128 -113 111 -130 89 -142 c 1
 69 -104 l 1
 84 -96 95 -85 103 -69 c 128
 110 -54 114 -31 115 0 c 1
 74 0 l 1
EndSplineSet
EndChar
StartChar: hyphen
Encoding: 45 45 14
AltUni: 173
Width: 263
VWidth: 2048
Flags: W
HStem: 215 88<26 247>
Fore
26 215 m 1
 26 303 l 1
 247 303 l 1
 247 215 l 1
 26 215 l 1
EndSplineSet
EndChar
StartChar: period
Encoding: 46 46 15
Width: 219
VWidth: 2048
Flags: W
HStem: -20 20G<76 158>
VStem: 76 82<0 100>
Fore
76 0 m 1
 76 100 l 1
 158 100 l 1
 158 0 l 1
 76 0 l 1
EndSplineSet
EndChar
StartChar: slash
Encoding: 47 47 16
Width: 219
VWidth: 2048
Flags: W
HStem: -32 20G<0 58> 728 21G<170 228>
Fore
0 -12 m 1
 170 728 l 1
 228 728 l 1
 58 -12 l 1
 0 -12 l 1
EndSplineSet
EndChar
StartChar: zero
Encoding: 48 48 17
Width: 447
VWidth: 2048
Flags: W
HStem: -12 72<219 228> 646 73<208 229>
VStem: 33 73<353 389> 341 75<353 389>
Fore
33 353 m 0
 33 473 49 564 81 626 c 128
 114 688 161 719 225 719 c 0
 281 719 325 694 357 644 c 0
 396 583 416 486 416 353 c 0
 416 234 399 143 367 81 c 128
 335 19 287 -12 224 -12 c 0
 168 -12 122 15 86 70 c 128
 51 125 33 219 33 353 c 0
106 353 m 0
 106 237 118 159 140 119 c 128
 162 80 191 60 226 60 c 0
 258 60 286 80 308 120 c 128
 330 160 341 238 341 353 c 0
 341 470 330 548 308 587 c 128
 286 626 257 646 221 646 c 0
 189 646 161 626 139 586 c 128
 117 546 106 468 106 353 c 0
EndSplineSet
EndChar
StartChar: one
Encoding: 49 49 18
Width: 447
VWidth: 2048
Flags: W
HStem: -20 20G<232 304> 719 21G<257 304>
VStem: 232 72<0 719>
Fore
304 0 m 1
 232 0 l 1
 232 560 l 1
 215 541 193 521 165 500 c 128
 137 480 111 465 88 454 c 1
 88 539 l 1
 128 562 163 590 193 623 c 128
 224 655 245 688 257 719 c 1
 304 719 l 1
 304 0 l 1
EndSplineSet
EndChar
StartChar: two
Encoding: 50 50 19
Width: 447
VWidth: 2048
Flags: W
HStem: 0 84<125 413> 646 73<215 240>
VStem: 338 74<510 529>
Fore
413 84 m 1
 413 0 l 1
 24 0 l 1
 23 34 34 72 55 115 c 128
 77 157 117 207 174 265 c 0
 242 332 286 384 307 420 c 128
 327 457 338 491 338 522 c 0
 338 559 327 589 306 612 c 128
 285 635 258 646 227 646 c 0
 194 646 166 634 145 609 c 128
 123 584 112 549 112 502 c 1
 38 512 l 1
 43 580 63 632 96 667 c 128
 130 701 174 719 229 719 c 0
 289 719 335 699 365 658 c 128
 396 618 412 572 412 521 c 0
 412 475 400 431 375 389 c 128
 351 348 306 292 238 222 c 0
 195 178 168 148 155 132 c 128
 142 116 132 100 125 84 c 1
 413 84 l 1
EndSplineSet
EndChar
StartChar: three
Encoding: 51 51 20
Width: 447
VWidth: 2048
Flags: W
HStem: -13 73<208 228> 349 66<195 226> 646 73<208 228>
VStem: 314 75<516 548> 341 76<188 228>
Fore
33 189 m 1xe8
 105 201 l 1
 120 107 158 60 219 60 c 0
 252 60 281 74 305 102 c 128
 329 130 341 166 341 210 c 0xe8
 341 252 330 285 308 311 c 128
 285 336 258 349 226 349 c 0
 212 349 195 345 175 339 c 1
 184 416 l 1
 195 415 l 1
 230 415 259 426 281 448 c 128
 303 470 314 499 314 535 c 0
 314 569 305 596 287 616 c 128
 268 636 245 646 219 646 c 0
 191 646 168 636 149 615 c 128
 130 593 118 561 112 518 c 1
 41 533 l 1
 50 594 70 641 102 672 c 128
 134 703 173 719 218 719 c 0
 265 719 306 701 339 666 c 128
 372 631 389 587 389 533 c 0xf0
 389 501 382 472 367 447 c 128
 353 422 333 402 308 388 c 1
 332 381 351 370 366 355 c 128
 382 340 394 320 403 295 c 128
 413 270 417 242 417 211 c 0
 417 146 398 92 359 50 c 128
 321 8 274 -13 220 -13 c 0
 170 -13 128 6 93 42 c 128
 58 78 38 127 33 189 c 1xe8
EndSplineSet
EndChar
StartChar: four
Encoding: 52 52 21
Width: 447
VWidth: 2048
Flags: W
HStem: -20 20G<264 336> 171 81<80 264 336 416> 716 21G<277 336>
VStem: 264 72<0 171 252 716>
Fore
264 0 m 1
 264 171 l 1
 9 171 l 1
 9 252 l 1
 277 716 l 1
 336 716 l 1
 336 252 l 1
 416 252 l 1
 416 171 l 1
 336 171 l 1
 336 0 l 1
 264 0 l 1
264 252 m 1
 264 575 l 1
 80 252 l 1
 264 252 l 1
EndSplineSet
EndChar
StartChar: five
Encoding: 53 53 22
Width: 447
VWidth: 2048
Flags: W
HStem: -12 72<208 226> 397 78<220 239> 622 84<103 394>
VStem: 346 76<227 261>
Fore
33 188 m 1
 108 195 l 1
 114 150 128 116 148 94 c 128
 169 71 193 60 220 60 c 0
 254 60 284 76 309 107 c 128
 333 139 346 181 346 236 c 0
 346 287 334 327 310 355 c 128
 286 383 256 397 220 397 c 0
 198 397 177 391 158 379 c 128
 139 366 124 349 113 328 c 1
 45 338 l 1
 103 706 l 1
 394 706 l 1
 394 622 l 1
 160 622 l 1
 128 430 l 1
 163 460 200 475 239 475 c 0
 288 475 331 454 367 412 c 128
 404 370 422 314 422 243 c 0
 422 173 404 113 367 63 c 128
 331 13 282 -12 221 -12 c 0
 170 -12 128 5 93 41 c 128
 58 76 38 125 33 188 c 1
EndSplineSet
EndChar
StartChar: six
Encoding: 54 54 23
Width: 447
VWidth: 2048
Flags: W
HStem: -12 72<220 246> 387 77<227 243> 646 73<227 246>
VStem: 29 72<335 387> 343 74<211 245>
Fore
407 541 m 1
 335 534 l 1
 328 570 318 597 305 612 c 0
 285 635 262 646 235 646 c 0
 193 646 160 620 134 568 c 0
 112 523 101 457 101 369 c 1
 118 400 139 424 164 440 c 128
 189 456 215 464 243 464 c 0
 290 464 330 443 365 401 c 128
 400 359 417 303 417 232 c 0
 417 184 408 141 391 102 c 128
 373 63 351 34 324 16 c 128
 296 -3 266 -12 233 -12 c 0
 174 -12 125 14 87 68 c 128
 49 121 29 210 29 335 c 0
 29 473 49 572 88 631 c 128
 128 689 178 719 240 719 c 0
 284 719 322 704 352 673 c 128
 382 643 400 598 407 541 c 1
112 232 m 0
 112 180 125 139 149 107 c 128
 173 76 202 60 234 60 c 0
 262 60 288 75 310 104 c 128
 332 134 343 175 343 227 c 0
 343 277 332 317 310 345 c 128
 288 373 261 387 229 387 c 0
 198 387 170 373 147 345 c 128
 124 317 112 279 112 232 c 0
EndSplineSet
EndChar
StartChar: seven
Encoding: 55 55 24
Width: 447
VWidth: 2048
Flags: W
HStem: -20 20G<120 194> 622 85<38 325>
Fore
38 622 m 1
 38 707 l 1
 417 707 l 1
 417 638 l 1
 361 565 311 469 268 351 c 128
 225 233 200 116 194 0 c 1
 120 0 l 1
 121 60 130 130 148 209 c 128
 166 289 191 365 223 438 c 128
 254 510 288 571 325 622 c 1
 38 622 l 1
EndSplineSet
EndChar
StartChar: eight
Encoding: 56 56 25
Width: 447
VWidth: 2048
Flags: W
HStem: -12 72<210.302 241> 350 72<222 228> 646 73<211.072 228>
VStem: 32 74<207 229> 56 74<530 549> 321 74<532 549> 345 74<204 213>
Fore
144 388 m 1xf2
 115 401 93 420 78 444 c 128
 63 468 56 499 56 535 c 0
 56 589 72 633 104 667 c 128
 136 702 176 719 225 719 c 0
 273 719 314 701 346 667 c 128
 379 632 395 587 395 532 c 0xec
 395 497 388 468 374 444 c 128
 359 420 338 402 309 388 c 1
 344 374 371 352 390 320 c 128
 409 289 419 250 419 204 c 0
 419 140 400 88 364 48 c 128
 327 8 281 -12 226 -12 c 0
 171 -12 125 8 88 48 c 128
 51 88 32 141 32 207 c 0
 32 254 42 294 62 325 c 128
 81 356 109 377 144 388 c 1xf2
130 537 m 0
 130 502 139 474 158 453 c 128
 176 432 199 422 226 422 c 0
 252 422 275 432 293 453 c 128
 312 473 321 500 321 532 c 0
 321 566 312 593 293 615 c 128
 274 636 251 646 225 646 c 0
 199 646 177 636 158 615 c 128
 139 594 130 568 130 537 c 0
106 207 m 0xf2
 106 163 118 127 141 100 c 128
 165 73 193 60 226 60 c 0
 259 60 287 73 311 99 c 128
 334 125 345 160 345 204 c 0
 345 248 333 283 310 310 c 128
 286 337 257 350 224 350 c 0
 191 350 163 337 140 310 c 128
 117 283 106 249 106 207 c 0xf2
EndSplineSet
EndChar
StartChar: nine
Encoding: 57 57 26
Width: 447
VWidth: 2048
Flags: W
HStem: -12 72<206 225> 243 77<208 225> 646 73<216 228>
VStem: 33 74<451 485> 347 72<319 374>
Fore
43 166 m 1
 113 173 l 1
 124 98 156 60 210 60 c 0
 235 60 256 68 276 85 c 128
 296 101 312 130 326 172 c 128
 340 214 347 263 347 319 c 2
 347 337 l 1
 332 308 312 285 286 268 c 128
 261 251 235 243 208 243 c 0
 161 243 119 264 85 305 c 128
 50 347 33 404 33 477 c 0
 33 552 51 611 87 654 c 128
 123 697 166 719 218 719 c 0
 254 719 288 707 320 683 c 128
 351 659 376 623 393 576 c 128
 410 529 419 462 419 374 c 0
 419 275 410 199 391 145 c 128
 373 90 347 50 316 25 c 128
 284 0 248 -12 209 -12 c 0
 164 -12 127 3 97 33 c 128
 67 64 49 108 43 166 c 1
339 481 m 0
 339 533 327 573 305 602 c 128
 282 631 256 646 226 646 c 0
 195 646 168 630 143 599 c 128
 119 568 107 526 107 474 c 0
 107 427 118 390 142 362 c 128
 165 334 192 320 225 320 c 0
 257 320 284 334 306 362 c 128
 328 390 339 430 339 481 c 0
EndSplineSet
EndChar
StartChar: colon
Encoding: 58 58 27
Width: 219
VWidth: 2048
Flags: W
HStem: -20 20G<76 158> 519 21G<76 158>
VStem: 76 82<0 100 418 519>
Fore
76 418 m 1
 76 519 l 1
 158 519 l 1
 158 418 l 1
 76 418 l 1
76 0 m 1
 76 100 l 1
 158 100 l 1
 158 0 l 1
 76 0 l 1
EndSplineSet
EndChar
StartChar: semicolon
Encoding: 59 59 28
AltUni: 894
Width: 219
VWidth: 2048
Flags: W
HStem: -20 20G<74 115> 519 21G<74 156>
VStem: 74 82<-1 100 418 519>
Fore
74 418 m 1
 74 519 l 1
 156 519 l 1
 156 418 l 1
 74 418 l 1
74 0 m 1
 74 100 l 1
 156 100 l 1
 156 0 l 2
 156 -39 151 -69 139 -91 c 128
 128 -113 111 -130 89 -142 c 1
 69 -104 l 1
 84 -96 95 -85 103 -69 c 128
 110 -54 114 -31 115 0 c 1
 74 0 l 1
EndSplineSet
EndChar
StartChar: less
Encoding: 60 60 29
Width: 470
VWidth: 2048
Flags: W
Fore
44 313 m 1
 44 395 l 1
 433 595 l 1
 433 508 l 1
 125 354 l 1
 433 198 l 1
 433 110 l 1
 44 313 l 1
EndSplineSet
EndChar
StartChar: equal
Encoding: 61 61 30
Width: 470
VWidth: 2048
Flags: W
HStem: 204 82<45 433> 421 82<45 433>
Fore
433 421 m 1
 45 421 l 1
 45 503 l 1
 433 503 l 1
 433 421 l 1
433 204 m 1
 45 204 l 1
 45 286 l 1
 433 286 l 1
 433 204 l 1
EndSplineSet
EndChar
StartChar: greater
Encoding: 62 62 31
Width: 470
VWidth: 2048
Flags: W
Fore
433 313 m 1
 44 110 l 1
 44 198 l 1
 352 354 l 1
 44 508 l 1
 44 595 l 1
 433 395 l 1
 433 313 l 1
EndSplineSet
EndChar
StartChar: question
Encoding: 63 63 32
Width: 447
VWidth: 2048
Flags: W
HStem: -20 20G<183 265> 656 72<211 229>
VStem: 183 82<0 100> 187 70<176 203> 339 74<510 545>
Fore
188 176 m 1xd8
 187 203 l 1
 187 250 195 289 211 321 c 0
 222 343 245 374 281 412 c 0
 305 437 321 458 328 474 c 128
 336 490 339 508 339 527 c 0
 339 563 328 593 305 618 c 128
 282 643 256 656 227 656 c 0
 196 656 171 644 150 621 c 128
 129 598 115 561 109 511 c 1
 35 521 l 1
 42 590 62 642 96 677 c 128
 130 711 173 728 226 728 c 0
 279 728 324 710 360 673 c 128
 395 636 413 590 413 533 c 0
 413 501 407 473 396 447 c 128
 384 421 360 389 325 350 c 0
 295 318 277 292 269 274 c 128
 262 255 258 222 257 176 c 1
 188 176 l 1xd8
183 0 m 1xe8
 183 100 l 1
 265 100 l 1
 265 0 l 1
 183 0 l 1xe8
EndSplineSet
EndChar
StartChar: at
Encoding: 64 64 33
Width: 823
VWidth: 2048
Flags: W
HStem: -210 72<449 479> -1 72<343 356> 457 72<401 419> 658 71<417 460>
VStem: 43 60<205 255> 196 74<189 237> 723 59<333 378>
Fore
464 80 m 1
 445 53 425 33 403 19 c 128
 381 5 361 -1 343 -1 c 0
 304 -1 271 16 244 52 c 0
 212 95 196 150 196 218 c 0
 196 272 207 326 230 378 c 128
 254 430 281 468 312 492 c 128
 344 517 375 529 405 529 c 0
 427 529 449 522 470 507 c 128
 491 492 510 469 525 439 c 1
 538 515 l 1
 610 515 l 1
 552 188 l 1
 544 142 541 117 541 112 c 0
 541 102 543 95 549 89 c 128
 554 83 561 80 568 80 c 0
 583 80 603 91 629 114 c 128
 656 137 678 170 696 213 c 128
 714 257 723 303 723 351 c 0
 723 409 710 461 685 508 c 128
 660 555 625 592 581 618 c 128
 537 645 489 658 438 658 c 0
 376 658 320 641 271 608 c 128
 221 575 180 525 149 460 c 128
 118 394 103 319 103 235 c 0
 103 155 117 88 145 32 c 128
 173 -23 212 -66 264 -95 c 128
 316 -124 378 -138 449 -138 c 0
 513 -138 570 -125 618 -98 c 128
 667 -71 704 -35 729 9 c 1
 802 9 l 1
 786 -30 760 -68 723 -104 c 128
 686 -140 646 -167 602 -184 c 128
 557 -202 506 -210 449 -210 c 0
 364 -210 293 -194 234 -160 c 128
 175 -126 128 -76 94 -10 c 128
 60 56 43 135 43 228 c 0
 43 327 62 416 100 496 c 128
 137 576 184 635 241 673 c 128
 299 710 365 729 441 729 c 0
 505 729 563 713 614 682 c 128
 664 651 705 606 736 546 c 128
 767 487 782 421 782 349 c 0
 782 251 754 166 697 92 c 0
 649 29 597 -2 541 -2 c 0
 514 -2 495 5 484 18 c 128
 473 31 466 52 464 80 c 1
270 212 m 0
 270 167 279 132 297 108 c 128
 314 83 334 71 356 71 c 0
 375 71 396 80 419 99 c 128
 442 118 461 148 478 188 c 128
 494 229 502 271 502 316 c 0
 502 361 493 396 475 420 c 128
 456 444 434 457 409 457 c 0
 389 457 369 448 349 431 c 128
 329 414 311 384 294 340 c 128
 278 297 270 254 270 212 c 0
EndSplineSet
EndChar
StartChar: A
Encoding: 65 65 34
Width: 537
VWidth: 2048
Flags: W
HStem: -20 20G<-1 82 459 548> 217 77<168 391> 716 21G<225 308>
Fore
-1 0 m 1
 225 716 l 1
 308 716 l 1
 548 0 l 1
 459 0 l 1
 391 217 l 1
 146 217 l 1
 82 0 l 1
 -1 0 l 1
168 294 m 1
 367 294 l 1
 306 492 l 2
 287 553 273 603 265 641 c 1
 257 595 247 549 233 504 c 1
 168 294 l 1
EndSplineSet
EndChar
StartChar: B
Encoding: 66 66 35
Width: 537
VWidth: 2048
Flags: W
HStem: 0 84<138 302> 331 84<138 287> 631 85<61 287>
VStem: 61 77<0 331 0 631> 399 77<520 535> 423 81<208 225>
Fore
61 0 m 1xf4
 61 716 l 1
 281 716 l 2
 325 716 361 709 387 695 c 128
 413 681 434 660 451 630 c 128
 467 601 476 569 476 533 c 0xf8
 476 500 468 471 454 444 c 128
 440 418 420 397 394 381 c 1
 428 368 455 347 474 318 c 128
 494 288 504 251 504 208 c 0
 504 164 495 126 477 94 c 128
 460 61 436 37 406 22 c 128
 377 7 336 0 284 0 c 2
 61 0 l 1xf4
138 415 m 1
 265 415 l 2
 298 415 322 417 336 422 c 0
 356 429 372 440 383 456 c 128
 393 472 399 494 399 522 c 0
 399 548 394 569 384 586 c 128
 374 603 361 615 344 622 c 128
 328 628 299 631 256 631 c 2
 138 631 l 1
 138 415 l 1
138 84 m 1
 284 84 l 2
 316 84 340 87 355 93 c 0
 378 102 394 116 406 135 c 128
 418 154 423 179 423 208 c 0xf4
 423 235 418 258 407 277 c 128
 396 295 381 309 362 318 c 128
 343 326 314 331 274 331 c 2
 138 331 l 1
 138 84 l 1
EndSplineSet
EndChar
StartChar: C
Encoding: 67 67 36
Width: 582
VWidth: 2048
Flags: W
HStem: -12 81<294 328> 647 81<294 328>
VStem: 39 80<363 389>
Fore
480 251 m 1
 558 227 l 1
 541 147 511 87 468 47 c 128
 424 8 372 -12 310 -12 c 0
 256 -12 209 1 171 28 c 128
 132 54 101 97 76 155 c 128
 51 214 39 283 39 363 c 0
 39 442 51 508 76 563 c 128
 101 617 134 658 176 686 c 128
 218 714 265 728 316 728 c 0
 373 728 422 710 462 675 c 128
 503 640 532 588 548 520 c 1
 472 498 l 1
 446 597 393 647 315 647 c 0
 276 647 242 637 213 617 c 128
 185 597 162 566 145 523 c 128
 128 481 119 428 119 363 c 0
 119 265 136 191 171 142 c 128
 205 93 251 69 309 69 c 0
 351 69 387 84 418 114 c 128
 449 144 470 190 480 251 c 1
EndSplineSet
EndChar
StartChar: D
Encoding: 68 68 37
Width: 582
VWidth: 2048
Flags: W
HStem: 0 84<139 287> 631 85<62 287>
VStem: 62 77<0 631> 467 80<335 401>
Fore
62 0 m 1
 62 716 l 1
 264 716 l 2
 314 716 352 711 378 703 c 0
 413 691 442 670 467 640 c 128
 492 610 512 572 526 526 c 128
 540 480 547 425 547 362 c 0
 547 281 535 212 511 156 c 128
 487 99 457 59 420 35 c 128
 382 12 334 0 273 0 c 2
 62 0 l 1
139 84 m 1
 264 84 l 2
 315 84 353 93 379 109 c 128
 405 126 425 152 439 188 c 0
 458 237 467 295 467 363 c 0
 467 435 457 492 437 534 c 128
 418 575 392 603 361 617 c 0
 340 627 307 631 262 631 c 2
 139 631 l 1
 139 84 l 1
EndSplineSet
EndChar
StartChar: E
Encoding: 69 69 38
Width: 537
VWidth: 2048
Flags: W
HStem: 0 84<143 503> 328 84<143 467> 631 85<65 489>
VStem: 65 78<0 328 0 631>
Fore
65 0 m 1
 65 716 l 1
 489 716 l 1
 489 631 l 1
 143 631 l 1
 143 412 l 1
 467 412 l 1
 467 328 l 1
 143 328 l 1
 143 84 l 1
 503 84 l 1
 503 0 l 1
 65 0 l 1
EndSplineSet
EndChar
StartChar: F
Encoding: 70 70 39
Width: 500
VWidth: 2048
Flags: W
HStem: -20 20G<69 146> 325 85<146 422> 631 85<69 465>
VStem: 69 77<0 325 0 631>
Fore
69 0 m 1
 69 716 l 1
 465 716 l 1
 465 631 l 1
 146 631 l 1
 146 410 l 1
 422 410 l 1
 422 325 l 1
 146 325 l 1
 146 0 l 1
 69 0 l 1
EndSplineSet
EndChar
StartChar: G
Encoding: 71 71 40
Width: 629
VWidth: 2048
Flags: W
HStem: -12 85<332 350> 281 84<340 512> 647 81<316 350>
VStem: 45 80<339 389> 512 76<146 365>
Fore
340 281 m 1
 340 365 l 1
 588 365 l 1
 588 100 l 1
 550 62 511 35 470 16 c 128
 430 -3 388 -12 345 -12 c 0
 287 -12 236 2 191 31 c 128
 146 59 111 101 85 156 c 128
 59 211 45 277 45 354 c 0
 45 433 59 501 85 559 c 128
 111 617 146 659 188 687 c 128
 231 714 282 728 340 728 c 0
 383 728 420 720 453 704 c 128
 485 688 511 666 532 636 c 128
 553 607 569 567 579 516 c 1
 509 492 l 1
 500 533 488 563 474 583 c 128
 459 603 440 618 417 630 c 128
 394 641 367 647 338 647 c 0
 295 647 259 637 228 616 c 128
 197 595 172 563 154 520 c 128
 135 476 125 423 125 360 c 0
 125 264 146 192 186 145 c 128
 226 97 278 73 342 73 c 0
 372 73 404 81 436 95 c 128
 468 110 493 127 512 147 c 1
 512 281 l 1
 340 281 l 1
EndSplineSet
EndChar
StartChar: H
Encoding: 72 72 41
Width: 582
VWidth: 2048
Flags: W
HStem: -20 20G<63 141 446 523> 337 85<141 446> 716 21G<63 141 446 523>
VStem: 63 78<0 337 0 716> 446 77<0 716>
Fore
63 0 m 1
 63 716 l 1
 141 716 l 1
 141 422 l 1
 446 422 l 1
 446 716 l 1
 523 716 l 1
 523 0 l 1
 446 0 l 1
 446 337 l 1
 141 337 l 1
 141 0 l 1
 63 0 l 1
EndSplineSet
EndChar
StartChar: I
Encoding: 73 73 42
Width: 219
VWidth: 2048
Flags: W
HStem: -20 20G<78 156> 716 21G<78 156>
VStem: 78 78<0 716>
Fore
78 0 m 1
 78 716 l 1
 156 716 l 1
 156 0 l 1
 78 0 l 1
EndSplineSet
EndChar
StartChar: J
Encoding: 74 74 43
Width: 401
VWidth: 2048
Flags: W
HStem: -12 84<165 182> 716 21G<267 345>
VStem: 267 78<195 716>
Fore
22 203 m 1
 92 215 l 1
 94 160 102 123 117 103 c 128
 132 82 153 72 179 72 c 0
 198 72 214 77 228 88 c 128
 242 98 252 111 257 126 c 0
 264 148 267 180 267 223 c 2
 267 716 l 1
 345 716 l 1
 345 228 l 2
 345 140 330 78 302 42 c 128
 273 6 232 -12 180 -12 c 0
 129 -12 90 4 65 37 c 0
 36 74 22 129 22 203 c 1
EndSplineSet
EndChar
StartChar: K
Encoding: 75 75 44
Width: 537
VWidth: 2048
Flags: W
HStem: -20 20G<61 138 443 546> 716 21G<61 138 430 535>
VStem: 61 77<0 248 0 716>
Fore
61 0 m 1
 61 716 l 1
 138 716 l 1
 138 361 l 1
 430 716 l 1
 535 716 l 1
 289 426 l 1
 546 0 l 1
 443 0 l 1
 234 362 l 1
 138 248 l 1
 138 0 l 1
 61 0 l 1
EndSplineSet
EndChar
StartChar: L
Encoding: 76 76 45
Width: 447
VWidth: 2048
Flags: W
HStem: 0 84<135 425> 716 21G<59 136>
VStem: 59 77<0 716>
Fore
59 0 m 1
 59 716 l 1
 136 716 l 1
 136 84 l 1
 425 84 l 1
 425 0 l 1
 59 0 l 1
EndSplineSet
EndChar
StartChar: M
Encoding: 77 77 46
Width: 674
VWidth: 2048
Flags: W
HStem: -20 20G<61 136 306 375 546 621> 716 21G<61 178 517 621>
VStem: 61 75<0 609> 546 75<0 716>
Fore
61 0 m 1
 61 716 l 1
 178 716 l 1
 317 209 l 1
 345 103 l 1
 352 129 362 168 376 218 c 1
 517 716 l 1
 621 716 l 1
 621 0 l 1
 546 0 l 1
 546 599 l 1
 375 0 l 1
 306 0 l 1
 136 609 l 1
 136 0 l 1
 61 0 l 1
EndSplineSet
EndChar
StartChar: N
Encoding: 78 78 47
Width: 582
VWidth: 2048
Flags: W
HStem: -20 20G<61 136 444 523> 716 21G<61 141 449 523>
VStem: 61 75<0 562> 449 74<154 716>
Fore
61 0 m 1
 61 716 l 1
 141 716 l 1
 449 154 l 1
 449 716 l 1
 523 716 l 1
 523 0 l 1
 444 0 l 1
 136 562 l 1
 136 0 l 1
 61 0 l 1
EndSplineSet
EndChar
StartChar: O
Encoding: 79 79 48
Width: 629
VWidth: 2048
Flags: W
HStem: -12 81<322 331> 647 82<323 331>
VStem: 42 80<323 373> 523 80<323 389>
Fore
42 349 m 0
 42 471 68 565 122 630 c 128
 176 696 243 729 323 729 c 0
 375 729 422 714 464 685 c 128
 507 655 541 613 566 557 c 128
 591 501 603 435 603 357 c 0
 603 251 579 165 531 98 c 0
 478 25 408 -12 322 -12 c 0
 236 -12 166 26 113 101 c 0
 65 169 42 252 42 349 c 0
122 347 m 0
 122 259 141 191 180 142 c 128
 219 93 266 69 322 69 c 0
 379 69 427 93 465 143 c 128
 504 192 523 264 523 359 c 0
 523 421 513 476 493 524 c 0
 478 562 455 591 424 614 c 128
 393 636 360 647 323 647 c 0
 265 647 216 623 178 574 c 128
 141 525 122 449 122 347 c 0
EndSplineSet
EndChar
StartChar: P
Encoding: 80 80 49
Width: 537
VWidth: 2048
Flags: W
HStem: -20 20G<63 141> 291 84<141 304> 631 85<63 320>
VStem: 63 78<0 291 0 631> 431 80<495 512>
Fore
63 0 m 1
 63 716 l 1
 285 716 l 2
 337 716 375 711 400 702 c 0
 434 690 461 667 481 633 c 128
 501 600 511 559 511 510 c 0
 511 445 495 393 462 352 c 128
 429 311 372 291 292 291 c 2
 141 291 l 1
 141 0 l 1
 63 0 l 1
141 375 m 1
 293 375 l 2
 341 375 376 386 398 408 c 128
 420 430 431 462 431 506 c 0
 431 534 426 558 415 579 c 128
 404 599 391 613 375 620 c 128
 360 628 332 631 292 631 c 2
 141 631 l 1
 141 375 l 1
EndSplineSet
EndChar
StartChar: Q
Encoding: 81 81 50
Width: 629
VWidth: 2048
Flags: W
HStem: -12 81<308 326> 647 82<308 326>
VStem: 37 80<357 393> 518 81<359 393>
Fore
510 77 m 1
 546 46 580 24 610 10 c 1
 587 -56 l 1
 544 -37 502 -7 461 32 c 1
 418 3 370 -12 317 -12 c 0
 231 -12 162 25 109 101 c 0
 61 168 37 254 37 357 c 0
 37 435 50 502 76 559 c 128
 101 616 135 658 177 686 c 128
 219 714 266 729 318 729 c 0
 370 729 417 714 460 685 c 128
 502 656 536 613 561 557 c 128
 586 502 599 436 599 359 c 0
 599 300 591 246 575 198 c 128
 560 150 538 109 510 77 c 1
339 198 m 1
 383 183 420 160 450 129 c 1
 495 181 518 257 518 359 c 0
 518 421 509 473 492 516 c 128
 475 559 450 592 420 614 c 128
 389 636 355 647 319 647 c 0
 261 647 213 623 175 574 c 128
 136 525 117 453 117 357 c 0
 117 263 137 191 175 142 c 128
 214 93 262 69 319 69 c 0
 346 69 372 75 397 88 c 1
 373 107 347 121 320 129 c 1
 339 198 l 1
EndSplineSet
EndChar
StartChar: R
Encoding: 82 82 51
Width: 582
VWidth: 2048
Flags: W
HStem: -20 20G<63 141 483 581> 318 82<141 240> 637 79<63 338>
VStem: 63 78<0 318 0 637> 452 80<521 529>
Fore
63 0 m 1
 63 716 l 1
 323 716 l 2
 378 716 418 709 444 696 c 128
 469 682 491 660 507 629 c 128
 524 598 532 562 532 521 c 0
 532 467 518 423 490 390 c 128
 462 356 421 335 367 326 c 1
 389 313 406 299 417 286 c 0
 440 259 460 228 478 195 c 2
 581 0 l 1
 483 0 l 1
 405 149 l 1
 375 207 352 246 336 267 c 128
 321 287 306 300 291 307 c 128
 277 314 257 318 230 318 c 2
 141 318 l 1
 141 0 l 1
 63 0 l 1
141 400 m 1
 308 400 l 2
 344 400 372 404 391 413 c 128
 410 422 424 436 436 455 c 128
 447 473 452 495 452 521 c 0
 452 557 442 585 420 606 c 128
 399 626 368 637 326 637 c 2
 141 637 l 1
 141 400 l 1
EndSplineSet
EndChar
StartChar: S
Encoding: 83 83 52
Width: 537
VWidth: 2048
Flags: W
HStem: -13 86<265 294> 645 83<250 285>
VStem: 60 74<529 548> 429 75<193 212>
Fore
37 230 m 1
 110 238 l 1
 114 198 123 168 137 146 c 128
 151 124 171 106 196 93 c 128
 222 79 251 73 283 73 c 0
 329 73 365 84 391 107 c 128
 416 129 429 159 429 195 c 0
 429 216 425 234 415 250 c 128
 406 266 392 279 373 289 c 128
 355 299 314 313 252 332 c 0
 197 348 157 364 134 381 c 128
 110 397 92 419 79 444 c 128
 66 470 60 499 60 531 c 0
 60 589 78 636 116 673 c 128
 153 710 204 728 267 728 c 0
 311 728 349 719 382 702 c 128
 414 685 440 660 458 628 c 128
 476 596 486 558 487 514 c 1
 412 507 l 1
 408 554 394 588 370 611 c 128
 346 633 313 645 270 645 c 0
 226 645 192 635 169 615 c 128
 146 595 134 570 134 539 c 0
 134 510 143 487 160 471 c 0
 177 455 215 439 274 423 c 0
 332 407 373 393 396 381 c 0
 432 363 459 339 477 309 c 128
 495 280 504 244 504 203 c 0
 504 162 495 124 476 91 c 128
 456 57 430 31 397 14 c 128
 364 -4 324 -13 278 -13 c 0
 205 -13 147 9 104 53 c 128
 61 96 39 155 37 230 c 1
EndSplineSet
EndChar
StartChar: T
Encoding: 84 84 53
Width: 500
VWidth: 2048
Flags: W
HStem: -20 20G<214 292> 631 85<21 214 21 486>
VStem: 214 78<0 631>
Fore
214 0 m 1
 214 631 l 1
 21 631 l 1
 21 716 l 1
 486 716 l 1
 486 631 l 1
 292 631 l 1
 292 0 l 1
 214 0 l 1
EndSplineSet
EndChar
StartChar: U
Encoding: 85 85 54
Width: 582
VWidth: 2048
Flags: W
HStem: -12 85<270 304> 716 21G<63 141 447 525>
VStem: 63 78<259 716> 447 78<275 716>
Fore
447 716 m 1
 525 716 l 1
 525 302 l 2
 525 233 518 176 505 132 c 128
 491 87 467 52 431 26 c 128
 395 1 350 -12 295 -12 c 0
 217 -12 159 11 121 57 c 128
 82 103 63 185 63 302 c 2
 63 716 l 1
 141 716 l 1
 141 303 l 2
 141 238 146 191 156 162 c 128
 166 133 182 111 205 96 c 128
 228 81 256 73 289 73 c 0
 344 73 385 89 409 120 c 128
 434 151 447 212 447 303 c 2
 447 716 l 1
EndSplineSet
EndChar
StartChar: V
Encoding: 86 86 55
Width: 537
VWidth: 2048
Flags: W
HStem: -20 20G<231 311> 716 21G<4 88 461 541>
Fore
231 0 m 1
 4 716 l 1
 88 716 l 1
 241 196 l 1
 252 155 263 116 271 79 c 1
 281 118 291 157 303 196 c 2
 461 716 l 1
 541 716 l 1
 311 0 l 1
 231 0 l 1
EndSplineSet
EndChar
StartChar: W
Encoding: 87 87 56
Width: 764
VWidth: 2048
Flags: W
HStem: -20 20G<167 246 530 605> 716 21G<11 91 343 437 688 766>
Fore
167 0 m 1
 11 716 l 1
 91 716 l 1
 180 247 l 1
 190 198 198 150 205 100 c 1
 231 232 l 1
 343 716 l 1
 437 716 l 1
 521 354 l 2
 542 265 557 181 567 100 c 1
 574 147 584 199 596 256 c 1
 688 716 l 1
 766 716 l 1
 605 0 l 1
 530 0 l 1
 406 545 l 1
 388 629 l 1
 382 598 376 570 371 545 c 1
 246 0 l 1
 167 0 l 1
EndSplineSet
EndChar
StartChar: X
Encoding: 88 88 57
Width: 537
VWidth: 2048
Flags: W
HStem: -20 20G<4 97 446 542> 716 21G<31 123 442 526>
Fore
4 0 m 1
 231 373 l 1
 31 716 l 1
 123 716 l 1
 230 532 l 2
 252 494 267 465 277 444 c 1
 290 470 305 497 323 526 c 2
 442 716 l 1
 526 716 l 1
 320 378 l 1
 542 0 l 1
 446 0 l 1
 298 255 l 2
 290 270 282 286 273 303 c 1
 260 277 250 259 245 250 c 1
 97 0 l 1
 4 0 l 1
EndSplineSet
EndChar
StartChar: Y
Encoding: 89 89 58
Width: 537
VWidth: 2048
Flags: W
HStem: -20 20G<229 306> 716 21G<2 97 450 541>
VStem: 229 77<0 303>
Fore
229 0 m 1
 229 303 l 1
 2 716 l 1
 97 716 l 1
 212 500 l 2
 235 457 255 417 272 379 c 1
 290 416 311 458 336 505 c 2
 450 716 l 1
 541 716 l 1
 306 303 l 1
 306 0 l 1
 229 0 l 1
EndSplineSet
EndChar
StartChar: Z
Encoding: 90 90 59
Width: 500
VWidth: 2048
Flags: W
HStem: 0 84<107 481> 631 85<51 379>
Fore
18 0 m 1
 18 88 l 1
 318 546 l 2
 339 578 360 607 379 631 c 1
 51 631 l 1
 51 716 l 1
 472 716 l 1
 472 631 l 1
 143 135 l 1
 107 84 l 1
 481 84 l 1
 481 0 l 1
 18 0 l 1
EndSplineSet
EndChar
StartChar: bracketleft
Encoding: 91 91 60
Width: 219
VWidth: 2048
Flags: W
HStem: -199 73<129 216> 643 73<57 216>
VStem: 57 72<-199 643>
Fore
57 -199 m 1
 57 716 l 1
 216 716 l 1
 216 643 l 1
 129 643 l 1
 129 -126 l 1
 216 -126 l 1
 216 -199 l 1
 57 -199 l 1
EndSplineSet
EndChar
StartChar: backslash
Encoding: 92 92 61
Width: 219
VWidth: 2048
Flags: W
HStem: -32 20G<170 228> 728 21G<0 58>
Fore
170 -12 m 1
 0 728 l 1
 58 728 l 1
 228 -12 l 1
 170 -12 l 1
EndSplineSet
EndChar
StartChar: bracketright
Encoding: 93 93 62
Width: 219
VWidth: 2048
Flags: W
HStem: -199 73<18 177> 643 73<18 104>
VStem: 104 73<-126 716>
Fore
177 -199 m 1
 18 -199 l 1
 18 -126 l 1
 104 -126 l 1
 104 643 l 1
 18 643 l 1
 18 716 l 1
 177 716 l 1
 177 -199 l 1
EndSplineSet
EndChar
StartChar: asciicircum
Encoding: 94 94 63
Width: 375
VWidth: 2048
Flags: W
HStem: 728 21G<164 222>
Fore
96 337 m 1
 22 337 l 1
 164 728 l 1
 222 728 l 1
 363 337 l 1
 291 337 l 1
 192 628 l 1
 96 337 l 1
EndSplineSet
EndChar
StartChar: underscore
Encoding: 95 95 64
Width: 447
VWidth: 2048
Flags: W
HStem: -125 50<-6 460>
Fore
-6 -75 m 1
 460 -75 l 1
 460 -125 l 1
 -6 -125 l 1
 -6 -75 l 1
EndSplineSet
EndChar
StartChar: grave
Encoding: 96 96 65
Width: 263
VWidth: 2048
Flags: W
HStem: 583 137<36 186>
Fore
186 583 m 1
 128 583 l 1
 36 720 l 1
 132 720 l 1
 186 583 l 1
EndSplineSet
EndChar
StartChar: a
Encoding: 97 97 66
Width: 447
VWidth: 2048
Flags: W
HStem: -12 69<174 193> 458 72<206 236>
VStem: 28 77<129 149> 324 73<207 260 334 373.675>
Fore
330 64 m 1
 306 39 281 20 255 7 c 128
 229 -5 202 -12 174 -12 c 0
 130 -12 94 2 68 28 c 128
 42 55 28 91 28 136 c 0
 28 166 35 193 47 216 c 128
 59 239 76 257 98 270 c 128
 119 283 152 293 195 299 c 0
 254 307 297 317 324 329 c 1
 325 352 l 1
 325 387 318 412 306 426 c 0
 288 447 260 458 223 458 c 0
 190 458 165 451 148 437 c 128
 131 423 119 397 111 359 c 1
 41 371 l 1
 51 426 71 467 102 492 c 128
 133 518 177 530 234 530 c 0
 278 530 313 522 339 505 c 128
 364 488 380 468 387 443 c 128
 394 418 397 382 397 334 c 2
 397 217 l 2
 397 135 399 84 402 62 c 128
 405 41 411 20 420 0 c 1
 345 0 l 1
 337 18 332 39 330 64 c 1
324 260 m 1
 298 247 259 236 207 227 c 0
 176 222 155 216 143 209 c 128
 131 203 122 193 115 181 c 128
 108 169 105 155 105 139 c 0
 105 114 113 94 128 79 c 128
 143 65 164 57 191 57 c 0
 217 57 240 64 261 77 c 128
 282 90 298 108 309 131 c 128
 319 153 324 185 324 228 c 2
 324 260 l 1
EndSplineSet
EndChar
StartChar: b
Encoding: 98 98 67
Width: 447
VWidth: 2048
Flags: W
HStem: -12 73<227 245> 458 72<227 245> 716 21G<52 124>
VStem: 52 67<0 65 0 293> 347 74<243 293>
Fore
119 0 m 1
 52 0 l 1
 52 716 l 1
 124 716 l 1
 124 460 l 1
 139 484 157 501 176 513 c 128
 195 524 217 530 241 530 c 0
 274 530 304 520 331 500 c 128
 358 481 380 451 396 410 c 128
 413 370 421 321 421 263 c 0
 421 175 403 108 366 60 c 128
 329 12 286 -12 237 -12 c 0
 212 -12 190 -5 170 8 c 128
 150 20 133 40 119 65 c 1
 119 0 l 1
118 263 m 0
 118 209 123 169 133 143 c 128
 143 116 156 96 174 82 c 128
 192 68 212 61 234 61 c 0
 264 61 290 77 313 111 c 128
 336 144 347 194 347 260 c 0
 347 328 336 378 314 410 c 128
 292 442 265 458 232 458 c 0
 203 458 176 441 153 408 c 128
 130 375 118 326 118 263 c 0
EndSplineSet
EndChar
StartChar: c
Encoding: 99 99 68
Width: 401
VWidth: 2048
Flags: W
HStem: -12 73<209.551 232> 458 72<221 241>
VStem: 32 73<227 293>
Fore
332 190 m 1
 402 179 l 1
 394 117 374 70 341 37 c 128
 308 5 269 -12 223 -12 c 0
 167 -12 122 11 86 57 c 128
 50 103 32 170 32 260 c 0
 32 350 50 418 86 463 c 128
 122 508 169 530 226 530 c 0
 270 530 307 517 337 489 c 128
 367 462 387 421 395 366 c 1
 325 353 l 1
 318 388 306 414 290 432 c 128
 273 449 252 458 229 458 c 0
 193 458 164 442 140 411 c 128
 117 379 105 330 105 261 c 0
 105 191 117 139 139 108 c 128
 161 76 190 61 225 61 c 0
 252 61 275 71 295 92 c 128
 314 113 326 146 332 190 c 1
EndSplineSet
EndChar
StartChar: d
Encoding: 100 100 69
Width: 447
VWidth: 2048
Flags: W
HStem: -12 73<205 219> 458 72<202 219> 716 21G<324 396>
VStem: 27 74<259 293> 324 72<459 716>
Fore
329 0 m 1
 329 65 l 1
 316 40 299 21 278 8 c 128
 258 -5 236 -12 212 -12 c 0
 162 -12 118 12 82 59 c 128
 45 107 27 173 27 259 c 0
 27 318 35 368 51 409 c 128
 68 450 89 481 116 500 c 128
 144 520 174 530 207 530 c 0
 231 530 253 524 273 511 c 128
 294 499 310 481 324 459 c 1
 324 716 l 1
 396 716 l 1
 396 0 l 1
 329 0 l 1
101 259 m 0
 101 192 112 142 135 109 c 128
 159 77 186 61 217 61 c 0
 247 61 274 76 296 107 c 128
 319 139 330 186 330 249 c 0
 330 322 319 375 296 408 c 128
 274 441 246 458 211 458 c 0
 181 458 155 442 133 410 c 128
 111 378 101 327 101 259 c 0
EndSplineSet
EndChar
StartChar: e
Encoding: 101 101 70
Width: 447
VWidth: 2048
Flags: W
HStem: -12 73<219 237> 237 72<107 420> 458 72<219 237>
Fore
344 167 m 1
 418 156 l 1
 406 100 383 59 351 31 c 128
 318 2 278 -12 230 -12 c 0
 170 -12 122 11 84 57 c 128
 47 103 28 169 28 255 c 0
 28 344 47 413 85 460 c 128
 122 507 170 530 228 530 c 0
 283 530 328 507 365 461 c 128
 402 415 420 348 420 260 c 1
 420 237 l 1
 103 237 l 1
 105 179 119 135 143 105 c 128
 167 75 196 61 231 61 c 0
 285 61 323 96 344 167 c 1
107 309 m 1
 344 309 l 1
 341 354 331 388 315 410 c 0
 292 442 263 458 227 458 c 0
 195 458 167 445 145 418 c 128
 122 391 109 355 107 309 c 1
EndSplineSet
EndChar
StartChar: f
Encoding: 102 102 71
Width: 219
VWidth: 2048
Flags: W
HStem: -20 20G<73 145> 450 69<9 73 145 228> 647 81<189 207>
VStem: 73 72<0 450 519 576>
Fore
73 0 m 1
 73 450 l 1
 9 450 l 1
 9 519 l 1
 73 519 l 1
 73 574 l 2
 73 614 77 645 86 665 c 128
 94 686 107 701 125 712 c 128
 142 723 164 728 190 728 c 0
 211 728 233 725 258 719 c 1
 247 643 l 1
 232 646 218 647 205 647 c 0
 183 647 168 642 158 631 c 128
 149 619 145 598 145 566 c 2
 145 519 l 1
 228 519 l 1
 228 450 l 1
 145 450 l 1
 145 0 l 1
 73 0 l 1
EndSplineSet
EndChar
StartChar: g
Encoding: 103 103 72
Width: 447
VWidth: 2048
Flags: W
HStem: -210 72<200 217> 0 73<205 217> 458 72<200 218>
VStem: 25 74<237 287> 327 72<18 70>
Fore
39 -43 m 1
 109 -56 l 1
 113 -83 122 -104 139 -117 c 128
 155 -131 178 -138 207 -138 c 0
 238 -138 263 -130 282 -115 c 128
 301 -100 313 -77 320 -47 c 0
 325 -29 327 9 327 68 c 1
 311 45 293 28 274 17 c 128
 254 6 233 0 209 0 c 0
 158 0 116 21 83 64 c 0
 44 114 25 180 25 263 c 0
 25 319 33 368 50 409 c 128
 67 451 89 481 117 501 c 128
 144 521 175 530 209 530 c 0
 235 530 257 524 278 512 c 128
 299 499 317 481 333 456 c 1
 333 519 l 1
 399 519 l 1
 399 70 l 2
 399 -9 393 -66 380 -100 c 128
 367 -134 346 -161 316 -181 c 128
 286 -201 251 -210 209 -210 c 0
 154 -210 112 -196 82 -166 c 128
 52 -136 38 -95 39 -43 c 1
99 269 m 0
 99 201 110 151 133 120 c 128
 155 88 183 73 215 73 c 0
 248 73 276 88 298 119 c 128
 321 149 333 198 333 265 c 0
 333 330 321 378 297 410 c 128
 274 442 245 458 212 458 c 0
 182 458 156 442 133 410 c 128
 110 378 99 331 99 269 c 0
EndSplineSet
EndChar
StartChar: h
Encoding: 104 104 73
Width: 447
VWidth: 2048
Flags: W
HStem: -20 20G<53 125 327 399> 455 75<235 252> 716 21G<53 125>
VStem: 53 72<0 305 0 716> 327 72<0 353>
Fore
53 0 m 1
 53 716 l 1
 125 716 l 1
 125 459 l 1
 141 483 161 501 182 512 c 128
 203 524 227 530 252 530 c 0
 298 530 333 516 360 487 c 128
 386 458 399 405 399 329 c 2
 399 0 l 1
 327 0 l 1
 327 329 l 2
 327 374 319 406 303 425 c 128
 287 445 265 455 237 455 c 0
 206 455 179 442 157 417 c 128
 135 392 125 347 125 284 c 2
 125 0 l 1
 53 0 l 1
EndSplineSet
EndChar
StartChar: i
Encoding: 105 105 74
Width: 173
VWidth: 2048
Flags: W
HStem: -20 20G<53 125> 499 20G<53 125> 716 21G<53 125>
VStem: 53 72<0 519 615 716>
Fore
53 615 m 1
 53 716 l 1
 125 716 l 1
 125 615 l 1
 53 615 l 1
53 0 m 1
 53 519 l 1
 125 519 l 1
 125 0 l 1
 53 0 l 1
EndSplineSet
EndChar
StartChar: j
Encoding: 106 106 75
Width: 173
VWidth: 2048
Flags: W
HStem: -210 77<6 18> 499 20G<52 124> 716 21G<52 124>
VStem: 52 72<-67 519 614 716>
Fore
52 614 m 1
 52 716 l 1
 124 716 l 1
 124 614 l 1
 52 614 l 1
-39 -201 m 1
 -25 -126 l 1
 -11 -131 0 -133 8 -133 c 0
 24 -133 35 -127 42 -115 c 128
 49 -103 52 -74 52 -26 c 2
 52 519 l 1
 124 519 l 1
 124 -28 l 2
 124 -99 115 -147 97 -172 c 128
 79 -198 52 -210 18 -210 c 0
 -2 -210 -21 -207 -39 -201 c 1
EndSplineSet
EndChar
StartChar: k
Encoding: 107 107 76
Width: 401
VWidth: 2048
Flags: W
HStem: -20 20G<55 126 318 407> 499 20G<297 391> 716 21G<55 126>
VStem: 55 71<0 206 0 716>
Fore
55 0 m 1
 55 716 l 1
 126 716 l 1
 126 308 l 1
 297 519 l 1
 391 519 l 1
 228 326 l 1
 407 0 l 1
 318 0 l 1
 177 265 l 1
 126 206 l 1
 126 0 l 1
 55 0 l 1
EndSplineSet
EndChar
StartChar: l
Encoding: 108 108 77
Width: 173
VWidth: 2048
Flags: W
HStem: -20 20G<51 123> 716 21G<51 123>
VStem: 51 72<0 716>
Fore
51 0 m 1
 51 716 l 1
 123 716 l 1
 123 0 l 1
 51 0 l 1
EndSplineSet
EndChar
StartChar: m
Encoding: 109 109 78
Width: 674
VWidth: 2048
Flags: W
HStem: -20 20G<54 125 306 378 558 630> 454 76<229 247 481 499>
VStem: 54 64<0 519> 54 71<0 305> 306 72<0 329> 558 72<0 358>
Fore
54 0 m 1xec
 54 519 l 1
 118 519 l 1
 118 446 l 1xec
 132 473 151 494 173 508 c 128
 196 523 220 530 247 530 c 0
 277 530 302 523 323 507 c 128
 344 492 358 469 367 439 c 1
 384 470 404 492 426 508 c 128
 448 523 472 530 499 530 c 0
 539 530 571 516 595 489 c 128
 618 461 630 417 630 356 c 2
 630 0 l 1
 558 0 l 1
 558 327 l 2
 558 364 555 390 550 406 c 128
 545 421 536 433 524 441 c 128
 512 450 498 454 483 454 c 0
 452 454 427 442 408 417 c 128
 388 393 378 354 378 301 c 2
 378 0 l 1
 306 0 l 1
 306 337 l 2
 306 380 300 410 286 428 c 128
 273 445 255 454 232 454 c 0
 199 454 173 441 154 414 c 128
 135 388 125 339 125 269 c 2
 125 0 l 1xdc
 54 0 l 1xec
EndSplineSet
EndChar
StartChar: n
Encoding: 110 110 79
Width: 447
VWidth: 2048
Flags: W
HStem: -20 20G<53 125 326 398> 454 76<236 253>
VStem: 53 65<0 519> 53 72<0 315> 326 72<0 337>
Fore
53 0 m 1xe8
 53 519 l 1
 118 519 l 1
 118 445 l 1xe8
 133 473 152 495 175 509 c 128
 198 523 224 530 253 530 c 0
 276 530 297 526 316 517 c 128
 336 508 351 496 363 482 c 128
 375 467 384 448 390 425 c 128
 396 402 398 367 398 319 c 2
 398 0 l 1
 326 0 l 1
 326 315 l 2
 326 354 323 381 316 399 c 128
 310 417 300 430 286 440 c 128
 272 449 256 454 238 454 c 0
 203 454 176 441 155 416 c 128
 135 390 125 346 125 283 c 2
 125 0 l 1xd8
 53 0 l 1xe8
EndSplineSet
EndChar
StartChar: o
Encoding: 111 111 80
Width: 447
VWidth: 2048
Flags: W
HStem: -12 73<217 235> 458 72<217 235>
VStem: 26 74<259 277> 351 73<243 277>
Fore
26 259 m 0
 26 349 45 416 82 462 c 128
 120 507 167 530 225 530 c 0
 282 530 329 507 367 462 c 128
 405 416 424 351 424 265 c 0
 424 172 406 102 368 57 c 128
 331 11 283 -12 225 -12 c 0
 168 -12 121 11 83 57 c 128
 45 103 26 170 26 259 c 0
100 259 m 0
 100 192 112 142 136 110 c 128
 161 77 191 61 227 61 c 0
 261 61 290 77 314 110 c 128
 338 143 351 193 351 259 c 0
 351 326 338 376 314 408 c 128
 290 441 259 458 223 458 c 0
 189 458 160 441 136 408 c 128
 112 375 100 326 100 259 c 0
EndSplineSet
EndChar
StartChar: p
Encoding: 112 112 81
Width: 447
VWidth: 2048
Flags: W
HStem: -219 20G<53 125> -12 73<228 246> 461 69<228 246>
VStem: 53 65<-199 282 -199 519> 53 72<-199 54> 348 74<232 282>
Fore
53 -199 m 1xf4
 53 519 l 1xf4
 119 519 l 1
 119 451 l 1
 135 479 153 499 173 512 c 128
 193 524 215 530 241 530 c 0
 275 530 305 520 332 500 c 128
 359 481 381 450 397 410 c 128
 414 369 422 321 422 264 c 0
 422 175 403 108 366 60 c 128
 330 12 286 -12 236 -12 c 0
 214 -12 194 -6 174 5 c 128
 155 17 139 33 125 54 c 1
 125 -199 l 1xec
 53 -199 l 1xf4
118 256 m 0
 118 189 129 140 151 108 c 128
 174 76 201 61 233 61 c 0
 264 61 290 77 313 110 c 128
 337 143 348 194 348 262 c 0
 348 330 337 380 314 413 c 128
 292 445 265 461 232 461 c 0
 203 461 177 444 153 409 c 128
 130 374 118 323 118 256 c 0
EndSplineSet
EndChar
StartChar: q
Encoding: 113 113 82
Width: 447
VWidth: 2048
Flags: W
HStem: -219 20G<324 396> -12 73<206 222> 461 69<202 222>
VStem: 27 74<232 282> 324 72<-199 519> 331 65<232 519>
Fore
324 -199 m 1xf8
 324 55 l 1xf8
 312 35 296 19 276 7 c 128
 256 -6 235 -12 215 -12 c 0
 164 -12 120 12 83 61 c 128
 46 109 27 177 27 264 c 0
 27 340 43 404 74 454 c 128
 105 505 150 530 207 530 c 0
 233 530 257 524 277 510 c 128
 298 496 316 476 331 449 c 1
 331 519 l 1xf4
 396 519 l 1
 396 -199 l 1
 324 -199 l 1xf8
101 261 m 0
 101 193 113 143 136 110 c 128
 160 77 188 61 220 61 c 0
 249 61 275 76 297 108 c 128
 320 140 331 187 331 250 c 0xf4
 331 321 319 374 296 409 c 128
 272 444 244 461 211 461 c 0
 182 461 156 445 134 412 c 128
 112 380 101 329 101 261 c 0
EndSplineSet
EndChar
StartChar: r
Encoding: 114 114 83
Width: 263
VWidth: 2048
Flags: W
HStem: -20 20G<53 125> 439 91<205 214>
VStem: 53 65<0 519> 53 72<0 289>
Fore
53 0 m 1xe0
 53 519 l 1
 118 519 l 1
 118 440 l 1xe0
 134 476 149 501 163 512 c 128
 177 524 193 530 210 530 c 0
 234 530 259 521 284 502 c 1
 259 420 l 1
 241 433 224 439 207 439 c 0
 192 439 178 434 165 423 c 128
 152 413 143 398 138 378 c 0
 129 345 125 309 125 271 c 2
 125 0 l 1xd0
 53 0 l 1xe0
EndSplineSet
EndChar
StartChar: s
Encoding: 115 115 84
Width: 401
VWidth: 2048
Flags: W
HStem: -12 73<196 218> 458 72<184 218>
VStem: 38 69<379 393> 305 73<141 154>
Fore
25 155 m 1
 97 168 l 1
 101 132 112 105 131 87 c 128
 150 69 175 61 207 61 c 0
 238 61 262 68 279 84 c 128
 296 99 305 119 305 143 c 0
 305 163 297 179 283 190 c 0
 273 198 248 208 209 220 c 0
 153 237 116 252 97 264 c 128
 78 276 64 292 53 312 c 128
 43 332 38 355 38 381 c 0
 38 425 52 461 80 489 c 128
 108 516 148 530 198 530 c 0
 229 530 257 525 281 513 c 128
 305 502 323 486 336 467 c 128
 349 448 357 421 362 385 c 1
 292 373 l 1
 285 430 255 458 200 458 c 0
 168 458 145 452 130 439 c 128
 115 427 107 411 107 391 c 0
 107 372 114 357 129 346 c 0
 138 339 164 329 207 314 c 0
 267 295 305 280 323 269 c 128
 340 258 354 242 364 223 c 128
 374 204 378 181 378 154 c 0
 378 104 363 64 331 34 c 128
 300 3 257 -12 203 -12 c 0
 101 -12 42 43 25 155 c 1
EndSplineSet
EndChar
StartChar: t
Encoding: 116 116 85
Width: 219
VWidth: 2048
Flags: W
HStem: -7 82<169 184> 450 69<16 69 141 213>
VStem: 69 72<120 450 519 700>
Fore
213 79 m 1
 223 1 l 1
 203 -4 185 -7 169 -7 c 0
 144 -7 124 -2 109 8 c 128
 94 18 83 32 77 49 c 128
 72 66 69 100 69 152 c 2
 69 450 l 1
 16 450 l 1
 16 519 l 1
 69 519 l 1
 69 647 l 1
 141 700 l 1
 141 519 l 1
 213 519 l 1
 213 450 l 1
 141 450 l 1
 141 147 l 2
 141 119 143 101 147 93 c 0
 153 81 165 75 182 75 c 0
 190 75 200 76 213 79 c 1
EndSplineSet
EndChar
StartChar: u
Encoding: 117 117 86
Width: 447
VWidth: 2048
Flags: W
HStem: -12 76<196 212> 519 21G<51 123 324 396>
VStem: 51 72<195 519> 332 64<0 519>
Fore
332 0 m 1
 332 76 l 1
 315 47 295 25 273 10 c 128
 250 -4 225 -12 197 -12 c 0
 163 -12 135 -3 111 15 c 128
 87 33 71 56 63 84 c 128
 55 112 51 149 51 197 c 2
 51 519 l 1
 123 519 l 1
 123 231 l 2
 123 178 126 142 131 124 c 128
 136 106 146 91 161 80 c 128
 175 69 192 64 210 64 c 0
 245 64 273 78 295 106 c 0
 314 131 324 176 324 241 c 2
 324 519 l 1
 396 519 l 1
 396 0 l 1
 332 0 l 1
EndSplineSet
EndChar
StartChar: v
Encoding: 118 118 87
Width: 401
VWidth: 2048
Flags: W
HStem: -20 20G<172 239> 519 21G<10 86 326 400>
Fore
172 0 m 1
 10 519 l 1
 86 519 l 1
 178 208 l 2
 188 173 197 138 205 104 c 1
 211 131 220 164 231 202 c 2
 326 519 l 1
 400 519 l 1
 239 0 l 1
 172 0 l 1
EndSplineSet
EndChar
StartChar: w
Encoding: 119 119 88
Width: 582
VWidth: 2048
Flags: W
HStem: -20 20G<131 207 376 451> 519 21G<1 76 258 332 514 584>
Fore
131 0 m 1
 1 519 l 1
 76 519 l 1
 143 219 l 1
 168 108 l 1
 190 215 l 1
 258 519 l 1
 332 519 l 1
 396 218 l 1
 417 119 l 1
 441 219 l 1
 514 519 l 1
 584 519 l 1
 451 0 l 1
 376 0 l 1
 309 311 l 1
 292 399 l 1
 207 0 l 1
 131 0 l 1
EndSplineSet
EndChar
StartChar: x
Encoding: 120 120 89
Width: 401
VWidth: 2048
Flags: W
HStem: -20 20G<6 93 315 404> 519 21G<18 107 307 393>
Fore
6 0 m 1
 161 270 l 1
 18 519 l 1
 107 519 l 1
 173 397 l 2
 185 375 195 355 203 339 c 1
 221 372 221 372 235 396 c 2
 307 519 l 1
 393 519 l 1
 246 274 l 1
 404 0 l 1
 315 0 l 1
 228 161 l 1
 205 205 l 1
 93 0 l 1
 6 0 l 1
EndSplineSet
EndChar
StartChar: y
Encoding: 121 121 90
Width: 401
VWidth: 2048
Flags: W
HStem: -210 85<82 99> 519 21G<13 91 331 403>
Fore
51 -200 m 1
 43 -117 l 1
 59 -122 73 -125 84 -125 c 0
 99 -125 112 -122 122 -116 c 128
 132 -110 140 -100 146 -87 c 0
 149 -82 158 -54 175 -1 c 1
 13 519 l 1
 91 519 l 1
 180 218 l 2
 191 181 201 141 210 98 c 1
 219 139 228 178 240 216 c 1
 331 519 l 1
 403 519 l 1
 241 -9 l 1
 220 -77 203 -123 191 -146 c 128
 179 -169 165 -185 150 -195 c 128
 134 -205 117 -210 97 -210 c 0
 83 -210 68 -207 51 -200 c 1
EndSplineSet
EndChar
StartChar: z
Encoding: 122 122 91
Width: 401
VWidth: 2048
Flags: W
HStem: 0 76<159 393> 447 72<32 241>
Fore
16 0 m 1
 16 71 l 1
 287 450 l 1
 256 448 229 447 206 447 c 2
 32 447 l 1
 32 519 l 1
 380 519 l 1
 380 460 l 1
 149 131 l 1
 105 71 l 1
 137 74 167 76 196 76 c 2
 393 76 l 1
 393 0 l 1
 16 0 l 1
EndSplineSet
EndChar
StartChar: braceleft
Encoding: 123 123 92
Width: 264
VWidth: 2048
Flags: W
HStem: -210 76<229 254> 219 80<22 34.902> 651 77<229 254>
VStem: 105 68<-36.9019 79 430.854 527>
Fore
22 299 m 1
 41 299 56 305 69 316 c 128
 82 327 92 344 97 365 c 128
 102 386 105 427 105 488 c 0
 106 547 107 586 109 606 c 0
 112 638 121 664 133 685 c 0
 142 700 155 711 170 718 c 128
 185 725 206 728 232 728 c 2
 254 728 l 1
 254 651 l 1
 242 651 l 2
 214 651 196 645 187 634 c 128
 177 622 173 594 173 551 c 0
 173 461 171 404 167 380 c 0
 162 348 153 323 142 305 c 128
 130 288 112 272 89 259 c 1
 118 244 139 222 152 191 c 128
 166 161 173 110 173 39 c 0
 173 -33 174 -75 176 -87 c 0
 180 -104 186 -116 194 -123 c 128
 203 -130 219 -134 242 -134 c 2
 254 -134 l 1
 254 -210 l 1
 232 -210 l 2
 204 -210 183 -207 169 -200 c 128
 155 -193 144 -183 135 -169 c 0
 123 -151 115 -130 111 -105 c 128
 108 -81 106 -36 105 30 c 0
 105 90 102 131 97 153 c 128
 91 175 82 191 69 202 c 128
 57 213 41 219 22 219 c 1
 22 299 l 1
EndSplineSet
EndChar
StartChar: bar
Encoding: 124 124 93
Width: 203
VWidth: 2048
Flags: W
HStem: 728 21G<76 139>
VStem: 76 63<-210 728>
Fore
76 -210 m 1
 76 728 l 1
 139 728 l 1
 139 -210 l 1
 76 -210 l 1
EndSplineSet
EndChar
StartChar: braceright
Encoding: 125 125 94
Width: 264
VWidth: 2048
Flags: W
HStem: 728 21G<18 41>
VStem: 99 68<-51 47 445 559>
Fore
250 299 m 1
 250 219 l 1
 231 219 216 213 203 202 c 128
 190 191 181 174 176 153 c 128
 170 131 167 90 167 30 c 0
 167 -29 166 -68 164 -87 c 0
 160 -119 152 -145 139 -167 c 0
 130 -182 118 -193 103 -200 c 128
 87 -207 67 -210 41 -210 c 2
 18 -210 l 1
 18 -134 l 1
 31 -134 l 2
 58 -134 76 -128 85 -116 c 128
 94 -104 99 -76 99 -33 c 0
 99 57 101 114 105 139 c 0
 111 171 120 197 133 215 c 128
 146 234 163 248 183 259 c 1
 153 277 131 300 118 330 c 128
 105 359 99 409 99 479 c 0
 99 550 98 593 96 605 c 0
 93 622 87 634 78 641 c 128
 69 648 54 651 31 651 c 2
 18 651 l 1
 18 728 l 1
 41 728 l 2
 69 728 90 725 104 718 c 128
 118 711 129 700 138 687 c 0
 150 669 158 647 161 623 c 128
 165 599 167 554 167 488 c 0
 167 428 170 387 176 365 c 128
 181 343 190 327 203 316 c 128
 216 305 231 299 250 299 c 1
EndSplineSet
EndChar
StartChar: asciitilde
Encoding: 126 126 95
Width: 470
VWidth: 2048
Flags: W
Fore
35 272 m 1
 35 372 l 1
 63 411 101 431 146 431 c 0
 161 431 178 428 196 422 c 128
 213 417 239 405 272 388 c 0
 302 373 325 365 341 365 c 0
 357 365 373 370 388 379 c 0
 409 392 428 410 445 432 c 1
 445 329 l 1
 412 292 375 273 334 273 c 0
 318 273 303 275 289 279 c 128
 275 284 253 294 224 310 c 0
 189 329 161 338 140 338 c 0
 123 338 108 334 92 325 c 128
 77 316 58 299 35 272 c 1
EndSplineSet
EndChar
StartChar: exclamdown
Encoding: 161 161 96
Width: 263
VWidth: 2048
Flags: W
HStem: 519 21G<95 178>
VStem: 92 89<-197 -39>
Fore
178 519 m 1
 178 418 l 1
 95 418 l 1
 95 519 l 1
 178 519 l 1
159 340 m 1
 181 -39 l 1
 181 -197 l 1
 92 -197 l 1
 92 -39 l 1
 112 340 l 1
 159 340 l 1
EndSplineSet
EndChar
StartChar: cent
Encoding: 162 162 97
Width: 447
VWidth: 2048
Flags: W
HStem: -14 72<230 237> 460 70<230 251>
VStem: 42 73<231 281>
Fore
297 437 m 1
 208 62 l 1
 217 60 225 58 232 58 c 0
 259 58 283 70 303 93 c 128
 324 115 337 148 341 190 c 1
 413 180 l 1
 404 118 383 71 349 37 c 128
 316 3 277 -14 233 -14 c 0
 220 -14 207 -11 192 -7 c 1
 145 -200 l 1
 100 -184 l 1
 146 10 l 1
 115 28 90 58 71 100 c 128
 51 142 42 195 42 259 c 0
 42 319 50 369 66 409 c 128
 82 448 105 479 135 499 c 128
 165 520 197 530 232 530 c 0
 242 530 254 529 270 527 c 1
 315 716 l 1
 359 700 l 1
 314 511 l 1
 364 486 394 438 405 366 c 1
 335 353 l 1
 328 390 315 418 297 437 c 1
254 459 m 1
 246 460 239 460 234 460 c 0
 201 460 172 444 149 413 c 128
 127 381 115 331 115 263 c 0
 115 175 132 116 165 86 c 1
 254 459 l 1
EndSplineSet
EndChar
StartChar: sterling
Encoding: 163 163 98
Width: 447
VWidth: 2048
Flags: W
HStem: -13 85<329 345> 32 72<153 178> 323 72<17 95 158 284> 656 72<233 252>
VStem: 58 77<513 547> 102 76<260 283>
Fore
158 395 m 1x78
 284 395 l 1
 284 323 l 1
 170 323 l 1
 175 308 178 294 178 281 c 0
 178 252 172 221 161 190 c 128
 150 158 132 126 106 93 c 1
 128 100 147 104 164 104 c 0x74
 186 104 211 100 239 92 c 0
 284 78 315 72 332 72 c 0
 352 72 377 81 409 99 c 1
 432 19 l 1
 392 -2 360 -13 336 -13 c 0xb4
 325 -13 313 -11 302 -9 c 0
 294 -7 277 -1 250 9 c 0
 222 20 203 26 194 28 c 0
 182 31 171 32 160 32 c 0
 117 32 76 17 38 -14 c 1
 10 71 l 1
 38 89 60 115 77 148 c 128
 93 180 102 219 102 262 c 0x74
 102 282 99 302 95 323 c 1
 17 323 l 1
 17 395 l 1
 78 395 l 1
 64 453 58 496 58 524 c 0
 58 586 75 636 110 673 c 128
 144 710 188 728 239 728 c 0
 286 728 326 712 358 681 c 128
 390 649 410 603 417 543 c 1
 345 530 l 1
 341 570 329 601 308 623 c 128
 288 645 265 656 238 656 c 0
 210 656 185 645 165 622 c 128
 145 600 135 571 135 536 c 0
 135 500 142 453 158 395 c 1x78
EndSplineSet
EndChar
StartChar: currency
Encoding: 164 164 99
Width: 447
VWidth: 2048
Flags: W
HStem: 147 81<225 237> 481 80<225 237>
VStem: 56 65<354 372> 329 66<354 372>
Fore
84 469 m 1
 28 536 l 1
 74 594 l 1
 130 526 l 1
 144 538 159 546 175 552 c 128
 190 558 207 561 225 561 c 0
 243 561 260 558 276 552 c 128
 291 546 306 538 320 526 c 1
 375 594 l 1
 422 536 l 1
 366 469 l 1
 385 433 395 395 395 354 c 0
 395 314 385 275 366 239 c 1
 422 173 l 1
 375 115 l 1
 320 183 l 1
 306 171 291 163 276 156 c 128
 260 150 243 147 225 147 c 0
 207 147 190 150 175 156 c 128
 159 163 144 171 130 183 c 1
 74 115 l 1
 28 173 l 1
 84 239 l 1
 65 275 56 314 56 354 c 0
 56 395 65 433 84 469 c 1
121 354 m 0
 121 318 131 288 152 264 c 128
 173 240 197 228 225 228 c 0
 252 228 277 240 297 264 c 128
 318 288 329 318 329 354 c 0
 329 391 318 421 297 445 c 128
 277 469 252 481 225 481 c 0
 197 481 173 469 152 445 c 128
 131 421 121 391 121 354 c 0
EndSplineSet
EndChar
StartChar: yen
Encoding: 165 165 100
Width: 447
VWidth: 2048
Flags: W
HStem: -20 20G<190 262> 159 68<23 190 262 427> 296 73<23 190 290 427> 716 21G<-2 78 367 452>
VStem: 190 72<0 159 227 296>
Fore
190 0 m 1
 190 159 l 1
 23 159 l 1
 23 227 l 1
 190 227 l 1
 190 296 l 1
 23 296 l 1
 23 369 l 1
 160 369 l 1
 -2 716 l 1
 78 716 l 1
 194 464 l 2
 207 435 217 410 224 389 c 1
 230 406 241 432 257 468 c 1
 367 716 l 1
 452 716 l 1
 290 369 l 1
 427 369 l 1
 427 296 l 1
 262 296 l 1
 262 227 l 1
 427 227 l 1
 427 159 l 1
 262 159 l 1
 262 0 l 1
 190 0 l 1
EndSplineSet
EndChar
StartChar: brokenbar
Encoding: 166 166 101
Width: 203
VWidth: 2048
Flags: W
HStem: 728 21G<76 139>
VStem: 76 63<-210 176 342 728>
Fore
139 728 m 1
 139 342 l 1
 76 342 l 1
 76 728 l 1
 139 728 l 1
139 176 m 1
 139 -210 l 1
 76 -210 l 1
 76 176 l 1
 139 176 l 1
EndSplineSet
EndChar
StartChar: section
Encoding: 167 167 102
Width: 447
VWidth: 2048
Flags: W
HStem: -210 74<217 240> 656 72<217 233>
VStem: 31 66<312 334> 70 70<572 579> 317 73<-65.3363 -48> 349 68<205 227>
Fore
56 -34 m 1xc8
 128 -21 l 1
 136 -64 148 -94 165 -111 c 128
 182 -128 203 -136 230 -136 c 0
 256 -136 277 -128 293 -112 c 128
 309 -96 317 -75 317 -51 c 0
 317 -42 316 -33 313 -24 c 128
 310 -15 305 -7 298 1 c 0
 279 25 235 63 167 114 c 0
 117 152 84 181 69 202 c 0
 44 237 31 275 31 314 c 0xe8
 31 347 39 376 56 401 c 128
 72 426 94 443 121 453 c 1
 104 473 91 493 83 513 c 128
 74 533 70 554 70 574 c 0
 70 618 84 654 112 684 c 128
 140 713 175 728 219 728 c 0
 265 728 302 714 331 686 c 128
 360 658 377 615 383 559 c 1
 309 549 l 1
 303 590 293 618 278 633 c 128
 264 648 245 656 222 656 c 0
 199 656 180 648 164 633 c 128
 148 617 140 599 140 577 c 0
 140 568 142 559 146 550 c 128
 149 540 155 531 162 521 c 0
 176 503 215 470 277 424 c 1
 331 383 366 353 382 332 c 0
 406 301 417 266 417 227 c 0xd4
 417 191 409 161 391 136 c 0
 379 119 357 103 326 87 c 1
 348 67 364 46 374 23 c 128
 385 0 390 -24 390 -50 c 0
 390 -97 375 -135 345 -165 c 128
 315 -195 276 -210 229 -210 c 0
 181 -210 142 -195 112 -165 c 128
 81 -135 62 -91 56 -34 c 1xc8
290 119 m 1
 309 131 324 145 334 162 c 128
 344 178 349 194 349 210 c 0xe4
 349 229 342 249 328 269 c 128
 315 289 285 317 238 352 c 0
 201 379 174 401 156 419 c 1
 134 403 119 388 110 373 c 128
 101 358 97 342 97 324 c 0
 97 304 103 284 115 265 c 128
 128 247 155 222 198 191 c 0
 235 165 265 141 290 119 c 1
EndSplineSet
EndChar
StartChar: dieresis
Encoding: 168 168 103
Width: 263
VWidth: 2048
Flags: W
HStem: 620 100<24 100 174 249>
VStem: 24 76<620 720> 174 75<620 720>
Fore
24 620 m 1
 24 720 l 1
 100 720 l 1
 100 620 l 1
 24 620 l 1
174 620 m 1
 174 720 l 1
 249 720 l 1
 249 620 l 1
 174 620 l 1
EndSplineSet
EndChar
StartChar: copyright
Encoding: 169 169 104
Width: 595
VWidth: 2048
Flags: W
HStem: -9 61<304 323> 148 58<289 311> 512 54<299 311> 667 61<304 323>
VStem: 2 50<359 376> 146 55<342 376> 556 50<359 376>
Fore
304 728 m 0
 390 728 462 691 520 618 c 128
 577 544 606 458 606 359 c 0
 606 291 592 228 563 170 c 128
 535 112 497 68 451 37 c 128
 405 7 356 -9 304 -9 c 0
 219 -9 147 28 89 101 c 128
 31 175 2 261 2 359 c 0
 2 428 16 492 45 549 c 128
 74 607 111 651 157 682 c 128
 204 713 253 728 304 728 c 0
304 667 m 0
 232 667 171 635 122 571 c 0
 75 512 52 441 52 359 c 0
 52 271 79 197 131 136 c 0
 180 80 238 52 304 52 c 0
 376 52 437 84 487 148 c 0
 533 207 556 277 556 359 c 0
 556 448 530 522 477 583 c 0
 428 639 371 667 304 667 c 0
401 300 m 1
 450 282 l 1
 442 240 425 207 398 184 c 128
 372 160 341 148 305 148 c 0
 260 148 222 167 192 203 c 128
 162 239 146 291 146 358 c 0
 146 426 161 478 191 513 c 128
 221 549 260 566 309 566 c 0
 342 566 371 556 395 536 c 128
 419 516 436 488 444 451 c 1
 396 437 l 1
 388 462 376 480 361 493 c 128
 345 505 327 512 307 512 c 0
 276 512 251 499 231 472 c 128
 211 446 201 407 201 355 c 0
 201 306 210 268 229 243 c 128
 249 218 273 206 301 206 c 0
 325 206 346 214 364 230 c 128
 383 247 395 270 401 300 c 1
EndSplineSet
EndChar
StartChar: ordfeminine
Encoding: 170 170 105
Width: 294
VWidth: 2048
Flags: W
HStem: 364 59<118 133> 671 57<138 166>
VStem: 21 59<471 477> 215 58<503 610>
Fore
221 417 m 1
 189 382 154 364 119 364 c 0
 90 364 67 374 48 393 c 128
 30 412 21 438 21 471 c 0
 21 498 27 520 40 536 c 128
 52 552 70 564 93 570 c 1
 177 586 l 1
 197 591 210 594 216 596 c 1
 215 624 212 642 205 650 c 0
 194 664 177 671 153 671 c 0
 114 671 91 651 86 610 c 1
 31 626 l 1
 35 657 47 682 68 700 c 128
 90 719 118 728 154 728 c 0
 196 728 226 719 245 700 c 1
 264 681 273 651 273 610 c 2
 273 493 l 1
 273 464 l 1
 273 420 278 390 289 373 c 1
 230 373 l 1
 225 386 222 401 221 417 c 1
215 539 m 1
 201 535 175 529 138 521 c 0
 115 517 100 512 93 505 c 0
 84 496 80 484 80 471 c 0
 80 457 85 445 94 436 c 128
 104 427 116 423 131 423 c 0
 150 423 167 429 181 440 c 128
 196 452 206 468 211 487 c 0
 214 494 215 512 215 539 c 1
EndSplineSet
EndChar
StartChar: guillemotleft
Encoding: 171 171 106
Width: 447
VWidth: 2048
Flags: W
Fore
135 258 m 1
 239 35 l 1
 180 35 l 1
 52 258 l 1
 180 480 l 1
 239 480 l 1
 135 258 l 1
290 258 m 1
 395 35 l 1
 334 35 l 1
 209 258 l 1
 334 480 l 1
 395 480 l 1
 290 258 l 1
EndSplineSet
EndChar
StartChar: logicalnot
Encoding: 172 172 107
Width: 470
VWidth: 2048
Flags: W
HStem: 421 82<45 364>
VStem: 364 69<207 503>
Fore
433 207 m 1
 364 207 l 1
 364 421 l 1
 45 421 l 1
 45 503 l 1
 433 503 l 1
 433 207 l 1
EndSplineSet
EndChar
StartChar: registered
Encoding: 174 174 108
Width: 595
VWidth: 2048
Flags: W
HStem: -9 61<304 323> 499 53<171 306> 667 61<304 323>
VStem: 2 50<359 381> 171 53<156 324 156 499> 367 55<437 447> 556 50<359 381>
Fore
304 728 m 0
 390 728 462 691 520 618 c 128
 577 544 606 458 606 359 c 0
 606 291 592 228 563 170 c 128
 535 112 497 68 451 37 c 128
 405 7 356 -9 304 -9 c 0
 219 -9 147 28 89 101 c 128
 31 175 2 261 2 359 c 0
 2 428 16 492 45 549 c 128
 74 607 111 651 157 682 c 128
 204 713 253 728 304 728 c 0
304 667 m 0
 232 667 171 635 122 571 c 0
 75 512 52 441 52 359 c 0
 52 271 79 197 131 136 c 0
 180 80 238 52 304 52 c 0
 376 52 437 84 487 148 c 0
 533 207 556 277 556 359 c 0
 556 448 530 522 477 583 c 0
 428 639 371 667 304 667 c 0
171 156 m 1
 171 552 l 1
 284 552 l 2
 322 552 349 549 366 542 c 128
 382 534 396 522 406 504 c 128
 417 487 422 467 422 445 c 0
 422 414 414 389 396 368 c 128
 379 347 357 336 330 333 c 1
 342 327 351 319 358 311 c 0
 372 294 388 268 405 233 c 2
 444 156 l 1
 381 156 l 1
 352 218 l 2
 329 266 312 297 298 310 c 0
 288 319 274 324 255 324 c 2
 224 324 l 1
 224 156 l 1
 171 156 l 1
224 379 m 1
 288 379 l 2
 317 379 337 384 349 394 c 128
 361 405 367 420 367 439 c 0
 367 452 364 463 358 473 c 128
 352 482 344 489 334 493 c 128
 325 497 308 499 284 499 c 2
 224 499 l 1
 224 379 l 1
EndSplineSet
EndChar
StartChar: overscore
Encoding: 175 175 109
Width: 500
VWidth: 2048
Flags: W
HStem: 791 50<-6 506>
Fore
-6 841 m 1
 506 841 l 1
 506 791 l 1
 -6 791 l 1
 -6 841 l 1
EndSplineSet
EndChar
StartChar: degree
Encoding: 176 176 110
Width: 390
VWidth: 2048
Flags: W
HStem: 457 53<198 207> 675 53<198 207>
VStem: 62 54<593 602> 280 53<593 602>
Fore
62 593 m 0
 62 630 76 662 102 688 c 128
 129 715 161 728 198 728 c 0
 236 728 268 715 294 688 c 128
 320 662 333 630 333 593 c 0
 333 555 320 523 294 497 c 128
 267 470 235 457 198 457 c 0
 161 457 129 470 102 497 c 128
 76 523 62 555 62 593 c 0
116 593 m 0
 116 570 124 551 140 534 c 128
 156 518 175 510 198 510 c 0
 221 510 240 518 256 534 c 128
 272 551 280 570 280 593 c 0
 280 616 272 635 256 651 c 128
 240 667 221 675 198 675 c 0
 175 675 156 667 140 651 c 128
 124 635 116 616 116 593 c 0
EndSplineSet
EndChar
StartChar: plusminus
Encoding: 177 177 111
Width: 539
VWidth: 2048
Flags: W
HStem: 0 82<38 511> 324 81<38 233 316 511>
VStem: 233 83<127 324 405 600>
Fore
233 127 m 1
 233 324 l 1
 38 324 l 1
 38 405 l 1
 233 405 l 1
 233 600 l 1
 316 600 l 1
 316 405 l 1
 511 405 l 1
 511 324 l 1
 316 324 l 1
 316 127 l 1
 233 127 l 1
511 0 m 1
 38 0 l 1
 38 82 l 1
 511 82 l 1
 511 0 l 1
EndSplineSet
EndChar
StartChar: twosuperior
Encoding: 178 178 112
Width: 263
VWidth: 2048
Flags: W
HStem: 358 59<104 259> 667 58<125.397 152>
VStem: 195 62<609 625>
Fore
10 358 m 1
 14 401 48 451 113 508 c 0
 152 543 176 566 183 577 c 128
 191 589 195 600 195 613 c 0
 195 630 190 643 180 653 c 128
 170 662 157 667 140 667 c 0
 122 667 109 663 101 656 c 128
 92 648 84 633 79 611 c 1
 18 619 l 1
 26 657 40 684 60 700 c 128
 79 716 106 725 140 725 c 0
 179 725 208 716 228 698 c 128
 247 679 257 655 257 625 c 0
 257 597 249 571 233 547 c 0
 221 529 194 501 152 464 c 0
 130 444 114 429 104 417 c 1
 259 417 l 1
 259 358 l 1
 10 358 l 1
EndSplineSet
EndChar
StartChar: threesuperior
Encoding: 179 179 113
Width: 263
VWidth: 2048
Flags: W
HStem: 349 57<120 142> 525 52<119 134> 670 55<120 141>
VStem: 182 62<619 636> 195 63<459 478>
Fore
13 454 m 1xe8
 71 461 l 1
 77 441 85 427 95 418 c 128
 105 410 118 406 133 406 c 0
 151 406 166 412 177 425 c 128
 189 437 195 452 195 471 c 0xe8
 195 488 190 502 180 511 c 128
 170 520 154 525 132 525 c 1
 119 524 l 1
 110 523 l 1
 119 577 l 1
 139 577 154 581 165 590 c 128
 176 599 182 612 182 627 c 0
 182 640 177 650 169 658 c 128
 160 666 148 670 134 670 c 0
 119 670 108 667 99 660 c 128
 90 653 83 640 77 621 c 1
 20 632 l 1
 31 667 45 692 62 705 c 128
 79 718 103 725 135 725 c 0
 171 725 198 716 216 700 c 128
 235 684 244 661 244 634 c 0xf0
 244 615 239 598 229 584 c 128
 220 571 206 561 189 555 c 1
 235 541 258 510 258 462 c 0
 258 430 247 403 225 381 c 128
 203 360 174 349 138 349 c 0
 66 349 24 384 13 454 c 1xe8
EndSplineSet
EndChar
StartChar: acute
Encoding: 180 180 114
Width: 263
VWidth: 2048
Flags: W
HStem: 720 21G<142 236>
Fore
89 583 m 1
 142 720 l 1
 236 720 l 1
 148 583 l 1
 89 583 l 1
EndSplineSet
EndChar
StartChar: mu1
Encoding: 181 181 115
Width: 567
VWidth: 2048
Flags: W
HStem: -219 20G<78 165> -12 79<269 291> 519 21G<78 165 411 497>
VStem: 78 87<-199 52 -199 519> 418 79<0 519>
Fore
497 519 m 1
 497 0 l 1
 418 0 l 1
 418 62 l 1
 402 35 385 18 368 8 c 0
 345 -6 319 -12 289 -12 c 0
 262 -12 238 -7 217 4 c 0
 201 12 184 28 165 52 c 1
 165 -199 l 1
 78 -199 l 1
 78 519 l 1
 165 519 l 1
 165 299 l 2
 165 219 169 167 178 144 c 128
 186 120 200 102 219 88 c 128
 238 74 260 67 285 67 c 0
 311 67 334 75 354 89 c 128
 375 103 389 122 398 144 c 128
 406 167 411 218 411 297 c 2
 411 519 l 1
 497 519 l 1
EndSplineSet
EndChar
StartChar: paragraph
Encoding: 182 182 116
Width: 430
VWidth: 2048
Flags: W
HStem: -219 20G<165 230 319 388> 631 85<192 319 192 445>
VStem: 165 65<-199 631> 319 69<-199 631>
Fore
165 -199 m 1
 165 312 l 1
 116 314 77 333 47 369 c 128
 17 404 2 451 2 510 c 0
 2 553 10 590 26 622 c 128
 42 654 63 677 91 693 c 128
 118 708 152 716 192 716 c 2
 445 716 l 1
 445 631 l 1
 388 631 l 1
 388 -199 l 1
 319 -199 l 1
 319 631 l 1
 230 631 l 1
 230 -199 l 1
 165 -199 l 1
EndSplineSet
EndChar
StartChar: middot
Encoding: 183 183 117
Width: 263
VWidth: 2048
Flags: W
VStem: 199 82<311 411>
Fore
199 311 m 1
 199 411 l 1
 281 411 l 1
 281 311 l 1
 199 311 l 1
EndSplineSet
EndChar
StartChar: cedilla
Encoding: 184 184 118
Width: 263
VWidth: 2048
Flags: W
HStem: -206 61<84 105>
VStem: 149 67<-116 -106>
Fore
86 -75 m 1
 107 11 l 1
 161 11 l 1
 147 -41 l 1
 170 -44 187 -53 198 -66 c 128
 210 -79 216 -95 216 -114 c 0
 216 -140 206 -161 186 -179 c 128
 165 -197 138 -206 103 -206 c 0
 79 -206 60 -204 43 -200 c 1
 47 -143 l 1
 65 -144 78 -145 87 -145 c 0
 109 -145 125 -141 135 -134 c 128
 144 -127 149 -119 149 -108 c 0
 149 -98 145 -90 136 -84 c 128
 127 -79 111 -76 86 -75 c 1
EndSplineSet
EndChar
StartChar: onesuperior
Encoding: 185 185 119
Width: 263
VWidth: 2048
Flags: W
HStem: 725 21G<146 190>
VStem: 132 58<358 725>
Fore
132 358 m 1
 132 628 l 1
 104 602 75 584 42 573 c 1
 42 633 l 1
 59 640 77 652 97 669 c 128
 118 687 134 705 146 725 c 1
 190 725 l 1
 190 358 l 1
 132 358 l 1
EndSplineSet
EndChar
StartChar: ordmasculine
Encoding: 186 186 120
Width: 289
VWidth: 2048
Flags: W
HStem: 361 65<145 152> 663 65<149 153>
VStem: 18 60<520 554> 222 59<520 570>
Fore
149 728 m 0
 187 728 217 713 240 684 c 0
 267 650 281 603 281 544 c 0
 281 486 267 440 240 405 c 0
 217 376 187 361 149 361 c 0
 112 361 81 377 56 408 c 128
 31 439 18 484 18 542 c 0
 18 602 32 650 59 684 c 0
 81 713 112 728 149 728 c 0
149 663 m 0
 128 663 111 654 97 635 c 128
 84 617 78 586 78 544 c 0
 78 503 84 473 98 454 c 128
 111 435 129 426 150 426 c 0
 171 426 188 435 201 454 c 128
 215 473 222 503 222 545 c 0
 222 586 215 616 201 635 c 128
 188 654 170 663 149 663 c 0
EndSplineSet
EndChar
StartChar: guillemotright
Encoding: 187 187 121
Width: 447
VWidth: 2048
Flags: W
Fore
315 258 m 1
 211 480 l 1
 270 480 l 1
 397 258 l 1
 270 35 l 1
 211 35 l 1
 315 258 l 1
160 258 m 1
 55 480 l 1
 115 480 l 1
 241 258 l 1
 115 35 l 1
 55 35 l 1
 160 258 l 1
EndSplineSet
EndChar
StartChar: questiondown
Encoding: 191 191 125
Width: 500
VWidth: 2048
Flags: W
HStem: -209 72<252 268> 519 21G<213 295>
VStem: 65 74<-18 7> 213 82<418 519> 221 70<315 342>
Fore
295 519 m 1xf0
 295 418 l 1
 213 418 l 1
 213 519 l 1
 295 519 l 1xf0
291 342 m 1xe8
 291 317 l 1
 291 270 283 231 268 199 c 0
 257 176 234 145 198 107 c 0
 173 81 157 60 150 44 c 128
 142 28 139 11 139 -8 c 0
 139 -44 150 -75 173 -100 c 128
 196 -125 222 -137 252 -137 c 0
 282 -137 307 -126 328 -103 c 128
 349 -79 363 -43 370 7 c 1
 443 -3 l 1
 437 -72 416 -123 382 -158 c 128
 348 -192 305 -209 252 -209 c 0
 199 -209 154 -191 119 -155 c 128
 83 -118 65 -72 65 -15 c 0
 65 17 71 46 83 72 c 128
 94 98 118 130 153 168 c 0
 183 200 201 226 209 245 c 128
 216 264 221 296 221 342 c 1
 291 342 l 1xe8
EndSplineSet
EndChar
StartChar: AE
Encoding: 198 198 132
Width: 810
VWidth: 2048
Flags: W
HStem: 0 84<469 775> 207 84<198 392> 327 84<469 744> 631 85<283 392 283 765>
VStem: 392 77<0 327 291 631>
Fore
0 0 m 1
 283 716 l 1
 765 716 l 1
 765 631 l 1
 469 631 l 1
 469 411 l 1
 744 411 l 1
 744 327 l 1
 469 327 l 1
 469 84 l 1
 775 84 l 1
 775 0 l 1
 392 0 l 1
 392 207 l 1
 165 207 l 1
 84 0 l 1
 0 0 l 1
198 291 m 1
 392 291 l 1
 392 631 l 1
 333 631 l 1
 198 291 l 1
EndSplineSet
EndChar
StartChar: Eth
Encoding: 208 208 142
Width: 582
VWidth: 2048
Flags: W
HStem: 0 84<139 286> 326 64<-3 62 139 301> 631 85<62 286>
VStem: 62 77<0 326 390 631> 467 80<326 401>
Fore
62 0 m 1
 62 326 l 1
 -3 326 l 1
 -3 390 l 1
 62 390 l 1
 62 716 l 1
 264 716 l 2
 315 716 353 711 378 703 c 0
 413 691 442 670 467 640 c 128
 492 610 512 572 526 526 c 128
 540 480 547 425 547 361 c 0
 547 293 538 233 521 181 c 128
 503 130 482 91 456 65 c 128
 431 39 400 21 364 9 c 0
 344 3 313 0 273 0 c 2
 62 0 l 1
139 84 m 1
 264 84 l 2
 315 84 353 93 379 109 c 128
 405 126 425 152 438 188 c 0
 457 237 467 295 467 362 c 0
 467 436 457 493 437 535 c 128
 417 576 392 604 361 618 c 0
 340 627 307 631 262 631 c 2
 139 631 l 1
 139 390 l 1
 301 390 l 1
 301 326 l 1
 139 326 l 1
 139 84 l 1
EndSplineSet
EndChar
StartChar: multiply
Encoding: 215 215 149
Width: 470
VWidth: 2048
Flags: W
Fore
63 200 m 1
 190 354 l 1
 64 507 l 1
 113 566 l 1
 239 413 l 1
 364 566 l 1
 412 507 l 1
 287 354 l 1
 413 201 l 1
 364 141 l 1
 238 294 l 1
 112 141 l 1
 63 200 l 1
EndSplineSet
EndChar
StartChar: Oslash
Encoding: 216 216 150
Width: 629
VWidth: 2048
Flags: W
HStem: -12 81<320 340> 647 81<322 340>
VStem: 40 80<322 388> 521 81<322 388>
Fore
502 650 m 1
 569 742 l 1
 609 701 l 1
 539 604 l 1
 563 561 579 521 588 485 c 128
 597 450 602 407 602 358 c 0
 602 280 589 213 563 157 c 128
 538 102 504 59 461 31 c 128
 418 2 371 -12 320 -12 c 0
 287 -12 256 -7 229 4 c 128
 202 15 173 35 142 63 c 1
 75 -29 l 1
 35 12 l 1
 105 108 l 1
 79 158 62 200 53 234 c 128
 44 268 40 308 40 355 c 0
 40 434 53 502 78 559 c 128
 104 615 138 658 180 686 c 128
 222 714 269 728 322 728 c 0
 356 728 386 722 414 711 c 128
 441 700 471 680 502 650 c 1
454 584 m 1
 429 609 407 626 388 634 c 128
 369 643 347 647 322 647 c 0
 264 647 216 623 177 574 c 128
 139 525 120 453 120 356 c 0
 120 320 123 290 127 264 c 128
 132 239 142 210 156 177 c 1
 454 584 l 1
487 534 m 1
 189 128 l 1
 211 106 232 91 252 82 c 128
 273 73 295 69 320 69 c 0
 377 69 425 93 463 143 c 128
 502 192 521 263 521 356 c 0
 521 423 510 482 487 534 c 1
EndSplineSet
EndChar
StartChar: Thorn
Encoding: 222 222 156
Width: 537
VWidth: 2048
Flags: W
HStem: -20 20G<63 141> 146 84<141 304> 486 84<141 320> 716 21G<63 141>
VStem: 63 78<0 146 0 486 0 716> 431 81<351 369>
Fore
63 0 m 1
 63 716 l 1
 141 716 l 1
 141 570 l 1
 285 570 l 2
 337 570 376 566 400 556 c 0
 434 544 461 521 481 487 c 128
 502 454 512 413 512 364 c 0
 512 300 495 248 462 207 c 128
 430 166 373 146 292 146 c 2
 141 146 l 1
 141 0 l 1
 63 0 l 1
141 230 m 1
 293 230 l 2
 341 230 376 241 398 262 c 128
 420 284 431 317 431 360 c 0
 431 389 426 413 415 433 c 128
 404 453 391 467 375 474 c 128
 360 482 332 486 292 486 c 2
 141 486 l 1
 141 230 l 1
EndSplineSet
EndChar
StartChar: germandbls
Encoding: 223 223 157
Width: 500
VWidth: 2048
Flags: W
HStem: -12 72<319 340> 656 72<221 246>
VStem: 62 72<0 517> 247 74<375 392> 312 70<578 591> 403 74<139 155>
Fore
62 0 m 1xec
 62 488 l 2
 62 550 69 597 81 628 c 128
 94 660 114 684 141 702 c 128
 168 719 199 728 234 728 c 0
 277 728 313 715 340 688 c 128
 368 661 382 628 382 589 c 0xec
 382 573 380 556 375 538 c 128
 371 521 362 499 350 472 c 0
 331 431 321 404 321 390 c 0
 321 378 325 366 332 354 c 0
 337 346 352 332 378 311 c 0
 419 278 446 251 458 229 c 128
 470 208 477 182 477 153 c 0
 477 105 462 66 434 34 c 128
 406 3 371 -12 331 -12 c 0
 299 -12 270 -2 244 19 c 128
 219 39 199 68 185 105 c 1
 247 141 l 1
 271 87 298 60 328 60 c 0
 348 60 365 68 380 85 c 128
 395 101 403 121 403 145 c 0
 403 161 400 175 394 186 c 128
 387 197 371 213 345 235 c 0
 304 270 277 297 265 315 c 128
 253 334 247 354 247 375 c 0xf4
 247 388 249 401 252 414 c 128
 256 426 264 446 277 473 c 0
 300 522 312 557 312 580 c 0
 312 601 304 619 289 634 c 128
 274 648 255 656 232 656 c 0
 200 656 176 644 159 621 c 128
 143 597 134 552 134 484 c 2
 134 0 l 1
 62 0 l 1xec
EndSplineSet
EndChar
StartChar: ae
Encoding: 230 230 164
Width: 720
VWidth: 2048
Flags: W
HStem: -12 70<168 189> 237 72<387 694> 458 72<201 235 490.418 512>
VStem: 26 76<131 149> 316 71<211 260>
Fore
693 159 m 1
 679 102 656 60 624 31 c 128
 591 3 552 -12 505 -12 c 0
 472 -12 443 -4 417 11 c 128
 392 27 368 51 347 85 c 1
 294 21 235 -12 170 -12 c 0
 127 -12 92 2 66 30 c 128
 39 57 26 93 26 136 c 0
 26 166 33 192 46 216 c 128
 59 240 77 258 100 271 c 128
 122 284 160 294 214 303 c 0
 254 309 288 317 315 327 c 1
 315 347 l 1
 315 389 308 418 294 434 c 128
 279 450 255 458 221 458 c 0
 186 458 160 451 143 437 c 128
 127 423 115 397 107 358 c 1
 38 368 l 1
 49 426 69 468 99 493 c 128
 129 518 170 530 223 530 c 0
 263 530 294 524 317 513 c 128
 340 501 357 484 369 460 c 1
 404 507 449 530 505 530 c 0
 541 530 573 521 601 501 c 128
 628 482 650 452 668 410 c 128
 686 368 694 320 694 266 c 1
 694 237 l 1
 387 237 l 1
 387 189 392 154 401 133 c 128
 410 112 425 94 445 81 c 128
 465 67 487 61 510 61 c 0
 536 61 559 70 578 89 c 128
 597 108 611 135 618 170 c 1
 693 159 l 1
387 309 m 1
 621 309 l 1
 617 361 604 399 583 422 c 128
 563 446 537 458 506 458 c 0
 473 458 445 445 423 419 c 128
 402 394 389 357 387 309 c 1
316 260 m 1
 295 249 252 237 188 225 c 0
 158 219 138 211 126 200 c 0
 110 185 102 164 102 140 c 0
 102 115 109 95 124 80 c 128
 139 65 159 58 185 58 c 0
 215 58 243 67 266 85 c 128
 289 104 304 128 311 157 c 0
 314 173 316 208 316 260 c 1
EndSplineSet
EndChar
StartChar: eth
Encoding: 240 240 174
Width: 447
VWidth: 2048
Flags: W
HStem: -12 72<209 239> 451 68<207 226> 716 21G<122 208>
VStem: 28 74<227 277> 347 74<227 277>
Fore
122 716 m 1
 208 716 l 1
 228 698 245 682 259 666 c 1
 344 716 l 1
 363 666 l 1
 293 625 l 1
 379 506 421 382 421 255 c 0
 421 170 403 105 365 58 c 128
 327 11 281 -12 225 -12 c 0
 187 -12 154 -2 124 18 c 128
 94 38 71 67 53 104 c 128
 36 142 28 191 28 252 c 0
 28 339 45 405 80 450 c 128
 115 496 158 519 208 519 c 0
 224 519 237 517 249 513 c 128
 261 509 276 501 293 490 c 1
 278 528 259 562 237 594 c 1
 126 532 l 1
 109 582 l 1
 205 635 l 1
 179 665 151 691 122 716 c 1
347 258 m 0
 347 321 335 369 311 402 c 128
 287 435 257 451 222 451 c 0
 187 451 159 435 136 402 c 128
 113 369 102 319 102 250 c 0
 102 186 113 138 137 107 c 128
 161 75 190 60 224 60 c 0
 258 60 287 76 311 110 c 128
 335 143 347 193 347 258 c 0
EndSplineSet
EndChar
StartChar: divide
Encoding: 247 247 181
Width: 539
VWidth: 2048
Flags: W
HStem: 156 100<224 324> 312 82<38 511> 450 100<224 324>
VStem: 224 100<156 256 450 550>
CounterMasks: 1 00
Fore
224 450 m 1
 224 550 l 1
 324 550 l 1
 324 450 l 1
 224 450 l 1
511 312 m 1
 38 312 l 1
 38 394 l 1
 511 394 l 1
 511 312 l 1
224 156 m 1
 224 256 l 1
 324 256 l 1
 324 156 l 1
 224 156 l 1
EndSplineSet
EndChar
StartChar: oslash
Encoding: 248 248 182
Width: 500
VWidth: 2048
Flags: W
HStem: -12 73<246 264> 458 72<246 264>
VStem: 55 74<232 282> 380 74<232 282>
Fore
372 488 m 1
 411 550 l 1
 450 516 l 1
 407 449 l 1
 424 420 436 393 442 369 c 0
 450 338 454 301 454 259 c 0
 454 169 435 101 397 56 c 128
 359 11 311 -12 251 -12 c 0
 210 -12 174 1 141 27 c 1
 99 -39 l 1
 62 -4 l 1
 105 65 l 1
 88 89 76 113 70 137 c 0
 60 173 55 212 55 252 c 0
 55 345 74 415 111 461 c 128
 149 507 196 530 253 530 c 0
 273 530 293 527 311 521 c 128
 329 514 349 503 372 488 c 1
331 423 m 1
 307 446 281 458 254 458 c 0
 220 458 190 441 166 408 c 128
 141 375 129 326 129 261 c 0
 129 211 136 170 150 137 c 1
 331 423 l 1
361 376 m 1
 182 91 l 1
 202 71 226 61 252 61 c 0
 288 61 319 77 343 110 c 128
 368 142 380 193 380 261 c 0
 380 285 379 304 376 320 c 128
 373 336 368 355 361 376 c 1
EndSplineSet
EndChar
StartChar: thorn
Encoding: 254 254 188
Width: 447
VWidth: 2048
Flags: W
HStem: -219 20G<53 125> -12 73<228 246> 461 69<228 246> 716 21G<53 125>
VStem: 53 65<-199 282> 53 72<-199 54 -199 716> 348 74<232 282>
Fore
53 -199 m 1xfa
 53 716 l 1
 125 716 l 1
 125 464 l 1
 145 490 163 507 181 516 c 128
 198 526 218 530 241 530 c 0
 275 530 305 520 332 500 c 128
 359 481 381 450 397 410 c 128
 414 369 422 321 422 264 c 0
 422 176 403 108 366 60 c 128
 330 12 286 -12 237 -12 c 0
 216 -12 197 -7 180 2 c 128
 163 11 144 28 125 54 c 1
 125 -199 l 1xf6
 53 -199 l 1xfa
118 256 m 0xfa
 118 189 129 140 151 108 c 128
 174 76 201 61 233 61 c 0
 264 61 290 77 313 110 c 128
 337 143 348 194 348 262 c 0
 348 330 337 380 314 413 c 128
 292 445 265 461 233 461 c 0
 204 461 177 444 153 409 c 128
 130 374 118 323 118 256 c 0xfa
EndSplineSet
EndChar
StartChar: dmacron
Encoding: 273 273 207
Width: 444
VWidth: 2048
Flags: W
HStem: -12 73<206 220> 458 72<203 220> 598 50<187 325 397 455> 716 21G<325 397>
VStem: 28 74<259 293> 325 72<459 598 648 716>
Fore
325 598 m 1
 187 598 l 1
 187 648 l 1
 325 648 l 1
 325 716 l 1
 397 716 l 1
 397 648 l 1
 455 648 l 1
 455 598 l 1
 397 598 l 1
 397 0 l 1
 330 0 l 1
 330 65 l 1
 317 40 300 21 280 8 c 128
 259 -5 237 -12 213 -12 c 0
 163 -12 120 12 83 59 c 128
 47 107 28 173 28 259 c 0
 28 318 36 368 53 409 c 128
 69 450 91 481 118 500 c 128
 145 520 175 530 208 530 c 0
 232 530 254 524 275 511 c 128
 295 499 312 481 325 459 c 1
 325 598 l 1
102 259 m 0
 102 192 114 142 137 109 c 128
 160 77 187 61 218 61 c 0
 249 61 275 76 298 107 c 128
 320 139 332 186 332 249 c 0
 332 322 320 375 298 408 c 128
 275 441 247 458 213 458 c 0
 183 458 157 442 135 410 c 128
 113 378 102 327 102 259 c 0
EndSplineSet
EndChar
StartChar: Hbar
Encoding: 294 294 228
Width: 582
VWidth: 2048
Flags: W
HStem: -20 20G<66 144 449 527> 338 84<144 449> 550 73<12 66 144 449 527 582> 716 21G<66 144 449 527>
VStem: 66 78<0 338 0 550 623 716> 449 78<0 550 623 716>
Fore
527 550 m 1
 527 0 l 1
 449 0 l 1
 449 338 l 1
 144 338 l 1
 144 0 l 1
 66 0 l 1
 66 550 l 1
 12 550 l 1
 12 623 l 1
 66 623 l 1
 66 716 l 1
 144 716 l 1
 144 623 l 1
 449 623 l 1
 449 716 l 1
 527 716 l 1
 527 623 l 1
 582 623 l 1
 582 550 l 1
 527 550 l 1
449 550 m 1
 144 550 l 1
 144 422 l 1
 449 422 l 1
 449 550 l 1
EndSplineSet
EndChar
StartChar: hbar
Encoding: 295 295 229
Width: 447
VWidth: 2048
Flags: W
HStem: -20 20G<53 125 327 399> 455 75<235 252> 580 72<-25 53 125 225> 716 21G<53 125>
VStem: 53 72<0 305 0 580 652 716> 327 72<0 353>
Fore
53 0 m 1
 53 580 l 1
 -25 580 l 1
 -25 652 l 1
 53 652 l 1
 53 716 l 1
 125 716 l 1
 125 652 l 1
 225 652 l 1
 225 580 l 1
 125 580 l 1
 125 459 l 1
 141 483 161 501 182 512 c 128
 203 524 227 530 252 530 c 0
 298 530 333 516 360 487 c 128
 386 458 399 405 399 329 c 2
 399 0 l 1
 327 0 l 1
 327 329 l 2
 327 374 319 406 303 425 c 128
 287 445 265 455 237 455 c 0
 206 455 179 442 157 417 c 128
 135 392 125 347 125 284 c 2
 125 0 l 1
 53 0 l 1
EndSplineSet
EndChar
StartChar: dotlessi
Encoding: 305 305 239
Width: 219
VWidth: 2048
Flags: W
HStem: -20 20G<81 153> 519 21G<81 153>
VStem: 81 72<0 519>
Fore
81 0 m 1
 81 519 l 1
 153 519 l 1
 153 0 l 1
 81 0 l 1
EndSplineSet
EndChar
StartChar: jcircumflex
Encoding: 309 309 243
Width: 173
VWidth: 2048
Flags: W
HStem: -210 77<6 18> 499 20G<52 124> 720 21G<51 128>
VStem: 52 72<-67 519>
Fore
-39 -201 m 1
 -25 -126 l 1
 -11 -131 0 -133 8 -133 c 0
 24 -133 35 -127 42 -115 c 128
 49 -103 52 -74 52 -26 c 2
 52 519 l 1
 124 519 l 1
 124 -28 l 2
 124 -99 115 -147 97 -172 c 128
 79 -198 52 -210 18 -210 c 0
 -2 -210 -21 -207 -39 -201 c 1
92 666 m 1
 47 583 l 1
 -35 583 l 1
 51 720 l 1
 128 720 l 1
 218 583 l 1
 137 583 l 1
 92 666 l 1
EndSplineSet
EndChar
StartChar: kgreenlandic
Encoding: 312 312 246
Width: 399
VWidth: 2048
Flags: W
HStem: -20 20G<53 125 317 409> 518 21G<53 125 297 393>
VStem: 53 72<0 214 0 518>
Fore
53 0 m 1
 53 518 l 1
 125 518 l 1
 125 315 l 1
 297 518 l 1
 393 518 l 1
 202 303 l 1
 409 0 l 1
 317 0 l 1
 151 244 l 1
 125 214 l 1
 125 0 l 1
 53 0 l 1
EndSplineSet
EndChar
StartChar: Lslash
Encoding: 321 321 255
Width: 447
VWidth: 2048
Flags: W
HStem: 0 84<134 426> 716 21G<57 134>
VStem: 57 77<0 357 358 716> 57 157<358 520>
Fore
57 276 m 1xe0
 -1 216 l 1
 -1 297 l 1
 57 358 l 1
 57 716 l 1
 134 716 l 1
 134 438 l 1xe0
 214 520 l 1
 214 438 l 1xd0
 134 357 l 1
 134 84 l 1
 426 84 l 1
 426 0 l 1
 57 0 l 1
 57 276 l 1xe0
EndSplineSet
EndChar
StartChar: lslash
Encoding: 322 322 256
Width: 173
VWidth: 2048
Flags: W
HStem: -20 20G<51 124> 716 21G<51 124>
VStem: 51 73<0 355 357 716>
Fore
51 280 m 1
 0 227 l 1
 0 304 l 1
 51 357 l 1
 51 716 l 1
 124 716 l 1
 124 432 l 1
 177 488 l 1
 177 411 l 1
 124 355 l 1
 124 0 l 1
 51 0 l 1
 51 280 l 1
EndSplineSet
EndChar
StartChar: Eng
Encoding: 330 330 264
Width: 582
VWidth: 2048
Flags: W
HStem: -20 20G<65 143> 632 84<256 290>
VStem: 65 78<0 583 0 716> 470 80<328 394>
Fore
65 0 m 1
 65 716 l 1
 143 716 l 1
 143 673 l 1
 172 701 214 716 267 716 c 0
 363 716 434 688 480 631 c 128
 527 575 550 486 550 363 c 0
 550 246 529 155 488 90 c 128
 446 25 389 -7 316 -7 c 0
 302 -7 276 -4 238 4 c 1
 238 85 l 1
 260 82 285 79 313 74 c 1
 369 79 409 103 434 147 c 128
 458 191 470 264 470 364 c 0
 470 465 453 535 420 573 c 128
 386 612 335 632 266 632 c 0
 216 632 175 616 143 583 c 1
 143 0 l 1
 65 0 l 1
EndSplineSet
EndChar
StartChar: eng
Encoding: 331 331 265
Width: 447
VWidth: 2048
Flags: W
HStem: -209 76<279 299> 0 21G<56 128> 454 76<238 256>
VStem: 56 65<0 518> 56 72<0 304> 330 72<-66 304>
Fore
240 -201 m 1xf4
 254 -126 l 1
 271 -131 283 -133 289 -133 c 0
 304 -133 314 -127 321 -115 c 128
 327 -104 330 -80 330 -44 c 1
 330 256 l 1
 330 324 327 368 322 389 c 128
 317 410 308 426 294 437 c 128
 281 448 263 454 240 454 c 0
 213 454 188 443 164 421 c 128
 140 399 128 353 128 283 c 2
 128 0 l 1xec
 56 0 l 1
 56 518 l 1
 121 518 l 1
 121 445 l 1
 153 501 198 530 256 530 c 0
 291 530 320 520 345 501 c 128
 370 482 385 459 392 432 c 128
 399 405 402 367 402 319 c 2
 402 -26 l 1
 403 -93 395 -141 378 -168 c 128
 362 -195 335 -209 299 -209 c 0
 274 -209 255 -206 240 -201 c 1xf4
EndSplineSet
EndChar
StartChar: OE
Encoding: 338 338 272
Width: 810
VWidth: 2048
Flags: W
HStem: -12 76<290 292> 0 84<521 794> 329 84<521 761> 631 85<449 782> 651 77<275 292>
VStem: 52 80<323 389> 449 72<0 329 619 631>
Fore
794 84 m 1x76
 794 0 l 1
 449 0 l 1x76
 449 104 l 1
 431 65 409 36 382 17 c 128
 356 -3 325 -12 290 -12 c 0
 221 -12 166 16 125 72 c 0
 76 139 52 235 52 359 c 0
 52 443 63 513 84 569 c 128
 106 626 134 667 168 691 c 128
 202 716 242 728 290 728 c 0xae
 325 728 356 719 382 701 c 128
 409 683 431 656 449 619 c 1
 449 716 l 1
 782 716 l 1
 782 631 l 1
 521 631 l 1
 521 413 l 1
 761 413 l 1
 761 329 l 1
 521 329 l 1
 521 84 l 1
 794 84 l 1x76
288 651 m 0xae
 245 651 209 628 178 582 c 128
 147 536 132 461 132 358 c 0
 132 255 147 180 178 134 c 128
 209 87 246 64 290 64 c 0
 332 64 368 87 398 134 c 128
 429 180 444 255 444 358 c 0
 444 461 429 535 398 582 c 128
 367 628 331 651 288 651 c 0xae
EndSplineSet
EndChar
StartChar: oe
Encoding: 339 339 273
Width: 764
VWidth: 2048
Flags: W
HStem: -12 73<225 243 545 563> 236 72<434 745> 458 72<225 243 545 563>
VStem: 34 74<227 277> 358 73<234 262>
Fore
393 85 m 1
 373 53 350 29 323 13 c 128
 296 -4 267 -12 234 -12 c 0
 176 -12 128 11 91 57 c 128
 53 102 34 168 34 254 c 0
 34 315 43 366 60 407 c 128
 77 449 101 479 131 500 c 128
 162 520 196 530 236 530 c 0
 271 530 302 521 330 503 c 128
 358 486 379 461 393 431 c 1
 411 463 433 488 460 505 c 128
 487 522 517 530 548 530 c 0
 606 530 653 506 690 458 c 128
 728 409 746 335 745 236 c 1
 431 236 l 1
 432 180 445 137 469 106 c 128
 494 76 523 61 558 61 c 0
 583 61 606 69 625 87 c 128
 645 105 659 132 667 169 c 1
 739 156 l 1
 727 101 705 59 673 31 c 128
 641 2 602 -12 556 -12 c 0
 521 -12 489 -3 461 14 c 128
 432 31 410 55 393 85 c 1
108 260 m 0
 108 197 118 150 140 117 c 0
 164 79 196 61 235 61 c 0
 267 61 296 78 321 112 c 128
 346 146 358 196 358 262 c 0
 358 326 346 375 321 408 c 128
 296 441 266 458 231 458 c 0
 194 458 164 440 141 403 c 128
 119 366 108 319 108 260 c 0
434 308 m 1
 669 308 l 1
 666 358 653 396 632 421 c 128
 610 446 584 458 553 458 c 0
 522 458 495 445 472 419 c 128
 449 393 437 356 434 308 c 1
EndSplineSet
EndChar
StartChar: Tbar
Encoding: 358 358 292
Width: 500
VWidth: 2048
Flags: W
HStem: -20 20G<214 292> 392 72<127 214 292 377> 631 85<21 214 21 486>
VStem: 214 78<0 392 464 631>
Fore
214 0 m 1
 214 392 l 1
 127 392 l 1
 127 464 l 1
 214 464 l 1
 214 631 l 1
 21 631 l 1
 21 716 l 1
 486 716 l 1
 486 631 l 1
 292 631 l 1
 292 464 l 1
 377 464 l 1
 377 392 l 1
 292 392 l 1
 292 0 l 1
 214 0 l 1
EndSplineSet
EndChar
StartChar: tbar
Encoding: 359 359 293
Width: 219
VWidth: 2048
Flags: W
HStem: -7 82<177 191> 294 73<-8 76 148 242> 450 69<23 76 148 221>
VStem: 76 72<120 294 367 450 519 700>
Fore
23 519 m 1
 76 519 l 1
 76 647 l 1
 148 700 l 1
 148 519 l 1
 221 519 l 1
 221 450 l 1
 148 450 l 1
 148 367 l 1
 242 367 l 1
 242 294 l 1
 148 294 l 1
 148 147 l 2
 148 119 150 101 154 93 c 0
 160 81 172 75 189 75 c 0
 197 75 208 76 221 79 c 1
 230 1 l 1
 211 -4 193 -7 177 -7 c 0
 152 -7 132 -2 116 8 c 128
 101 18 90 32 85 49 c 128
 79 66 76 100 76 152 c 2
 76 294 l 1
 -8 294 l 1
 -8 367 l 1
 76 367 l 1
 76 450 l 1
 23 450 l 1
 23 519 l 1
EndSplineSet
EndChar
StartChar: longs
Encoding: 383 383 317
Width: 173
VWidth: 2048
Flags: W
HStem: -20 20G<55 126> 647 81<172 190>
VStem: 55 71<0 576>
Fore
55 0 m 1
 55 574 l 2
 55 635 66 676 87 697 c 128
 109 718 138 728 174 728 c 0
 194 728 215 725 239 719 c 1
 229 643 l 1
 215 646 201 647 188 647 c 0
 165 647 150 642 140 630 c 128
 131 619 126 597 126 566 c 2
 126 0 l 1
 55 0 l 1
EndSplineSet
EndChar
StartChar: florin
Encoding: 402 402 318
Width: 447
VWidth: 2048
Flags: W
HStem: -210 77<90 107> 450 69<142 214 297 369> 647 82<346 360>
Fore
17 -198 m 1
 31 -122 l 1
 58 -129 78 -133 92 -133 c 0
 106 -133 117 -128 125 -119 c 128
 133 -110 139 -90 143 -59 c 1
 214 450 l 1
 134 450 l 1
 143 519 l 1
 224 519 l 1
 233 583 l 1
 240 627 248 658 257 676 c 128
 266 693 278 706 293 715 c 128
 308 724 326 729 347 729 c 0
 368 729 397 722 433 710 c 1
 419 635 l 1
 392 643 371 647 358 647 c 0
 343 647 331 642 324 633 c 128
 316 624 310 603 305 569 c 1
 297 519 l 1
 379 519 l 1
 369 450 l 1
 287 450 l 1
 211 -83 l 1
 204 -132 192 -165 176 -183 c 128
 159 -201 136 -210 107 -210 c 0
 82 -210 52 -206 17 -198 c 1
EndSplineSet
EndChar
StartChar: circumflex
Encoding: 710 710 329
Width: 263
VWidth: 2048
Flags: W
HStem: 720 21G<96 173>
Fore
137 666 m 1
 92 583 l 1
 10 583 l 1
 96 720 l 1
 173 720 l 1
 263 583 l 1
 182 583 l 1
 137 666 l 1
EndSplineSet
EndChar
StartChar: caron
Encoding: 711 711 330
Width: 263
VWidth: 2048
Flags: W
HStem: 720 21G<16 99 188 270>
Fore
144 637 m 1
 188 720 l 1
 270 720 l 1
 180 583 l 1
 103 583 l 1
 16 720 l 1
 99 720 l 1
 144 637 l 1
EndSplineSet
EndChar
StartChar: macron
Encoding: 713 713 331
Width: 263
VWidth: 2048
Flags: W
HStem: 599 72<12 262>
Fore
12 599 m 1
 12 671 l 1
 262 671 l 1
 262 599 l 1
 12 599 l 1
EndSplineSet
EndChar
StartChar: breve
Encoding: 728 728 332
Width: 263
VWidth: 2048
Flags: W
HStem: 715 21G<18 67 206 255>
Fore
206 715 m 1
 255 715 l 1
 251 673 238 641 217 620 c 128
 196 599 169 588 136 588 c 0
 104 588 77 599 56 620 c 128
 35 641 22 673 18 715 c 1
 67 715 l 1
 75 671 97 649 134 649 c 0
 155 649 171 654 183 665 c 128
 194 675 202 692 206 715 c 1
EndSplineSet
EndChar
StartChar: dotaccent
Encoding: 729 729 333
Width: 263
VWidth: 2048
Flags: W
VStem: 92 89<583 692>
Fore
92 583 m 1
 92 692 l 1
 181 692 l 1
 181 583 l 1
 92 583 l 1
EndSplineSet
EndChar
StartChar: ring
Encoding: 730 730 334
Width: 263
VWidth: 2048
Flags: W
HStem: 562 37<135 146> 705 36<135 146>
VStem: 65 31<653 659> 180 29<641 659>
Fore
65 653 m 0
 65 678 72 698 87 715 c 128
 101 732 118 741 137 741 c 0
 156 741 173 732 187 715 c 128
 202 698 209 677 209 651 c 0
 209 625 202 604 188 587 c 128
 173 570 156 562 137 562 c 0
 118 562 101 570 87 587 c 128
 72 604 65 626 65 653 c 0
96 653 m 0
 96 637 100 624 108 614 c 128
 117 604 127 599 138 599 c 0
 149 599 159 604 167 614 c 128
 176 624 180 637 180 652 c 0
 180 667 176 680 167 690 c 128
 159 700 149 705 138 705 c 0
 127 705 117 700 108 690 c 128
 100 680 96 667 96 653 c 0
EndSplineSet
EndChar
StartChar: ogonek
Encoding: 731 731 335
Width: 263
VWidth: 2048
Flags: W
HStem: -208 65<161 182>
VStem: 73 51<-99 -69>
Fore
90 12 m 1
 139 12 l 1
 129 -17 124 -44 124 -69 c 0
 124 -91 130 -109 141 -123 c 128
 152 -136 165 -143 182 -143 c 0
 202 -143 224 -135 249 -120 c 1
 249 -178 l 1
 217 -198 188 -208 161 -208 c 0
 135 -208 114 -198 98 -179 c 128
 81 -160 73 -133 73 -99 c 0
 73 -71 79 -34 90 12 c 1
EndSplineSet
EndChar
StartChar: tilde
Encoding: 732 732 336
Width: 263
VWidth: 2048
Flags: W
HStem: 687 20G<72.5 92.5> 708 21G<219 271>
VStem: 3 53<595 609.418>
Fore
3 595 m 1
 3 630 10 657 26 677 c 0
 42 697 61 707 84 707 c 0
 101 707 124 698 152 680 c 0
 167 670 180 666 189 666 c 0
 198 666 205 668 209 674 c 128
 214 680 217 691 219 708 c 1
 271 708 l 1
 270 671 262 643 247 624 c 128
 233 606 214 597 192 597 c 0
 176 597 154 606 126 624 c 0
 108 636 95 642 87 642 c 0
 78 642 71 638 65 630 c 128
 59 622 56 611 56 595 c 1
 3 595 l 1
EndSplineSet
EndChar
StartChar: hungarumlaut
Encoding: 733 733 337
Width: 263
VWidth: 2048
Flags: W
HStem: 720 21G<72 166 213 306>
Fore
23 583 m 1
 72 720 l 1
 166 720 l 1
 81 583 l 1
 23 583 l 1
162 583 m 1
 213 720 l 1
 306 720 l 1
 223 583 l 1
 162 583 l 1
EndSplineSet
EndChar
StartChar: uni0314
Encoding: 788 788 338
Width: 152
VWidth: 2048
Flags: W
Fore
128 579 m 1
 63 626 63 626 63 694 c 0
 63 722 63 722 80 742 c 128
 98 763 98 763 119 763 c 0
 136 763 136 763 147 751 c 128
 158 739 158 739 158 723 c 0
 158 701 158 701 129 685 c 0
 109 674 109 674 109 664 c 0
 109 632 109 632 147 601 c 1
 128 579 l 1
EndSplineSet
EndChar
StartChar: dotbelowcomb
Encoding: 803 803 339
Width: 263
VWidth: 2048
Flags: W
VStem: 59 87<-240 -132>
Fore
59 -240 m 1
 59 -132 l 0
 146 -132 l 0
 146 -240 l 0
 59 -240 l 1
EndSplineSet
EndChar
StartChar: uni0326
Encoding: 806 806 340
Width: 0
VWidth: 2048
Flags: W
Fore
75 -116 m 1
 75 -64 l 1
 157 -64 l 1
 157 -116 l 2
 157 -148 152 -175 140 -197 c 128
 129 -219 112 -236 91 -248 c 1
 71 -210 l 1
 85 -202 96 -191 104 -175 c 128
 111 -160 115 -140 116 -116 c 1
 75 -116 l 1
EndSplineSet
EndChar
StartChar: uni0331
Encoding: 817 817 341
Width: 0
VWidth: 2148
Flags: W
Fore
23 -123 m 1
 23 -70.5 l 0
 196 -70.5 l 0
 196 -123 l 0
 23 -123 l 1
EndSplineSet
EndChar
StartChar: tonos
Encoding: 900 900 342
Width: 263
VWidth: 2048
Flags: W
HStem: 720 21G<142 236>
Fore
89 583 m 1
 142 720 l 1
 236 720 l 1
 148 583 l 1
 89 583 l 1
EndSplineSet
EndChar
StartChar: dieresistonos
Encoding: 901 901 343
Width: 263
VWidth: 2048
Flags: W
HStem: 585 93<-9 60 213 282> 720 21G<139 213>
VStem: -9 69<585 678> 213 69<585 678>
Fore
86 585 m 1
 139 720 l 1
 213 720 l 1
 133 585 l 1
 86 585 l 1
213 585 m 1
 213 678 l 1
 282 678 l 1
 282 585 l 1
 213 585 l 1
-9 585 m 1
 -9 678 l 1
 60 678 l 1
 60 585 l 1
 -9 585 l 1
EndSplineSet
EndChar
StartChar: anoteleia
Encoding: 903 903 345
Width: 324
VWidth: 2048
Flags: W
VStem: 170 82<311 411>
Fore
170 311 m 1
 170 411 l 1
 252 411 l 1
 252 311 l 1
 170 311 l 1
EndSplineSet
EndChar
StartChar: Gamma
Encoding: 915 915 355
Width: 428
VWidth: 2048
Flags: W
HStem: -20 20G<64 142> 631 85<64 420>
VStem: 64 78<0 631>
Fore
64 716 m 1
 420 716 l 1
 420 631 l 1
 142 631 l 1
 142 0 l 1
 64 0 l 1
 64 716 l 1
EndSplineSet
EndChar
StartChar: Delta
Encoding: 916 916 356
Width: 550
VWidth: 2048
Flags: W
HStem: 0 84<113 554> 716 21G<231 314>
Fore
554 0 m 1
 5 0 l 1
 231 716 l 1
 314 716 l 1
 554 0 l 1
239 504 m 1
 113 84 l 1
 439 84 l 1
 312 492 l 1
 294 550 281 599 271 641 c 1
 264 598 253 552 239 504 c 1
EndSplineSet
EndChar
StartChar: Theta
Encoding: 920 920 360
Width: 591
VWidth: 2048
Flags: W
HStem: -20 78<279.886 313> 323 82<191 410> 657 77<304 313>
VStem: 40 83<321 397> 479 82<321 397>
Fore
304 734 m 0
 352 734 394 721 431 696 c 128
 468 670 499 630 524 574 c 128
 548 519 561 446 561 357 c 0
 561 290 552 228 534 169 c 128
 517 111 488 65 448 31 c 128
 408 -3 359 -20 302 -20 c 0
 217 -20 153 15 108 83 c 128
 63 152 40 243 40 358 c 0
 40 468 62 558 105 628 c 128
 149 699 215 734 304 734 c 0
304 657 m 0
 245 657 200 631 169 580 c 128
 138 529 123 456 123 360 c 0
 123 261 138 185 169 134 c 128
 199 83 243 58 299 58 c 0
 419 58 479 160 479 364 c 0
 479 456 463 528 432 579 c 128
 401 631 358 657 304 657 c 0
191 405 m 1
 410 405 l 1
 410 323 l 1
 191 323 l 1
 191 405 l 1
EndSplineSet
EndChar
StartChar: Lambda
Encoding: 923 923 363
Width: 537
VWidth: 2048
Flags: W
HStem: -20 20G<5 84 458 542> 716 21G<235 314>
Fore
235 716 m 1
 314 716 l 1
 542 0 l 1
 458 0 l 1
 305 520 l 1
 294 556 283 596 274 637 c 1
 264 595 254 556 243 520 c 1
 84 0 l 1
 5 0 l 1
 235 716 l 1
EndSplineSet
EndChar
StartChar: Xi
Encoding: 926 926 366
Width: 524
VWidth: 2048
Flags: W
HStem: 0 84<44 490> 316 84<92 441> 632 84<55 479>
CounterMasks: 1 00
Fore
55 632 m 1
 55 716 l 1
 479 716 l 1
 479 632 l 1
 55 632 l 1
92 316 m 1
 92 400 l 1
 441 400 l 1
 441 316 l 1
 92 316 l 1
44 0 m 1
 44 84 l 1
 490 84 l 1
 490 0 l 1
 44 0 l 1
EndSplineSet
EndChar
StartChar: Pi
Encoding: 928 928 368
Width: 582
VWidth: 2048
Flags: W
HStem: -20 20G<66 144 449 527> 632 84<66 449>
VStem: 66 78<0 632> 449 78<0 716>
Fore
144 0 m 1
 66 0 l 1
 66 716 l 1
 527 716 l 1
 527 0 l 1
 449 0 l 1
 449 632 l 1
 144 632 l 1
 144 0 l 1
EndSplineSet
EndChar
StartChar: Sigma
Encoding: 931 931 370
Width: 485
VWidth: 2048
Flags: W
HStem: 0 84<123 455> 632 84<39 438>
Fore
39 716 m 1
 438 716 l 1
 438 632 l 1
 123 632 l 1
 323 372 l 1
 123 84 l 1
 455 84 l 1
 455 0 l 1
 39 0 l 1
 39 98 l 1
 231 372 l 1
 39 621 l 1
 39 716 l 1
EndSplineSet
EndChar
StartChar: Phi
Encoding: 934 934 373
Width: 653
VWidth: 2048
Flags: W
VStem: 35 84<330 380> 293 78<-85 67 141 564 638 734> 545 83<354 380>
Fore
293 734 m 1
 371 734 l 1
 371 639 l 1
 543 632 628 536 628 354 c 0
 628 170 543 74 371 67 c 1
 371 -85 l 1
 293 -85 l 1
 293 67 l 1
 121 74 35 170 35 354 c 0
 35 537 121 632 293 639 c 1
 293 734 l 1
293 564 m 1
 177 563 119 492 119 353 c 0
 119 220 177 149 293 141 c 1
 293 564 l 1
371 564 m 1
 371 141 l 1
 431 142 475 162 503 198 c 128
 531 235 545 287 545 354 c 0
 545 491 487 561 371 564 c 1
EndSplineSet
EndChar
StartChar: Psi
Encoding: 936 936 375
Width: 651
VWidth: 2048
Flags: W
HStem: -20 20G<291 369> 221 82<291 291 369 391.582> 716 21G<38 116 291 369 543 621>
VStem: 38 78<494 716> 291 78<0 221 303 716> 543 78<494 716>
Fore
38 496 m 2
 38 716 l 1
 116 716 l 1
 116 514 l 2
 116 447 132 396 165 359 c 128
 198 322 240 303 291 303 c 1
 291 716 l 1
 369 716 l 1
 369 303 l 1
 485 303 543 377 543 524 c 2
 543 716 l 1
 621 716 l 1
 621 504 l 2
 621 414 600 345 557 295 c 128
 514 246 451 221 369 221 c 1
 369 0 l 1
 291 0 l 1
 291 221 l 1
 215 221 154 246 107 297 c 128
 61 348 38 414 38 496 c 2
EndSplineSet
EndChar
StartChar: Ohm
Encoding: 937 937 376
Width: 613
VWidth: 2048
Flags: W
HStem: 0 84<43 271 451 579> 647 81<312 316>
VStem: 50 80<367 401> 493 80<367 401>
Fore
43 0 m 1
 43 84 l 1
 171 84 l 1
 90 167 50 268 50 387 c 0
 50 488 74 570 122 633 c 128
 171 696 234 728 312 728 c 0
 394 728 458 695 504 628 c 128
 550 562 573 481 573 387 c 0
 573 268 533 167 451 84 c 1
 579 84 l 1
 579 0 l 1
 350 0 l 1
 350 79 l 1
 445 133 493 231 493 372 c 0
 493 453 476 520 442 571 c 128
 408 621 364 647 312 647 c 0
 259 647 215 622 181 572 c 128
 147 522 130 457 130 377 c 0
 130 234 177 135 271 79 c 1
 271 0 l 1
 43 0 l 1
EndSplineSet
EndChar
StartChar: alpha
Encoding: 945 945 384
Width: 485
VWidth: 2048
Flags: W
HStem: -14 68<218 236> 460 67<218 236>
VStem: 27 84<241 275> 357 75<225 291>
Fore
367 94 m 1
 330 22 281 -14 218 -14 c 0
 177 -14 142 -1 113 23 c 128
 83 47 61 80 48 121 c 128
 34 162 27 205 27 249 c 0
 27 334 45 401 79 452 c 128
 114 502 161 527 220 527 c 0
 286 527 334 495 365 431 c 1
 382 519 l 1
 460 519 l 1
 442 435 432 351 432 268 c 0
 432 170 443 81 466 0 c 1
 385 0 l 1
 377 36 371 68 367 94 c 1
234 460 m 0
 193 460 162 441 142 405 c 128
 122 368 111 319 111 259 c 0
 111 195 122 145 143 108 c 128
 165 72 195 54 234 54 c 0
 316 54 357 122 357 260 c 0
 357 326 346 376 324 409 c 128
 302 443 272 460 234 460 c 0
EndSplineSet
EndChar
StartChar: beta
Encoding: 946 946 385
Width: 451
VWidth: 2048
Flags: W
HStem: -219 20G<54 126> -12 65<245 264> 358 64<189 211> 656 72<215.922 237>
VStem: 54 72<-199 66 -199 522> 329 69<536 554> 359 74<184 218>
Fore
287 393 m 1xfc
 334 386 370 366 395 332 c 128
 420 299 433 257 433 205 c 0xfa
 433 143 417 92 386 50 c 128
 354 9 314 -12 264 -12 c 0
 203 -12 157 14 126 66 c 1
 126 -199 l 1
 54 -199 l 1
 54 504 l 2
 54 575 71 630 103 669 c 128
 136 708 180 728 234 728 c 0
 282 728 322 711 352 676 c 128
 383 641 398 599 398 552 c 0
 398 512 388 478 369 449 c 128
 349 420 322 402 287 393 c 1xfc
209 358 m 2
 189 358 l 1
 189 422 l 1
 282 422 329 462 329 543 c 0xfc
 329 576 320 602 301 624 c 128
 282 645 258 656 230 656 c 0
 208 656 189 649 171 636 c 128
 154 624 142 608 135 589 c 128
 129 570 126 536 126 488 c 2
 126 267 l 2
 126 219 129 181 136 155 c 128
 142 128 156 104 177 84 c 128
 199 63 223 53 249 53 c 0
 281 53 307 67 328 94 c 128
 349 120 359 156 359 200 c 0
 359 248 346 286 319 315 c 128
 293 344 256 358 209 358 c 2
EndSplineSet
EndChar
StartChar: gamma
Encoding: 947 947 386
Width: 401
VWidth: 2048
Flags: W
HStem: -219 20G<169 241> 518 21G<10 86 326 400>
VStem: 169 72<-199 0>
Fore
169 0 m 1
 10 518 l 1
 86 518 l 1
 205 110 l 1
 326 518 l 1
 400 518 l 1
 241 0 l 1
 241 -199 l 1
 169 -199 l 1
 169 0 l 1
EndSplineSet
EndChar
StartChar: delta
Encoding: 948 948 387
Width: 447
VWidth: 2048
Flags: W
HStem: -11 72<220 238> 645 71<70 391>
VStem: 29 74<228 278> 354 74<228 278>
Fore
70 653 m 1
 70 716 l 1
 391 716 l 1
 391 645 l 1
 166 645 l 1
 191 615 225 581 269 543 c 128
 312 505 344 476 363 454 c 128
 382 433 397 406 410 375 c 128
 422 343 428 304 428 258 c 0
 428 174 410 108 374 61 c 128
 338 13 291 -11 231 -11 c 0
 168 -11 119 13 83 60 c 128
 47 108 29 172 29 252 c 0
 29 328 45 390 77 437 c 128
 109 484 153 509 207 512 c 1
 176 540 130 587 70 653 c 1
228 444 m 0
 192 444 162 426 138 391 c 128
 115 356 103 309 103 251 c 0
 103 194 115 149 139 114 c 128
 164 79 194 61 230 61 c 0
 267 61 297 78 320 112 c 128
 343 146 354 193 354 252 c 0
 354 312 342 358 319 393 c 128
 296 427 265 444 228 444 c 0
EndSplineSet
EndChar
StartChar: epsilon
Encoding: 949 949 388
Width: 346
VWidth: 2048
Flags: W
HStem: -11 72<167 186> 231 71<184.404 220> 454 76<167 186>
VStem: 25 74<132 150> 36 69<383 390>
Fore
205 302 m 2xe8
 220 302 l 1
 220 231 l 1
 207 231 l 2
 135 231 99 202 99 145 c 0
 99 121 107 101 121 85 c 128
 136 69 154 61 176 61 c 0
 212 61 247 82 280 125 c 1
 332 71 l 1
 309 42 285 21 260 8 c 128
 236 -5 205 -11 169 -11 c 0
 125 -11 90 3 64 32 c 128
 38 61 25 97 25 141 c 0xf0
 25 202 48 244 95 268 c 1
 56 294 36 332 36 383 c 0
 36 424 49 459 74 488 c 128
 99 516 133 530 177 530 c 0
 231 530 278 507 317 460 c 1
 265 409 l 1
 232 439 201 454 173 454 c 0
 152 454 135 447 123 433 c 128
 111 420 105 403 105 383 c 0
 105 329 138 302 205 302 c 2xe8
EndSplineSet
EndChar
StartChar: zeta
Encoding: 950 950 389
Width: 350
VWidth: 2048
Flags: W
HStem: 645 71<94 260>
VStem: 28 74<189 223> 278 69<-67 -49>
Fore
94 645 m 1
 94 716 l 1
 355 716 l 1
 355 656 l 1
 276 593 214 520 169 436 c 128
 124 352 102 273 102 201 c 0
 102 167 107 141 118 124 c 128
 128 107 141 96 156 91 c 128
 172 86 193 82 220 79 c 128
 248 76 270 70 287 62 c 128
 304 55 318 41 330 20 c 128
 341 0 347 -23 347 -49 c 0
 347 -88 334 -125 309 -159 c 128
 283 -193 244 -210 191 -210 c 1
 210 -129 l 1
 255 -121 278 -99 278 -61 c 0
 278 -43 272 -29 262 -18 c 128
 251 -7 226 -1 187 1 c 128
 148 3 117 11 96 26 c 128
 75 41 58 63 46 94 c 128
 34 125 28 162 28 205 c 0
 28 277 49 354 91 435 c 128
 133 516 189 586 260 645 c 1
 94 645 l 1
EndSplineSet
EndChar
StartChar: eta
Encoding: 951 951 390
Width: 447
VWidth: 2048
Flags: W
HStem: -219 20G<330 402> 0 21G<56 128> 454 76<238 256>
VStem: 56 65<0 518> 56 72<0 316> 330 72<-199 346>
Fore
121 518 m 1xf4
 121 445 l 1xf4
 153 501 198 530 256 530 c 0
 291 530 321 520 345 501 c 128
 370 482 385 459 392 432 c 128
 399 405 402 367 402 319 c 2
 402 -199 l 1
 330 -199 l 1
 330 315 l 2
 330 375 321 413 302 429 c 128
 283 446 263 454 240 454 c 0
 213 454 188 443 164 421 c 128
 140 399 128 353 128 283 c 2
 128 0 l 1xec
 56 0 l 1
 56 518 l 1
 121 518 l 1xf4
EndSplineSet
EndChar
StartChar: theta
Encoding: 952 952 391
Width: 447
VWidth: 2048
Flags: W
HStem: -11 72<215.59 231> 323 71<111 345> 656 72<214.078 231>
VStem: 37 74<358 406> 345 75<308 358 358 406>
CounterMasks: 1 00
Fore
228 -11 m 0
 101 -11 37 112 37 358 c 0
 37 605 101 728 228 728 c 0
 356 728 420 605 420 358 c 0
 420 112 356 -11 228 -11 c 0
111 394 m 1
 345 394 l 1
 343 484 332 550 314 593 c 128
 295 635 267 656 228 656 c 0
 190 656 161 635 143 592 c 128
 124 550 113 484 111 394 c 1
345 323 m 1
 111 323 l 1
 114 215 127 145 150 111 c 128
 172 78 198 61 228 61 c 0
 302 61 341 148 345 323 c 1
EndSplineSet
EndChar
StartChar: kappa
Encoding: 954 954 393
Width: 399
VWidth: 2048
Flags: W
HStem: -20 20G<53 125 317 409> 518 21G<53 125 297 393>
VStem: 53 72<0 214 0 518>
Fore
53 0 m 1
 53 518 l 1
 125 518 l 1
 125 315 l 1
 297 518 l 1
 393 518 l 1
 202 303 l 1
 409 0 l 1
 317 0 l 1
 151 244 l 1
 125 214 l 1
 125 0 l 1
 53 0 l 1
EndSplineSet
EndChar
StartChar: lambda
Encoding: 955 955 394
Width: 401
VWidth: 2048
Flags: W
HStem: -20 20G<10 86 324 400> 716 21G<105 181>
Fore
324 0 m 1
 205 388 l 1
 86 0 l 1
 10 0 l 1
 168 509 l 1
 105 716 l 1
 181 716 l 1
 400 0 l 1
 324 0 l 1
EndSplineSet
EndChar
StartChar: mu
Encoding: 956 956 395
Width: 447
VWidth: 2048
Flags: W
HStem: -219 20G<55 127> -13 81<214 232> 518 21G<55 127 329 401>
VStem: 55 72<-199 52 -199 518> 329 72<232 518>
Fore
335 0 m 1
 335 61 l 1
 311 12 275 -13 227 -13 c 0
 187 -13 154 8 127 52 c 1
 127 -199 l 1
 55 -199 l 1
 55 518 l 1
 127 518 l 1
 127 299 l 2
 127 267 128 233 131 196 c 128
 133 160 139 134 147 119 c 128
 155 104 166 92 179 82 c 128
 193 73 208 68 224 68 c 0
 245 68 264 75 281 88 c 128
 299 101 311 120 318 144 c 128
 325 167 329 208 329 264 c 2
 329 518 l 1
 401 518 l 1
 401 0 l 1
 335 0 l 1
EndSplineSet
EndChar
StartChar: xi
Encoding: 958 958 397
Width: 304
VWidth: 2048
Flags: W
HStem: 407 73<228 297> 656 71<220 301>
VStem: 29 74<189 223> 50 69<557 575> 275 69<-67 -49>
Fore
228 480 m 2xd8
 297 480 l 1
 297 407 l 1
 234 407 186 387 153 346 c 128
 120 306 103 259 103 208 c 0
 103 144 130 104 183 89 c 0
 249 70 292 52 313 36 c 128
 334 20 344 -10 344 -55 c 0
 344 -96 330 -131 302 -163 c 128
 274 -194 235 -210 183 -210 c 1
 202 -129 l 1
 251 -123 275 -101 275 -62 c 0
 275 -42 269 -27 256 -20 c 128
 243 -12 222 -5 193 2 c 0
 125 17 80 43 60 80 c 128
 39 117 29 159 29 205 c 0xe8
 29 253 40 296 63 335 c 128
 85 375 118 406 159 429 c 1
 123 436 96 453 78 478 c 128
 59 503 50 533 50 567 c 0
 50 614 66 652 99 682 c 128
 132 712 173 727 222 727 c 2
 301 727 l 1
 301 656 l 1
 231 656 l 2
 195 656 168 648 148 631 c 128
 129 615 119 593 119 566 c 0
 119 509 155 480 228 480 c 2xd8
EndSplineSet
EndChar
StartChar: pi
Encoding: 960 960 399
Width: 547
VWidth: 2048
Flags: W
HStem: -20 20G<125 197 374 446> 447 71<13 125 13 374 13 543>
VStem: 125 72<0 447> 374 72<0 447>
Fore
374 447 m 1
 197 447 l 1
 197 0 l 1
 125 0 l 1
 125 447 l 1
 13 447 l 1
 13 518 l 1
 543 518 l 1
 543 447 l 1
 446 447 l 1
 446 0 l 1
 374 0 l 1
 374 447 l 1
EndSplineSet
EndChar
StartChar: rho
Encoding: 961 961 400
Width: 458
VWidth: 2048
Flags: W
HStem: -219 20G<54 126> -11 72<238 253> 458 72<229 253>
VStem: 54 72<-199 49 -199 282> 365 74<232 282>
Fore
126 -199 m 1
 54 -199 l 1
 54 257 l 2
 54 346 70 413 103 460 c 128
 135 507 182 530 242 530 c 0
 300 530 348 505 384 456 c 128
 421 407 439 341 439 260 c 0
 439 178 422 112 387 63 c 128
 352 13 307 -11 251 -11 c 0
 199 -11 157 9 126 49 c 1
 126 -199 l 1
365 255 m 0
 365 320 354 370 332 405 c 128
 310 440 280 458 243 458 c 0
 166 458 127 390 127 253 c 0
 127 191 137 144 157 111 c 128
 177 78 205 61 240 61 c 0
 279 61 310 78 332 112 c 128
 354 146 365 193 365 255 c 0
EndSplineSet
EndChar
StartChar: sigma1
Encoding: 962 962 401
Width: 378
VWidth: 2048
Flags: W
HStem: -210 81<189 215> 458 72<262 291>
VStem: 30 69<237 255> 288 74<-67 -49>
Fore
146 -204 m 1
 164 -123 l 1
 179 -127 192 -129 204 -129 c 0
 229 -129 249 -122 264 -110 c 128
 280 -97 288 -80 288 -60 c 0
 288 -48 284 -37 276 -27 c 128
 268 -18 247 -8 213 2 c 0
 91 40 30 119 30 239 c 0
 30 320 54 389 101 446 c 128
 149 502 207 530 277 530 c 0
 317 530 352 525 382 514 c 1
 364 440 l 1
 333 452 303 458 275 458 c 0
 223 458 181 438 148 399 c 128
 116 360 99 309 99 247 c 0
 99 168 144 113 232 82 c 0
 286 63 321 43 337 21 c 128
 354 -1 362 -26 362 -54 c 0
 362 -99 348 -137 319 -166 c 128
 291 -195 253 -210 207 -210 c 0
 186 -210 166 -208 146 -204 c 1
EndSplineSet
EndChar
StartChar: sigma
Encoding: 963 963 402
Width: 536
VWidth: 2048
Flags: W
HStem: -14 67<227 252> 445 75<344 530> 466 61<227 252>
VStem: 27 83<241 275> 368 83<241 275>
Fore
394 445 m 1xd8
 432 401 451 339 451 258 c 0
 451 176 432 110 395 60 c 128
 358 11 306 -14 240 -14 c 0
 172 -14 120 11 83 61 c 128
 46 111 27 176 27 258 c 0
 27 342 46 409 84 456 c 128
 123 504 171 527 229 527 c 0xb8
 240 527 261 526 292 523 c 0
 303 522 321 521 344 520 c 1
 530 520 l 1
 530 445 l 1
 394 445 l 1xd8
242 466 m 0
 154 466 110 394 110 250 c 0
 110 190 121 141 143 106 c 128
 166 70 197 53 238 53 c 0
 281 53 314 71 335 107 c 128
 357 143 368 195 368 262 c 0
 368 324 357 374 336 411 c 128
 314 448 283 466 242 466 c 0
EndSplineSet
EndChar
StartChar: tau
Encoding: 964 964 403
Width: 303
VWidth: 2048
Flags: W
HStem: -20 20G<125 197> 447 71<13 125 13 300>
VStem: 125 72<0 447>
Fore
300 447 m 1
 197 447 l 1
 197 0 l 1
 125 0 l 1
 125 447 l 1
 13 447 l 1
 13 518 l 1
 300 518 l 1
 300 447 l 1
EndSplineSet
EndChar
StartChar: upsilon
Encoding: 965 965 404
Width: 447
VWidth: 2048
Flags: W
HStem: -11 72<214 232> 518 21G<55 127 329 401>
VStem: 55 72<180 518> 329 72<196 518>
Fore
55 202 m 2
 55 518 l 1
 127 518 l 1
 127 198 l 2
 127 157 136 124 155 99 c 128
 174 74 198 61 227 61 c 0
 257 61 281 74 301 100 c 128
 320 126 329 161 329 207 c 2
 329 518 l 1
 401 518 l 1
 401 200 l 2
 401 135 385 84 354 46 c 128
 322 8 279 -11 226 -11 c 0
 173 -11 131 7 101 45 c 128
 70 82 55 135 55 202 c 2
EndSplineSet
EndChar
StartChar: phi
Encoding: 966 966 405
Width: 523
VWidth: 2048
Flags: W
HStem: -219 20G<233 305> 458 72<329 348>
VStem: 29 74<248 298> 233 72<-199 -12 65 394> 429 74<264 298>
Fore
233 -199 m 1
 233 -12 l 1
 172 -6 123 24 85 78 c 128
 48 132 29 196 29 272 c 0
 29 346 45 408 79 457 c 128
 112 506 153 530 200 529 c 1
 186 453 l 1
 131 430 103 371 103 276 c 0
 103 222 114 177 137 139 c 128
 159 101 191 77 233 65 c 1
 233 387 l 2
 233 447 241 486 256 503 c 128
 272 521 296 530 329 530 c 0
 387 530 431 504 459 452 c 128
 488 400 503 344 503 285 c 0
 503 212 486 149 452 95 c 128
 417 42 369 6 305 -12 c 1
 305 -199 l 1
 233 -199 l 1
305 373 m 2
 305 68 l 1
 343 77 373 101 395 142 c 128
 418 182 429 232 429 290 c 0
 429 342 421 383 405 413 c 128
 388 443 369 458 346 458 c 0
 332 458 322 452 315 440 c 128
 309 428 305 406 305 373 c 2
EndSplineSet
EndChar
StartChar: chi
Encoding: 967 967 406
Width: 419
VWidth: 2048
Flags: W
HStem: -219 20G<6 86 340 422> 518 21G<18 97 335 414>
Fore
170 162 m 1
 18 518 l 1
 97 518 l 1
 214 231 l 1
 335 518 l 1
 414 518 l 1
 258 165 l 1
 422 -199 l 1
 340 -199 l 1
 214 100 l 1
 86 -199 l 1
 6 -199 l 1
 170 162 l 1
EndSplineSet
EndChar
StartChar: psi
Encoding: 968 968 407
Width: 588
VWidth: 2048
Flags: W
HStem: -219 20G<262 334> 518 21G<55 127 262 334 470 542>
VStem: 55 72<216 518> 262 72<-199 -12 62 518> 470 72<232 518>
Fore
55 254 m 2
 55 518 l 1
 127 518 l 1
 127 250 l 2
 127 181 138 133 161 106 c 128
 183 79 217 64 262 62 c 1
 262 518 l 1
 334 518 l 1
 334 62 l 1
 380 65 414 80 436 107 c 128
 459 135 470 183 470 251 c 2
 470 518 l 1
 542 518 l 1
 542 254 l 2
 542 192 536 143 523 107 c 128
 511 71 488 42 455 22 c 128
 421 1 381 -10 334 -12 c 1
 334 -199 l 1
 262 -199 l 1
 262 -12 l 1
 214 -10 173 2 140 23 c 128
 107 45 84 74 73 109 c 128
 61 144 55 193 55 254 c 2
EndSplineSet
EndChar
StartChar: omega
Encoding: 969 969 408
Width: 625
VWidth: 2048
Flags: W
HStem: -12 69<183 194 428 446> 518 21G<92 162 467 536>
VStem: 29 74<224 261> 279 72<226 388> 526 74<224 261>
Fore
279 226 m 2
 279 388 l 1
 351 388 l 1
 351 226 l 2
 351 172 359 130 375 101 c 128
 390 72 411 57 437 57 c 0
 462 57 483 74 500 108 c 128
 517 141 526 185 526 238 c 0
 526 319 506 413 467 518 c 1
 536 518 l 1
 579 428 600 339 600 252 c 0
 600 169 586 104 557 58 c 128
 529 11 491 -12 444 -12 c 0
 384 -12 340 27 314 105 c 1
 287 27 244 -12 185 -12 c 0
 138 -12 100 11 72 58 c 128
 43 104 29 169 29 252 c 0
 29 340 50 428 92 518 c 1
 162 518 l 1
 123 411 103 318 103 238 c 0
 103 185 112 142 129 108 c 128
 146 74 167 57 192 57 c 0
 218 57 239 72 255 101 c 128
 271 130 279 172 279 226 c 2
EndSplineSet
EndChar
StartChar: afii10051
Encoding: 1026 1026 415
Width: 700
VWidth: 2048
Flags: W
HStem: -12 78<470 494> 378 79<449 472> 631 85<21 216 21 489>
VStem: 216 77<0 332 0 631> 598 79<195 229>
Fore
21 716 m 1
 489 716 l 1
 489 631 l 1
 293 631 l 1
 293 409 l 1
 361 441 420 457 470 457 c 0
 532 457 582 434 620 388 c 128
 658 342 677 286 677 220 c 0
 677 159 661 105 628 58 c 128
 596 11 551 -12 494 -12 c 0
 464 -12 433 -7 399 4 c 1
 412 84 l 1
 432 72 453 66 475 66 c 0
 509 66 538 78 562 103 c 128
 586 127 598 166 598 217 c 0
 598 265 585 304 560 334 c 128
 535 363 499 378 451 378 c 0
 406 378 354 363 293 332 c 1
 293 0 l 1
 216 0 l 1
 216 631 l 1
 21 631 l 1
 21 716 l 1
EndSplineSet
EndChar
StartChar: afii10053
Encoding: 1028 1028 417
Width: 580
VWidth: 2048
Flags: W
HStem: -12 79<295 315> 327 85<124 338> 645 83<312 329>
Fore
338 412 m 1
 338 327 l 1
 121 327 l 1
 124 246 142 183 176 137 c 128
 209 90 252 67 305 67 c 0
 398 67 456 128 480 249 c 1
 555 225 l 1
 524 67 442 -12 311 -12 c 0
 221 -12 153 24 108 97 c 128
 63 170 40 259 40 366 c 0
 40 433 51 494 72 548 c 128
 93 602 125 646 166 679 c 128
 207 712 256 728 312 728 c 0
 372 728 423 710 464 674 c 128
 505 637 533 586 548 520 c 1
 472 495 l 1
 449 595 396 645 312 645 c 0
 260 645 218 625 185 585 c 128
 151 546 131 488 124 412 c 1
 338 412 l 1
EndSplineSet
EndChar
StartChar: afii10058
Encoding: 1033 1033 422
Width: 857
VWidth: 2048
Flags: W
HStem: 0 81<472 646> 329 81<472 623> 631 85<104 394>
VStem: 104 78<195 631> 394 78<0 329 0 716> 752 84<195 214>
Fore
472 716 m 1
 472 410 l 1
 612 410 l 2
 692 410 749 393 784 359 c 128
 819 324 836 274 836 208 c 0
 836 166 827 127 810 92 c 128
 792 57 769 33 741 20 c 128
 714 7 674 0 623 0 c 2
 394 0 l 1
 394 631 l 1
 182 631 l 1
 182 263 l 2
 182 189 179 135 173 100 c 128
 167 65 155 37 136 17 c 128
 118 -2 95 -12 67 -12 c 0
 49 -12 29 -8 5 0 c 1
 18 83 l 1
 31 77 42 74 51 74 c 0
 68 74 81 82 90 97 c 128
 99 113 104 151 104 212 c 2
 104 716 l 1
 472 716 l 1
472 81 m 1
 626 81 l 2
 656 81 679 84 695 92 c 128
 711 99 725 112 736 131 c 128
 747 150 752 175 752 206 c 0
 752 236 746 262 733 281 c 128
 721 301 704 314 684 320 c 128
 663 326 627 329 576 329 c 2
 472 329 l 1
 472 81 l 1
EndSplineSet
EndChar
StartChar: afii10059
Encoding: 1034 1034 423
Width: 819
VWidth: 2048
Flags: W
HStem: 0 81<433 610> 329 81<143 355 433 566> 716 21G<65 143 355 433>
VStem: 65 78<0 329 0 716> 355 78<0 329 410 716> 714 84<191 225>
Fore
433 716 m 1
 433 410 l 1
 563 410 l 2
 620 410 663 405 694 393 c 128
 724 382 749 360 769 326 c 128
 788 293 798 254 798 208 c 0
 798 165 789 126 771 92 c 128
 753 58 731 34 704 21 c 128
 677 7 636 0 580 0 c 2
 355 0 l 1
 355 329 l 1
 143 329 l 1
 143 0 l 1
 65 0 l 1
 65 716 l 1
 143 716 l 1
 143 410 l 1
 355 410 l 1
 355 716 l 1
 433 716 l 1
433 81 m 1
 579 81 l 2
 612 81 636 83 653 89 c 128
 669 95 683 108 696 127 c 128
 708 147 714 173 714 204 c 0
 714 234 708 259 697 279 c 128
 685 298 668 312 646 318 c 128
 624 325 585 329 527 329 c 2
 433 329 l 1
 433 81 l 1
EndSplineSet
EndChar
StartChar: afii10060
Encoding: 1035 1035 424
Width: 691
VWidth: 2048
Flags: W
HStem: -20 20G<216 294 586 664> 377 80<451 472> 631 85<20 216 20 490>
VStem: 216 78<0 332 0 631> 586 78<0 209>
Fore
20 716 m 1
 490 716 l 1
 490 631 l 1
 294 631 l 1
 294 411 l 1
 367 442 425 457 470 457 c 0
 516 457 555 445 585 422 c 128
 616 398 637 368 648 332 c 128
 658 296 664 248 664 188 c 2
 664 0 l 1
 586 0 l 1
 586 185 l 2
 586 252 577 301 558 331 c 128
 539 362 508 377 464 377 c 0
 419 377 362 362 294 332 c 1
 294 0 l 1
 216 0 l 1
 216 631 l 1
 20 631 l 1
 20 716 l 1
EndSplineSet
EndChar
StartChar: afii10145
Encoding: 1039 1039 427
Width: 580
VWidth: 2048
Flags: W
HStem: -219 20G<260 329> 0 84<141 260 142 525> 716 21G<64 142 448 525>
VStem: 64 78<0 716> 260 69<-199 0> 448 77<84 716>
Fore
329 0 m 1
 329 -199 l 1
 260 -199 l 1
 260 0 l 1
 64 0 l 1
 64 716 l 1
 142 716 l 1
 142 84 l 1
 448 84 l 1
 448 716 l 1
 525 716 l 1
 525 0 l 1
 329 0 l 1
EndSplineSet
EndChar
StartChar: afii10018
Encoding: 1041 1041 429
Width: 529
VWidth: 2048
Flags: W
HStem: 0 81<145 308> 329 82<145 296> 631 85<67 448>
VStem: 67 78<0 329 0 631> 426 83<191 225>
Fore
67 716 m 1
 448 716 l 1
 448 631 l 1
 145 631 l 1
 145 411 l 1
 285 411 l 2
 337 411 378 405 408 393 c 128
 438 381 463 358 481 325 c 128
 500 292 509 253 509 208 c 0
 509 166 501 128 483 94 c 128
 466 60 444 35 416 21 c 128
 388 7 348 0 296 0 c 2
 67 0 l 1
 67 716 l 1
145 81 m 1
 300 81 l 2
 340 81 371 90 393 109 c 128
 415 128 426 160 426 206 c 0
 426 236 420 261 407 281 c 128
 394 300 378 313 357 320 c 128
 336 326 300 329 249 329 c 2
 145 329 l 1
 145 81 l 1
EndSplineSet
EndChar
StartChar: afii10021
Encoding: 1044 1044 432
Width: 546
VWidth: 2048
Flags: W
HStem: 0 84<125 457> 631 85<117 396>
VStem: 0 69<-167 0> 117 74<552 631> 396 78<84 716> 457 69<-167 84>
Fore
117 716 m 1xf4
 474 716 l 1
 474 84 l 1xf8
 526 84 l 1
 526 -167 l 1
 457 -167 l 1
 457 0 l 1
 69 0 l 1
 69 -167 l 1
 0 -167 l 1
 0 84 l 1
 45 84 l 1
 93 171 117 347 117 611 c 2
 117 716 l 1xf4
396 631 m 1
 191 631 l 1
 191 595 l 2
 191 535 187 452 178 347 c 128
 170 242 152 154 125 84 c 1
 396 84 l 1
 396 631 l 1
EndSplineSet
EndChar
StartChar: afii10024
Encoding: 1046 1046 434
Width: 750
VWidth: 2048
Flags: W
HStem: -20 20G<3 99 339 418 658 754> 634 82<19 52 706 738>
VStem: 339 79<0 335 402 716>
Fore
418 716 m 1
 418 402 l 1
 457 403 483 411 497 427 c 128
 511 443 529 484 552 548 c 0
 571 603 587 640 601 661 c 128
 614 682 629 696 647 704 c 128
 665 712 695 716 738 716 c 2
 749 716 l 1
 749 633 l 1
 733 634 l 1
 716 634 l 2
 692 634 674 627 662 612 c 128
 650 596 636 565 621 519 c 0
 601 459 584 421 571 405 c 128
 557 389 541 376 521 366 c 1
 560 353 597 311 633 238 c 1
 754 0 l 1
 658 0 l 1
 560 194 l 1
 530 254 506 292 487 309 c 128
 469 326 446 335 418 335 c 1
 418 0 l 1
 339 0 l 1
 339 335 l 1
 306 335 281 324 263 303 c 128
 245 281 223 245 197 194 c 2
 99 0 l 1
 3 0 l 1
 124 238 l 2
 161 311 198 354 236 366 c 1
 215 377 198 390 185 408 c 128
 171 425 155 462 137 519 c 0
 120 569 106 601 94 615 c 128
 82 628 64 634 40 634 c 1
 9 633 l 1
 9 716 l 1
 19 716 l 2
 62 716 93 712 110 704 c 128
 128 696 143 681 157 660 c 128
 170 639 187 602 206 548 c 0
 228 484 247 444 260 427 c 128
 274 411 300 403 339 402 c 1
 339 716 l 1
 418 716 l 1
EndSplineSet
EndChar
StartChar: afii10025
Encoding: 1047 1047 435
Width: 486
VWidth: 2048
Flags: W
HStem: -12 81<248 256> 330 82<203 237.219> 645 83<238 256>
VStem: 357 77<515 535> 380 82<195 213>
Fore
31 202 m 1xe8
 105 226 l 1
 111 191 125 157 150 122 c 128
 174 86 207 69 248 69 c 0
 287 69 319 81 344 106 c 128
 368 132 380 163 380 201 c 0xe8
 380 240 368 272 343 295 c 128
 317 318 283 330 240 330 c 2
 203 330 l 1
 203 412 l 1
 239 412 266 415 284 419 c 128
 303 424 320 437 335 457 c 128
 350 478 357 501 357 529 c 0
 357 558 348 585 329 609 c 128
 310 633 282 645 247 645 c 0
 218 645 194 637 174 620 c 128
 153 604 138 581 129 552 c 128
 120 524 115 499 115 479 c 1
 41 500 l 1
 59 652 128 728 248 728 c 0
 305 728 351 708 384 669 c 128
 417 630 434 585 434 533 c 0
 434 467 408 416 357 378 c 1xf0
 387 368 412 347 432 316 c 128
 452 285 462 248 462 205 c 0
 462 142 442 91 403 50 c 128
 363 8 312 -12 248 -12 c 0
 137 -12 64 59 31 202 c 1xe8
EndSplineSet
EndChar
StartChar: afii10026
Encoding: 1048 1048 436
Width: 580
VWidth: 2048
Flags: W
HStem: -20 20G<64 142 455 525> 716 21G<64 135 447 525>
VStem: 64 71<0 716> 455 70<0 716>
Fore
64 716 m 1
 135 716 l 1
 135 149 l 1
 447 716 l 1
 525 716 l 1
 525 0 l 1
 455 0 l 1
 455 565 l 1
 142 0 l 1
 64 0 l 1
 64 716 l 1
EndSplineSet
EndChar
StartChar: afii10028
Encoding: 1050 1050 438
Width: 468
VWidth: 2048
Flags: W
HStem: -20 20G<64 142 378 475> 335 67<142 161> 634 83<431 454>
VStem: 64 78<0 335 0 716>
Fore
64 716 m 1
 142 716 l 1
 142 402 l 1
 178 402 203 411 217 427 c 128
 231 444 250 484 272 548 c 0
 290 598 304 633 316 653 c 128
 327 674 343 689 362 700 c 128
 381 712 408 717 440 717 c 0
 450 717 459 717 469 716 c 1
 469 633 l 1
 454 634 l 1
 436 634 l 2
 415 634 398 628 386 616 c 128
 373 604 358 571 341 519 c 0
 322 460 305 422 292 406 c 128
 278 389 262 376 242 366 c 1
 280 354 317 311 354 238 c 2
 475 0 l 1
 378 0 l 1
 280 194 l 2
 249 256 225 295 206 311 c 128
 188 327 169 335 150 335 c 0
 148 335 145 335 142 335 c 1
 142 0 l 1
 64 0 l 1
 64 716 l 1
EndSplineSet
EndChar
StartChar: afii10029
Encoding: 1051 1051 439
Width: 529
VWidth: 2048
Flags: W
HStem: -12 86<52 69> 631 85<106 396>
VStem: 106 78<195 631> 396 78<0 716>
Fore
106 716 m 1
 474 716 l 1
 474 0 l 1
 396 0 l 1
 396 631 l 1
 184 631 l 1
 184 263 l 2
 184 189 181 135 175 100 c 128
 169 65 157 37 138 17 c 128
 120 -2 97 -12 69 -12 c 0
 51 -12 31 -8 7 0 c 1
 20 83 l 1
 33 77 44 74 53 74 c 0
 70 74 83 82 92 97 c 128
 101 113 106 151 106 212 c 2
 106 716 l 1
EndSplineSet
EndChar
StartChar: afii10037
Encoding: 1059 1059 447
Width: 511
VWidth: 2048
Flags: W
HStem: -10 76<145 158> 716 21G<4 82 441 519>
Fore
4 716 m 1
 82 716 l 1
 274 277 l 1
 441 716 l 1
 519 716 l 1
 298 159 l 1
 270 88 247 42 229 21 c 128
 212 1 187 -10 156 -10 c 0
 135 -10 110 -4 81 7 c 1
 81 88 l 1
 102 74 124 66 147 66 c 0
 166 66 183 74 196 88 c 128
 210 103 225 137 242 190 c 1
 4 716 l 1
EndSplineSet
EndChar
StartChar: afii10038
Encoding: 1060 1060 448
Width: 614
VWidth: 2048
Flags: W
HStem: -20 20G<275 348> 716 21G<275 348>
VStem: 33 80<361 385> 275 73<0 92 174 549 629 716> 510 80<361 385>
CounterMasks: 1 00
Fore
275 630 m 1
 275 716 l 1
 348 716 l 1
 348 630 l 1
 423 625 482 598 525 548 c 128
 569 498 590 436 590 361 c 0
 590 287 569 225 526 175 c 128
 483 125 424 97 348 92 c 1
 348 0 l 1
 275 0 l 1
 275 92 l 1
 206 96 148 121 102 170 c 128
 56 218 33 282 33 361 c 0
 33 441 56 505 102 553 c 128
 148 601 206 627 275 630 c 1
348 549 m 1
 348 174 l 1
 396 177 435 194 465 225 c 128
 495 256 510 301 510 361 c 0
 510 418 496 463 467 495 c 128
 438 528 399 546 348 549 c 1
275 548 m 1
 227 546 188 528 158 496 c 128
 128 463 113 419 113 361 c 0
 113 304 128 259 158 227 c 128
 188 194 227 177 275 174 c 1
 275 548 l 1
EndSplineSet
EndChar
StartChar: afii10040
Encoding: 1062 1062 450
Width: 597
VWidth: 2048
Flags: W
HStem: -219 20G<510 579> 0 84<141 510> 716 21G<64 142 448 525>
VStem: 64 78<0 716> 448 77<84 716> 510 69<-199 84>
Fore
64 716 m 1xf4
 142 716 l 1
 142 84 l 1
 448 84 l 1
 448 716 l 1
 525 716 l 1
 525 84 l 1xf8
 579 84 l 1
 579 -199 l 1
 510 -199 l 1
 510 0 l 1
 64 0 l 1
 64 716 l 1xf4
EndSplineSet
EndChar
StartChar: afii10041
Encoding: 1063 1063 451
Width: 537
VWidth: 2048
Flags: W
HStem: -20 20G<405 482> 241 82<220 244> 716 21G<35 113 405 482>
VStem: 35 78<479 716> 405 77<0 716>
Fore
482 0 m 1
 405 0 l 1
 405 289 l 1
 335 257 274 241 222 241 c 0
 182 241 146 253 115 275 c 128
 84 298 63 327 52 363 c 128
 41 398 35 446 35 505 c 2
 35 716 l 1
 113 716 l 1
 113 514 l 2
 113 444 123 395 143 366 c 128
 163 338 193 323 233 323 c 0
 287 323 344 338 405 368 c 1
 405 716 l 1
 482 716 l 1
 482 0 l 1
EndSplineSet
EndChar
StartChar: afii10042
Encoding: 1064 1064 452
Width: 750
VWidth: 2048
Flags: W
HStem: 0 84<141 688> 716 21G<64 142 337 415 610 688>
VStem: 64 78<0 716> 337 78<84 716> 610 78<84 716>
CounterMasks: 1 00
Fore
64 716 m 1
 142 716 l 1
 142 84 l 1
 337 84 l 1
 337 716 l 1
 415 716 l 1
 415 84 l 1
 610 84 l 1
 610 716 l 1
 688 716 l 1
 688 0 l 1
 64 0 l 1
 64 716 l 1
EndSplineSet
EndChar
StartChar: afii10043
Encoding: 1065 1065 453
Width: 760
VWidth: 2048
Flags: W
HStem: -219 20G<671 741> 0 84<141 671> 716 21G<64 142 337 415 610 688>
VStem: 64 78<0 716> 337 78<84 716> 610 78<84 716> 671 70<-199 84>
Fore
64 716 m 1xfa
 142 716 l 1
 142 84 l 1
 337 84 l 1
 337 716 l 1
 415 716 l 1
 415 84 l 1
 610 84 l 1
 610 716 l 1
 688 716 l 1
 688 84 l 1xfc
 741 84 l 1
 741 -199 l 1
 671 -199 l 1
 671 0 l 1
 64 0 l 1
 64 716 l 1xfa
EndSplineSet
EndChar
StartChar: afii10044
Encoding: 1066 1066 454
Width: 640
VWidth: 2048
Flags: W
HStem: 0 81<256 417> 329 81<256 404> 631 85<0 178>
VStem: 178 78<0 329 0 716> 538 83<207 225>
Fore
0 716 m 1
 256 716 l 1
 256 410 l 1
 396 410 l 2
 449 410 490 404 520 392 c 128
 550 380 575 357 593 324 c 128
 612 291 621 252 621 207 c 0
 621 153 606 105 575 63 c 128
 544 21 486 0 402 0 c 2
 178 0 l 1
 178 631 l 1
 0 631 l 1
 0 716 l 1
256 81 m 1
 398 81 l 2
 447 81 482 90 504 110 c 128
 526 130 538 162 538 207 c 0
 538 237 531 262 518 281 c 128
 505 301 488 314 467 320 c 128
 446 326 411 329 360 329 c 2
 256 329 l 1
 256 81 l 1
EndSplineSet
EndChar
StartChar: afii10046
Encoding: 1068 1068 456
Width: 529
VWidth: 2048
Flags: W
HStem: 0 81<144 307> 329 81<144 292> 716 21G<66 144>
VStem: 66 78<0 329 0 716> 425 83<208 225>
Fore
66 716 m 1
 144 716 l 1
 144 410 l 1
 284 410 l 2
 335 410 376 404 407 392 c 128
 437 380 462 358 480 324 c 128
 499 291 508 253 508 208 c 0
 508 153 493 105 462 63 c 128
 431 21 374 0 289 0 c 2
 66 0 l 1
 66 716 l 1
144 81 m 1
 286 81 l 2
 334 81 369 90 391 110 c 128
 414 130 425 162 425 208 c 0
 425 238 418 263 405 282 c 128
 392 301 375 314 354 320 c 128
 334 326 298 329 248 329 c 2
 144 329 l 1
 144 81 l 1
EndSplineSet
EndChar
StartChar: afii10047
Encoding: 1069 1069 457
Width: 580
VWidth: 2048
Flags: W
HStem: -12 79<273 291> 327 85<251 469> 645 83<257.765 291>
Fore
251 412 m 1
 466 412 l 1
 458 490 437 548 404 587 c 128
 370 626 328 645 278 645 c 0
 194 645 140 595 118 495 c 1
 42 520 l 1
 57 586 85 637 126 674 c 128
 167 710 218 728 278 728 c 0
 363 728 429 693 477 622 c 128
 525 552 549 466 549 366 c 0
 549 260 527 171 482 98 c 128
 437 24 370 -12 281 -12 c 0
 148 -12 66 67 34 225 c 1
 109 249 l 1
 124 178 147 130 177 105 c 128
 206 80 242 67 285 67 c 0
 338 67 381 91 415 138 c 128
 448 185 466 248 469 327 c 1
 251 327 l 1
 251 412 l 1
EndSplineSet
EndChar
StartChar: afii10048
Encoding: 1070 1070 458
Width: 819
VWidth: 2048
Flags: W
HStem: -12 81<513 531> 311 84<144 258> 648 80<513 531>
VStem: 66 78<0 311 0 716> 66 268<0 389> 707 80<323 397>
Fore
66 716 m 1xf4
 144 716 l 1
 144 395 l 1
 257 395 l 1
 262 496 290 577 339 637 c 128
 388 698 448 728 521 728 c 0
 595 728 658 696 709 633 c 128
 761 569 787 479 787 362 c 0
 787 246 762 154 712 88 c 128
 663 21 598 -12 519 -12 c 0
 442 -12 382 18 337 79 c 128
 292 140 266 217 258 311 c 1
 144 311 l 1
 144 0 l 1
 66 0 l 1
 66 716 l 1xf4
334 354 m 0xec
 334 264 352 194 386 144 c 128
 420 94 465 69 520 69 c 0
 577 69 622 94 656 144 c 128
 690 194 707 266 707 360 c 0
 707 451 690 522 657 572 c 128
 624 623 579 648 522 648 c 0
 466 648 420 622 386 572 c 128
 352 521 334 448 334 354 c 0xec
EndSplineSet
EndChar
StartChar: afii10066
Encoding: 1073 1073 461
Width: 460
VWidth: 2048
Flags: W
HStem: -12 71<228 247> 446 73<228 246> 627 89<244 330>
VStem: 37 61<363 420> 362 76<243 277>
Fore
366 732 m 1
 430 732 l 1
 427 697 420 672 410 658 c 128
 400 645 387 636 372 633 c 128
 357 629 327 627 283 627 c 0
 224 627 184 621 162 607 c 128
 140 594 125 571 115 540 c 128
 105 508 99 468 98 420 c 1
 134 486 183 519 244 519 c 0
 301 519 347 495 383 448 c 128
 419 401 438 338 438 259 c 0
 438 184 421 120 387 67 c 128
 354 15 305 -12 241 -12 c 0
 194 -12 156 1 127 27 c 128
 99 53 76 89 61 134 c 128
 45 180 37 256 37 363 c 0
 37 503 56 597 94 645 c 128
 131 692 190 716 270 716 c 0
 319 716 347 717 353 719 c 128
 360 722 364 726 366 732 c 1
362 261 m 0
 362 319 351 364 329 397 c 128
 307 430 278 446 242 446 c 0
 202 446 171 428 150 393 c 128
 128 357 118 308 118 245 c 0
 118 183 130 136 154 105 c 128
 179 75 208 59 243 59 c 0
 277 59 305 77 328 114 c 128
 351 150 362 199 362 261 c 0
EndSplineSet
EndChar
StartChar: afii10067
Encoding: 1074 1074 462
Width: 426
VWidth: 2048
Flags: W
HStem: 0 72<126 246> 228 72<126 231> 446 73<54 231>
VStem: 54 72<0 228 0 446> 311 73<367 385> 329 74<143 161>
Fore
54 519 m 1xf4
 220 519 l 2
 258 519 287 515 307 508 c 128
 327 501 345 486 361 464 c 128
 376 441 384 414 384 381 c 0xf8
 384 331 367 294 333 270 c 1
 380 249 403 208 403 145 c 0
 403 105 391 71 368 42 c 128
 344 14 303 0 246 0 c 2
 54 0 l 1
 54 519 l 1xf4
126 300 m 1
 203 300 l 2
 234 300 255 302 266 306 c 128
 278 310 288 318 297 330 c 128
 306 342 311 356 311 374 c 0
 311 401 303 420 287 430 c 128
 271 441 244 446 206 446 c 2
 126 446 l 1
 126 300 l 1
126 72 m 1
 221 72 l 2
 262 72 290 79 306 91 c 128
 321 104 329 123 329 149 c 0xf4
 329 177 321 198 304 210 c 128
 288 222 258 228 214 228 c 2
 126 228 l 1
 126 72 l 1
EndSplineSet
EndChar
StartChar: afii10068
Encoding: 1075 1075 463
Width: 290
VWidth: 2048
Flags: W
HStem: -20 20G<55 126> 446 73<55 299>
VStem: 55 71<0 446>
Fore
55 519 m 1
 299 519 l 1
 299 446 l 1
 126 446 l 1
 126 0 l 1
 55 0 l 1
 55 519 l 1
EndSplineSet
EndChar
StartChar: afii10069
Encoding: 1076 1076 464
Width: 469
VWidth: 2048
Flags: W
HStem: 0 72<107 394> 446 73<111 335>
VStem: 0 60<-147 0> 335 72<72 519> 394 59<-147 72>
Fore
111 519 m 1xe8
 407 519 l 1
 407 72 l 1xf0
 453 72 l 1
 453 -147 l 1
 394 -147 l 1
 394 0 l 1
 60 0 l 1
 60 -147 l 1
 0 -147 l 1
 0 72 l 1
 38 72 l 1
 88 155 112 304 111 519 c 1xe8
171 446 m 1
 166 277 144 153 107 72 c 1
 335 72 l 1
 335 446 l 1
 171 446 l 1
EndSplineSet
EndChar
StartChar: afii10072
Encoding: 1078 1078 466
Width: 539
VWidth: 2048
Flags: W
HStem: -20 20G<-2 77 238 312 472 551> 240 54<225.972 237.969 312 323.438> 519 21G<14 25 238 312 524 535>
VStem: 238 74<0 240 294 519>
Fore
312 519 m 1
 312 294 l 1
 334 294 350 300 360 311 c 128
 369 321 382 353 400 404 c 0
 415 446 426 473 435 486 c 128
 444 499 454 508 465 512 c 128
 476 516 496 519 524 519 c 2
 535 519 l 1
 535 446 l 1
 513 446 l 2
 499 446 488 444 482 439 c 128
 475 434 469 423 464 407 c 0
 448 354 435 321 425 306 c 128
 416 291 401 278 380 266 c 1
 412 256 442 221 472 161 c 2
 551 0 l 1
 472 0 l 1
 395 161 l 2
 379 194 365 215 353 225 c 128
 341 235 327 240 312 240 c 1
 312 0 l 1
 238 0 l 1
 238 240 l 1
 222 240 208 235 196 225 c 128
 185 216 171 194 154 161 c 2
 77 0 l 1
 -2 0 l 1
 77 161 l 2
 107 221 138 256 168 266 c 1
 149 277 134 290 125 303 c 128
 115 317 102 351 85 407 c 0
 80 423 74 434 68 439 c 128
 61 444 50 446 36 446 c 2
 14 446 l 1
 14 519 l 1
 25 519 l 2
 54 519 74 516 86 511 c 128
 98 506 109 496 117 482 c 128
 125 468 138 435 156 383 c 0
 169 344 181 319 190 309 c 128
 199 299 215 294 238 294 c 1
 238 519 l 1
 312 519 l 1
EndSplineSet
EndChar
StartChar: afii10073
Encoding: 1079 1079 467
Width: 375
VWidth: 2048
Flags: W
HStem: -12 71<189 197> 458 72<179 197>
VStem: 256 77<369 389> 274 73<143 164>
Fore
148 234 m 1xd0
 148 303 l 1
 179 304 200 305 211 308 c 128
 222 310 232 318 242 331 c 128
 251 344 256 360 256 380 c 0
 256 404 250 423 237 437 c 128
 224 451 208 458 187 458 c 0
 146 458 118 429 102 371 c 1
 33 384 l 1
 55 482 107 530 188 530 c 0
 233 530 268 515 294 485 c 128
 320 455 333 419 333 376 c 0xe0
 333 336 316 302 283 275 c 1
 325 247 347 204 347 145 c 0
 347 98 333 61 305 32 c 128
 278 3 239 -12 189 -12 c 0
 92 -12 36 41 20 146 c 1
 87 164 l 1
 94 131 106 105 125 87 c 128
 144 68 165 59 189 59 c 0
 214 59 235 67 250 84 c 128
 266 101 274 122 274 148 c 0
 274 169 269 187 259 201 c 128
 249 216 239 225 227 229 c 128
 216 233 198 235 172 235 c 2
 148 234 l 1xd0
EndSplineSet
EndChar
StartChar: afii10074
Encoding: 1080 1080 468
Width: 449
VWidth: 2048
Flags: W
HStem: -20 20G<54 132 332 404> 519 21G<54 126 326 404>
VStem: 54 72<0 519> 332 72<0 519>
Fore
54 519 m 1
 126 519 l 1
 126 123 l 1
 326 519 l 1
 404 519 l 1
 404 0 l 1
 332 0 l 1
 332 393 l 1
 132 0 l 1
 54 0 l 1
 54 519 l 1
EndSplineSet
EndChar
StartChar: afii10076
Encoding: 1082 1082 470
Width: 349
VWidth: 2048
Flags: W
HStem: -20 20G<54 125 286 365> 240 54<125 137.601> 446 73<325 349>
VStem: 54 71<0 240 0 519>
Fore
54 519 m 1
 125 519 l 1
 125 294 l 1
 149 294 165 300 174 311 c 128
 183 322 197 353 215 404 c 0
 229 446 240 473 249 486 c 128
 258 499 268 508 280 512 c 128
 291 516 310 519 338 519 c 2
 349 519 l 1
 349 446 l 1
 328 446 l 2
 312 446 301 444 295 438 c 128
 288 432 283 422 278 407 c 0
 262 354 249 321 240 306 c 128
 230 291 215 278 195 266 c 1
 226 256 256 221 286 161 c 1
 365 0 l 1
 286 0 l 1
 209 161 l 2
 193 193 180 215 168 225 c 128
 156 235 142 240 125 240 c 1
 125 0 l 1
 54 0 l 1
 54 519 l 1
EndSplineSet
EndChar
StartChar: afii10077
Encoding: 1083 1083 471
Width: 469
VWidth: 2048
Flags: W
HStem: -3 77<9 66> 446 73<89 352>
VStem: 89 72<140 446> 352 72<0 519>
Fore
89 519 m 1
 424 519 l 1
 424 0 l 1
 352 0 l 1
 352 446 l 1
 161 446 l 1
 161 188 l 2
 161 129 160 89 156 69 c 128
 153 49 144 32 130 18 c 128
 115 4 94 -3 66 -3 c 0
 49 -3 30 -2 9 0 c 1
 9 74 l 1
 43 74 63 75 69 77 c 128
 76 79 80 84 84 92 c 128
 87 100 89 128 89 177 c 2
 89 519 l 1
EndSplineSet
EndChar
StartChar: afii10078
Encoding: 1084 1084 472
Width: 554
VWidth: 2048
Flags: W
HStem: -20 20G<56 126 246 310 436 508> 519 21G<56 168 404 508>
VStem: 56 70<0 438> 436 72<0 519>
Fore
56 519 m 1
 168 519 l 1
 280 104 l 1
 404 519 l 1
 508 519 l 1
 508 0 l 1
 436 0 l 1
 436 417 l 1
 310 0 l 1
 246 0 l 1
 126 438 l 1
 126 0 l 1
 56 0 l 1
 56 519 l 1
EndSplineSet
EndChar
StartChar: afii10079
Encoding: 1085 1085 473
Width: 443
VWidth: 2048
Flags: W
HStem: -20 20G<54 126 326 398> 230 73<126 326> 519 21G<54 126 326 398>
VStem: 54 72<0 230 0 519> 326 72<0 519>
Fore
54 519 m 1
 126 519 l 1
 126 303 l 1
 326 303 l 1
 326 519 l 1
 398 519 l 1
 398 0 l 1
 326 0 l 1
 326 230 l 1
 126 230 l 1
 126 0 l 1
 54 0 l 1
 54 519 l 1
EndSplineSet
EndChar
StartChar: afii10081
Encoding: 1087 1087 475
Width: 435
VWidth: 2048
Flags: W
HStem: -20 20G<55 126 318 390> 446 73<55 318>
VStem: 55 71<0 446> 318 72<0 519>
Fore
55 519 m 1
 390 519 l 1
 390 0 l 1
 318 0 l 1
 318 446 l 1
 126 446 l 1
 126 0 l 1
 55 0 l 1
 55 519 l 1
EndSplineSet
EndChar
StartChar: afii10084
Encoding: 1090 1090 478
Width: 375
VWidth: 2048
Flags: W
HStem: -20 20G<152 224> 446 73<15 152 15 361>
VStem: 152 72<0 446>
Fore
15 519 m 1
 361 519 l 1
 361 446 l 1
 224 446 l 1
 224 0 l 1
 152 0 l 1
 152 446 l 1
 15 446 l 1
 15 519 l 1
EndSplineSet
EndChar
StartChar: afii10086
Encoding: 1092 1092 480
Width: 665
VWidth: 2048
Flags: W
HStem: -219 20G<302 374> -12 73<196 211 465 479> 458 72<195 211 465 483> 716 21G<302 374>
VStem: 30 74<232 282> 302 72<-199 45 216 282 468 716> 572 73<232 282>
Fore
302 716 m 1
 374 716 l 1
 374 468 l 1
 404 510 439 530 481 530 c 0
 529 530 569 505 599 456 c 128
 630 406 645 341 645 260 c 0
 645 179 629 113 597 63 c 128
 565 13 526 -12 479 -12 c 0
 440 -12 405 7 374 45 c 1
 374 -199 l 1
 302 -199 l 1
 302 45 l 1
 273 7 238 -12 197 -12 c 0
 148 -12 108 14 77 65 c 128
 46 117 30 183 30 265 c 0
 30 322 38 372 55 412 c 128
 71 453 92 483 116 502 c 128
 140 521 167 530 197 530 c 0
 240 530 274 510 302 468 c 1
 302 716 l 1
374 251 m 0
 374 123 405 60 467 60 c 0
 497 60 522 77 542 111 c 128
 562 145 572 196 572 263 c 0
 572 329 563 378 543 410 c 128
 524 442 500 458 470 458 c 0
 406 458 374 389 374 251 c 0
104 260 m 0
 104 189 114 138 135 107 c 128
 156 76 181 61 209 61 c 0
 271 61 302 125 302 253 c 0
 302 390 269 458 204 458 c 0
 176 458 152 442 133 409 c 128
 113 377 104 327 104 260 c 0
EndSplineSet
EndChar
StartChar: afii10088
Encoding: 1094 1094 482
Width: 460
VWidth: 2048
Flags: W
HStem: -219 20G<386 445> 0 72<126 386> 519 21G<55 127 327 399>
VStem: 55 72<0 519> 327 72<72 519> 386 59<-199 72>
Fore
55 519 m 1xf4
 127 519 l 1
 127 72 l 1
 327 72 l 1
 327 519 l 1
 399 519 l 1
 399 72 l 1xf8
 445 72 l 1
 445 -199 l 1
 386 -199 l 1
 386 0 l 1
 55 0 l 1
 55 519 l 1xf4
EndSplineSet
EndChar
StartChar: afii10089
Encoding: 1095 1095 483
Width: 418
VWidth: 2048
Flags: W
HStem: -20 20G<301 373> 184 73<176 196> 519 21G<27 99 301 373>
VStem: 27 72<381 519> 301 72<0 519>
Fore
27 519 m 1
 99 519 l 1
 99 420 l 2
 99 377 101 346 106 326 c 128
 111 307 121 290 137 277 c 128
 153 264 172 257 194 257 c 0
 222 257 257 266 301 284 c 1
 301 519 l 1
 373 519 l 1
 373 0 l 1
 301 0 l 1
 301 209 l 1
 256 192 215 184 176 184 c 0
 134 184 99 200 70 233 c 128
 42 266 27 316 27 383 c 2
 27 519 l 1
EndSplineSet
EndChar
StartChar: afii10090
Encoding: 1096 1096 484
Width: 648
VWidth: 2048
Flags: W
HStem: 0 73<127 601> 519 21G<57 128 293 365 529 601>
VStem: 57 71<0 519> 293 72<73 519> 529 72<73 519>
Fore
57 519 m 1
 128 519 l 1
 128 73 l 1
 293 73 l 1
 293 519 l 1
 365 519 l 1
 365 73 l 1
 529 73 l 1
 529 519 l 1
 601 519 l 1
 601 0 l 1
 57 0 l 1
 57 519 l 1
EndSplineSet
EndChar
StartChar: afii10091
Encoding: 1097 1097 485
Width: 665
VWidth: 2048
Flags: W
HStem: -219 20G<589 648> 0 72<127 589> 519 21G<56 128 292 365 529 601>
VStem: 56 72<0 519> 292 73<72 519> 529 72<72 519> 589 59<-199 72>
Fore
56 519 m 1xfa
 128 519 l 1
 128 72 l 1
 292 72 l 1
 292 519 l 1
 365 519 l 1
 365 72 l 1
 529 72 l 1
 529 519 l 1
 601 519 l 1
 601 72 l 1xfc
 648 72 l 1
 648 -199 l 1
 589 -199 l 1
 589 0 l 1
 56 0 l 1
 56 519 l 1xfa
EndSplineSet
EndChar
StartChar: afii10092
Encoding: 1098 1098 486
Width: 503
VWidth: 2048
Flags: W
HStem: 0 71<206 314> 243 73<206 316> 446 73<0 134>
VStem: 134 72<0 243 0 519> 409 74<157 161>
Fore
0 519 m 1
 206 519 l 1
 206 316 l 1
 298 316 l 2
 354 316 399 302 433 276 c 128
 466 249 483 209 483 157 c 0
 483 115 470 79 444 47 c 128
 418 16 375 0 314 0 c 2
 134 0 l 1
 134 446 l 1
 0 446 l 1
 0 519 l 1
206 71 m 1
 282 71 l 2
 337 71 372 80 386 97 c 128
 401 115 409 135 409 157 c 0
 409 185 400 206 383 221 c 128
 366 235 335 243 292 243 c 2
 206 243 l 1
 206 71 l 1
EndSplineSet
EndChar
StartChar: afii10094
Encoding: 1100 1100 488
Width: 418
VWidth: 2048
Flags: W
HStem: 0 72<125 233> 243 73<125 235> 519 21G<53 125>
VStem: 53 72<0 243 0 519> 328 74<144.215 160>
Fore
53 519 m 1
 125 519 l 1
 125 316 l 1
 216 316 l 2
 282 316 329 300 358 270 c 128
 387 239 402 201 402 157 c 0
 402 116 389 79 363 47 c 128
 336 16 293 0 233 0 c 2
 53 0 l 1
 53 519 l 1
125 72 m 1
 200 72 l 2
 255 72 290 81 305 99 c 128
 320 116 328 136 328 157 c 0
 328 184 319 206 302 221 c 128
 285 236 254 243 210 243 c 2
 125 243 l 1
 125 72 l 1
EndSplineSet
EndChar
StartChar: afii10095
Encoding: 1101 1101 489
Width: 409
VWidth: 2048
Flags: W
HStem: -12 73<194 213> 229 73<165 314> 458 72<182.261 213>
Fore
165 302 m 1
 314 302 l 1
 311 346 298 383 278 413 c 128
 258 443 231 458 198 458 c 0
 142 458 109 422 97 352 c 1
 27 365 l 1
 32 413 50 452 80 483 c 128
 110 515 149 530 196 530 c 0
 256 530 303 506 337 458 c 128
 372 409 389 343 389 259 c 0
 389 176 372 111 338 62 c 128
 304 13 259 -12 203 -12 c 0
 150 -12 108 6 77 42 c 128
 46 77 27 123 20 178 c 1
 90 189 l 1
 101 104 137 61 198 61 c 0
 267 61 306 117 314 229 c 1
 165 229 l 1
 165 302 l 1
EndSplineSet
EndChar
StartChar: afii10096
Encoding: 1102 1102 490
Width: 605
VWidth: 2048
Flags: W
HStem: -12 73<396 408> 229 73<126 214> 456 74<390 408>
VStem: 55 71<0 229 0 519> 508 74<227 277>
Fore
55 519 m 1
 126 519 l 1
 126 302 l 1
 214 302 l 1
 228 454 289 530 397 530 c 0
 453 530 498 507 531 459 c 128
 565 411 582 346 582 261 c 0
 582 173 565 105 532 58 c 128
 499 12 454 -12 396 -12 c 0
 342 -12 299 10 268 53 c 128
 237 96 219 155 214 229 c 1
 126 229 l 1
 126 0 l 1
 55 0 l 1
 55 519 l 1
398 456 m 0
 363 456 335 439 316 406 c 128
 296 373 287 327 287 267 c 0
 287 196 296 144 316 111 c 128
 335 77 362 61 396 61 c 0
 426 61 453 75 475 104 c 128
 497 133 508 183 508 255 c 0
 508 389 471 456 398 456 c 0
EndSplineSet
EndChar
StartChar: afii10097
Encoding: 1103 1103 491
Width: 435
VWidth: 2048
Flags: W
HStem: -20 20G<13 102 317 389> 202 72<238 317> 446 73<190 317>
VStem: 40 73<351 369> 317 72<0 519>
Fore
389 519 m 1
 389 0 l 1
 317 0 l 1
 317 202 l 1
 275 202 l 2
 251 202 232 198 220 190 c 128
 207 183 189 157 165 113 c 2
 102 0 l 1
 13 0 l 1
 90 140 l 2
 114 182 138 206 161 212 c 1
 120 219 90 237 70 266 c 128
 50 295 40 329 40 367 c 0
 40 415 53 452 80 479 c 128
 107 505 144 519 192 519 c 2
 389 519 l 1
317 446 m 1
 215 446 l 2
 172 446 144 438 132 421 c 128
 119 405 113 386 113 364 c 0
 113 333 122 310 141 296 c 128
 159 282 192 274 238 274 c 2
 317 274 l 1
 317 446 l 1
EndSplineSet
EndChar
StartChar: afii10099
Encoding: 1106 1106 493
Width: 447
VWidth: 2048
Flags: W
HStem: -210 77<284 297> 0 21G<56 127> 455 75<237 256> 594 58<2 56 127 265> 716 21G<56 127>
VStem: 56 71<0 303 0 594 652 716> 330 72<-51 351>
Fore
56 594 m 1
 2 594 l 1
 2 652 l 1
 56 652 l 1
 56 716 l 1
 127 716 l 1
 127 652 l 1
 265 652 l 1
 265 594 l 1
 127 594 l 1
 127 458 l 1
 160 506 203 530 256 530 c 0
 302 530 337 516 363 486 c 128
 389 457 402 404 402 329 c 2
 402 -28 l 2
 402 -104 392 -153 372 -176 c 128
 353 -199 327 -210 295 -210 c 0
 275 -210 256 -207 239 -201 c 1
 252 -126 l 1
 266 -131 278 -133 286 -133 c 0
 303 -133 315 -127 321 -113 c 128
 327 -100 330 -71 330 -26 c 2
 330 329 l 2
 330 413 300 455 241 455 c 0
 209 455 182 442 160 417 c 128
 138 392 127 347 127 284 c 2
 127 0 l 1
 56 0 l 1
 56 594 l 1
EndSplineSet
EndChar
StartChar: afii10101
Encoding: 1108 1108 495
Width: 409
VWidth: 2048
Flags: W
HStem: -12 73<205 225> 229 73<104 254> 458 72<215 225>
Fore
254 302 m 1
 254 229 l 1
 104 229 l 1
 113 117 152 61 221 61 c 0
 281 61 317 104 329 189 c 1
 399 178 l 1
 392 122 372 76 341 41 c 128
 310 6 268 -12 217 -12 c 0
 159 -12 113 13 80 63 c 128
 47 112 30 178 30 259 c 0
 30 347 48 413 83 460 c 128
 119 507 165 530 223 530 c 0
 270 530 309 515 339 484 c 128
 369 453 387 413 392 365 c 1
 322 352 l 1
 310 422 276 458 220 458 c 0
 188 458 162 443 142 415 c 128
 122 386 109 348 104 302 c 1
 254 302 l 1
EndSplineSet
EndChar
StartChar: afii10106
Encoding: 1113 1113 500
Width: 734
VWidth: 2048
Flags: W
HStem: -3 70<39 63> 243 73<438 547> 446 73<94 366>
VStem: 94 72<155 446> 366 72<0 243 0 519> 640 75<140.995 160>
Fore
438 519 m 1
 438 316 l 1
 529 316 l 2
 595 316 642 300 671 270 c 128
 700 239 715 201 715 157 c 0
 715 115 702 79 676 47 c 128
 649 16 606 0 545 0 c 2
 366 0 l 1
 366 446 l 1
 166 446 l 1
 166 188 l 2
 166 114 159 64 146 37 c 128
 134 10 106 -3 63 -3 c 0
 56 -3 37 -2 8 0 c 1
 8 72 l 1
 27 69 42 67 52 67 c 0
 69 67 80 73 85 86 c 128
 91 98 94 129 94 177 c 2
 94 519 l 1
 438 519 l 1
438 72 m 1
 513 72 l 2
 558 72 590 79 610 92 c 128
 630 105 640 126 640 157 c 0
 640 185 631 207 614 221 c 128
 597 236 566 243 523 243 c 2
 438 243 l 1
 438 72 l 1
EndSplineSet
EndChar
StartChar: afii10107
Encoding: 1114 1114 501
Width: 657
VWidth: 2048
Flags: W
HStem: 0 69<360 469> 230 73<124 289 360 471> 519 21G<52 124 289 360>
VStem: 52 72<0 230 0 519> 289 71<0 230 303 519> 563 75<143 161>
Fore
360 303 m 1
 452 303 l 2
 510 303 556 289 589 263 c 128
 621 236 638 199 638 151 c 0
 638 108 624 72 597 43 c 128
 569 14 527 0 469 0 c 2
 289 0 l 1
 289 230 l 1
 124 230 l 1
 124 0 l 1
 52 0 l 1
 52 519 l 1
 124 519 l 1
 124 303 l 1
 289 303 l 1
 289 519 l 1
 360 519 l 1
 360 303 l 1
360 69 m 1
 436 69 l 2
 491 69 526 77 541 94 c 128
 556 110 563 128 563 148 c 0
 563 170 556 189 542 206 c 128
 527 222 495 230 446 230 c 2
 360 230 l 1
 360 69 l 1
EndSplineSet
EndChar
StartChar: afii10108
Encoding: 1115 1115 502
Width: 447
VWidth: 2048
Flags: W
HStem: -20 20G<56 127 330 402> 455 75<239 256> 594 58<2 56 127 265> 716 21G<56 127>
VStem: 56 71<0 305 0 594 652 716> 330 72<0 353>
Fore
56 652 m 1
 56 716 l 1
 127 716 l 1
 127 652 l 1
 265 652 l 1
 265 594 l 1
 127 594 l 1
 127 458 l 1
 160 506 203 530 256 530 c 0
 302 530 337 516 363 486 c 128
 389 457 402 404 402 329 c 2
 402 0 l 1
 330 0 l 1
 330 329 l 2
 330 413 300 455 241 455 c 0
 209 455 182 442 160 417 c 128
 138 392 127 347 127 284 c 2
 127 0 l 1
 56 0 l 1
 56 594 l 1
 2 594 l 1
 2 652 l 1
 56 652 l 1
EndSplineSet
EndChar
StartChar: afii10193
Encoding: 1119 1119 505
Width: 443
VWidth: 2048
Flags: W
HStem: -219 20G<196 256> 0 72<125 196 126 398> 519 21G<54 126 326 398>
VStem: 54 72<0 519> 196 60<-199 0> 326 72<72 519>
CounterMasks: 1 00
Fore
256 0 m 1
 256 -199 l 1
 196 -199 l 1
 196 0 l 1
 54 0 l 1
 54 519 l 1
 126 519 l 1
 126 72 l 1
 326 72 l 1
 326 519 l 1
 398 519 l 1
 398 0 l 1
 256 0 l 1
EndSplineSet
EndChar
StartChar: afii10050
Encoding: 1168 1168 506
Width: 396
VWidth: 2048
Flags: W
HStem: -20 20G<64 142> 631 85<64 406>
VStem: 64 78<0 631> 336 70<716 882>
Fore
336 716 m 1
 336 882 l 1
 406 882 l 1
 406 631 l 1
 142 631 l 1
 142 0 l 1
 64 0 l 1
 64 716 l 1
 336 716 l 1
EndSplineSet
EndChar
StartChar: afii10098
Encoding: 1169 1169 507
Width: 261
VWidth: 2048
Flags: W
HStem: -20 20G<55 127> 446 73<55 270>
VStem: 55 72<0 446> 210 60<519 666>
Fore
210 519 m 1
 210 666 l 1
 270 666 l 1
 270 446 l 1
 127 446 l 1
 127 0 l 1
 55 0 l 1
 55 519 l 1
 210 519 l 1
EndSplineSet
EndChar
StartChar: uni0531
Encoding: 1329 1329 508
Width: 533
VWidth: 2048
Flags: W
HStem: -9 24<246 264> 0 164<470 575> 140 24<440 470> 644 20<23 63 278 321>
VStem: 80 88<155 678> 336 89<157 678>
Fore
575 0 m 1x5c
 486 0 l 1x5c
 486 94 l 2
 486 108 482 118 473 127 c 128
 464 136 453 140 440 140 c 0
 436 140 429 138 418 135 c 1
 410 90 391 56 360 30 c 128
 329 4 294 -9 257 -9 c 0
 208 -9 166 8 131 43 c 128
 97 77 80 121 80 175 c 2
 80 625 l 2
 80 638 72 644 57 644 c 2
 23 644 l 1
 23 664 l 1
 60 664 l 2
 69 664 79 665 90 666 c 128
 101 667 111 668 120 670 c 2
 149 678 l 1
 168 678 l 1
 168 143 l 2
 168 58 197 15 253 15 c 0xbc
 309 15 336 62 336 157 c 2
 336 630 l 2
 336 639 329 644 315 644 c 2
 278 644 l 1
 278 664 l 1
 318 664 l 2
 324 664 333 665 344 666 c 128
 355 667 366 669 376 671 c 2
 406 678 l 1
 425 678 l 1
 425 161 l 1
 436 163 451 164 470 164 c 0
 501 164 526 155 546 138 c 128
 565 120 575 97 575 68 c 2
 575 0 l 1x5c
EndSplineSet
EndChar
StartChar: uni0532
Encoding: 1330 1330 509
Width: 444
VWidth: 2048
Flags: W
HStem: -21 20G<83 172> 230 121<172 447> 328 23<172 324> 661 24<242 259>
VStem: 83 89<-1 328 -1 538>
Fore
447 230 m 1xd8
 359 230 l 1xd8
 359 292 l 2
 359 305 356 315 350 320 c 128
 344 326 333 328 319 328 c 2
 172 328 l 1xb8
 172 -1 l 1
 83 -1 l 1
 83 484 l 2
 83 545 100 594 133 631 c 128
 167 667 208 685 257 685 c 0
 307 685 348 667 382 631 c 128
 415 595 433 547 435 487 c 1
 348 487 l 1
 348 530 345 563 339 586 c 128
 333 609 324 628 310 641 c 128
 296 654 278 661 256 661 c 0
 229 661 208 650 194 629 c 128
 179 607 172 577 172 538 c 2
 172 351 l 1
 360 351 l 2
 418 351 447 323 447 266 c 2
 447 230 l 1xd8
EndSplineSet
EndChar
StartChar: uni0533
Encoding: 1331 1331 510
Width: 489
VWidth: 2048
Flags: W
HStem: -21 20G<278 367> 230 119<367 523> 326 23<199 278 367 418> 660 24<187 208>
VStem: 29 88<478 519> 278 89<-1 326 349 521>
Fore
523 230 m 1xdc
 435 230 l 1xdc
 435 305 l 2
 435 319 429 326 416 326 c 2
 367 326 l 1
 367 -1 l 1
 278 -1 l 1
 278 326 l 1
 188 326 l 2xbc
 138 326 99 340 71 367 c 128
 43 394 29 432 29 481 c 0
 29 539 45 587 77 626 c 128
 109 665 152 684 206 684 c 0
 255 684 294 667 323 631 c 128
 352 596 367 553 367 502 c 2
 367 349 l 1
 453 349 l 2
 471 349 488 342 502 329 c 128
 516 315 523 299 523 279 c 2
 523 230 l 1xdc
278 349 m 1xbc
 278 536 l 2
 278 619 252 660 200 660 c 0
 175 660 155 648 140 624 c 128
 125 599 117 564 117 519 c 0
 117 442 125 394 142 376 c 128
 158 358 184 349 218 349 c 2
 278 349 l 1xbc
EndSplineSet
EndChar
StartChar: uni0534
Encoding: 1332 1332 511
Width: 489
VWidth: 2048
Flags: W
HStem: -21 20G<280 368> 230 121<368 524> 328 23<368 417> 660 24<191 208>
VStem: 32 86<487 511.393> 280 88<-1 328 -1 512>
Fore
524 230 m 1xdc
 437 230 l 1xdc
 437 299 l 2
 437 318 428 328 412 328 c 2
 368 328 l 1xbc
 368 -1 l 1
 280 -1 l 1
 280 543 l 2
 280 579 273 607 259 628 c 128
 246 650 226 660 202 660 c 0
 178 660 158 648 142 625 c 128
 126 602 118 572 118 535 c 2
 118 487 l 1
 32 487 l 1
 32 545 48 592 81 629 c 128
 113 666 155 684 206 684 c 0
 256 684 296 667 325 632 c 128
 354 598 368 552 368 494 c 2
 368 351 l 1
 443 351 l 2
 470 351 490 344 504 331 c 128
 518 317 524 299 524 277 c 2
 524 230 l 1xdc
EndSplineSet
EndChar
StartChar: uni0535
Encoding: 1333 1333 512
Width: 444
VWidth: 2048
Flags: W
HStem: -11 24<251 270> 448 29<268 302> 642 20<28 65>
VStem: 85 89<164 433 172 677> 341 88<129 216>
Fore
435 316 m 1
 347 316 l 1
 347 354 l 2
 347 384 340 407 326 424 c 128
 312 440 293 448 268 448 c 0
 249 448 218 443 174 433 c 1
 174 141 l 2
 174 56 201 13 256 13 c 0
 282 13 302 23 317 44 c 128
 333 65 341 93 341 129 c 2
 341 216 l 1
 429 216 l 1
 429 174 l 2
 429 121 412 77 380 42 c 128
 347 7 307 -11 258 -11 c 0
 211 -11 170 6 136 41 c 128
 102 76 85 119 85 172 c 2
 85 620 l 2
 85 629 83 635 79 638 c 128
 75 641 67 642 57 642 c 2
 28 642 l 1
 28 662 l 1
 63 662 l 2
 72 662 82 663 95 664 c 128
 107 666 118 668 127 670 c 2
 153 677 l 1
 174 677 l 1
 174 456 l 1
 237 470 280 477 302 477 c 0
 343 477 375 464 399 437 c 128
 423 410 435 370 435 316 c 1
EndSplineSet
EndChar
StartChar: uni0536
Encoding: 1334 1334 513
Width: 444
VWidth: 2048
Flags: W
HStem: -1 21G<52 140> 264 30<259 287> 668 24<255 271>
VStem: 52 88<-1 79 -1 139> 66 88<457 491> 362 85<384 445>
Fore
474 -22 m 1xec
 386 -22 l 1
 382 0 372 18 356 31 c 128
 340 45 318 53 290 58 c 2
 140 79 l 1
 140 -1 l 1
 52 -1 l 1
 52 139 l 1
 140 139 l 1
 140 102 l 1xf4
 238 88 l 1
 299 129 338 195 356 286 c 1
 328 271 295 264 259 264 c 0
 205 264 160 284 122 322 c 128
 85 361 66 413 66 477 c 0
 66 542 84 594 121 633 c 128
 158 672 203 692 257 692 c 0
 316 692 362 670 396 626 c 128
 430 582 447 521 447 445 c 0
 447 368 434 302 406 246 c 128
 379 190 333 136 269 84 c 1
 338 76 389 64 420 48 c 128
 451 31 469 8 474 -22 c 1xec
358 310 m 1
 361 331 362 355 362 384 c 0
 362 498 352 574 333 611 c 128
 314 649 290 668 260 668 c 0
 228 668 202 652 183 619 c 128
 164 586 154 538 154 475 c 0xec
 154 418 167 374 191 342 c 128
 215 310 247 294 287 294 c 0
 310 294 334 299 358 310 c 1
EndSplineSet
EndChar
StartChar: uni0537
Encoding: 1335 1335 514
Width: 355
VWidth: 2048
Flags: W
HStem: -185 22<170 186.891> -6 23<171 202> 445 27<215 250> 638 20<25 61>
VStem: 83 88<-6 438 -6 671> 260 77<-80 -64>
Fore
379 312 m 1
 290 312 l 1
 290 365 l 2
 290 391 283 410 268 424 c 128
 253 438 235 445 215 445 c 0
 205 445 191 443 171 438 c 1
 171 17 l 1
 235 17 l 2
 266 17 290 9 309 -6 c 128
 328 -22 337 -42 337 -66 c 0
 337 -85 334 -102 327 -117 c 128
 319 -133 308 -146 293 -157 c 128
 278 -168 262 -175 244 -179 c 128
 226 -183 202 -185 170 -185 c 1
 170 -163 l 1
 199 -163 221 -155 237 -139 c 128
 252 -122 260 -102 260 -78 c 0
 260 -55 254 -38 242 -25 c 128
 229 -12 211 -6 188 -6 c 2
 83 -6 l 1
 83 614 l 2
 83 624 81 631 78 634 c 128
 75 637 68 638 59 638 c 2
 25 638 l 1
 25 658 l 1
 59 658 l 2
 68 658 79 659 91 660 c 128
 102 661 112 662 122 665 c 2
 148 671 l 1
 171 671 l 1
 171 462 l 1
 194 469 220 472 250 472 c 0
 288 472 319 460 343 435 c 128
 367 409 379 378 379 340 c 2
 379 312 l 1
EndSplineSet
EndChar
StartChar: uni0538
Encoding: 1336 1336 515
Width: 444
VWidth: 2048
Flags: W
HStem: -1 23<171 292> 660 24<242 260>
VStem: 83 88<-1 534> 355 88<-96 -74.9636>
Fore
443 -96 m 1
 355 -96 l 1
 355 -64 350 -40 341 -24 c 128
 331 -9 311 -1 279 -1 c 2
 83 -1 l 1
 83 487 l 2
 83 548 99 596 133 631 c 128
 167 666 208 684 256 684 c 0
 305 684 346 667 379 631 c 128
 413 596 431 548 435 486 c 1
 347 486 l 1
 347 530 344 564 337 588 c 128
 331 611 320 629 306 642 c 128
 292 654 274 660 254 660 c 0
 199 660 171 618 171 534 c 2
 171 22 l 1
 337 22 l 2
 366 22 390 13 412 -5 c 128
 432 -23 443 -54 443 -96 c 1
EndSplineSet
EndChar
StartChar: uni0539
Encoding: 1337 1337 516
Width: 632
VWidth: 2048
Flags: W
HStem: -20 20G<91 179> 104 24<373 383> 415 23<358 424 512 529.39> 659 24<282 318>
VStem: 91 88<0 552> 253 64<246 315> 424 88<239 415 437 513> 586 85<281 312>
Fore
671 281 m 1
 585 281 l 1
 586 291 586 301 586 310 c 0
 586 336 583 358 577 374 c 128
 572 390 564 401 555 406 c 128
 545 412 531 415 512 415 c 1
 512 264 l 2
 512 209 500 169 477 143 c 128
 454 117 422 104 381 104 c 0
 296 104 253 161 253 276 c 0
 253 332 261 373 278 399 c 128
 295 425 322 438 358 438 c 2
 424 438 l 1
 424 532 l 2
 424 573 414 604 392 626 c 128
 371 648 340 659 301 659 c 0
 262 659 233 649 211 629 c 128
 190 608 179 582 179 550 c 2
 179 0 l 1
 91 0 l 1
 91 533 l 2
 91 589 108 628 143 650 c 128
 177 672 232 683 309 683 c 0
 374 683 424 667 459 633 c 128
 495 600 512 552 512 490 c 2
 512 438 l 1
 543 438 568 435 586 430 c 128
 604 424 620 415 634 401 c 128
 647 387 657 371 663 354 c 128
 669 335 671 311 671 281 c 1
424 246 m 2
 424 415 l 1
 390 415 l 2
 364 415 346 407 334 392 c 128
 323 376 317 350 317 315 c 2
 317 233 l 2
 317 163 336 128 375 128 c 0
 392 128 405 136 413 151 c 128
 420 166 424 198 424 246 c 2
EndSplineSet
EndChar
StartChar: uni053A
Encoding: 1338 1338 517
Width: 533
VWidth: 2048
Flags: W
HStem: -11 24<217 235> 230 121<398 570> 328 23<219 310 397 443> 644 20<252 289>
VStem: 42 89<170 198> 310 88<138 328 350 678>
Fore
570 230 m 1xdc
 482 230 l 1xdc
 482 276 l 2
 482 311 467 328 438 328 c 2
 398 328 l 1
 398 193 l 2
 398 137 382 89 350 49 c 128
 318 9 275 -11 220 -11 c 0
 170 -11 128 8 94 48 c 128
 60 87 42 135 42 192 c 0
 42 242 59 282 92 310 c 128
 125 337 169 351 224 351 c 2
 310 351 l 1xbc
 310 623 l 2
 310 637 302 644 287 644 c 2
 252 644 l 1
 252 664 l 1
 318 664 l 2
 323 664 329 665 337 666 c 128
 344 667 352 669 359 671 c 1
 379 678 l 1
 398 678 l 1
 398 351 l 1
 488 351 l 2
 512 351 532 344 547 329 c 128
 562 314 570 295 570 273 c 2
 570 230 l 1xdc
310 138 m 2
 310 328 l 1
 239 328 l 2xbc
 198 328 170 316 155 292 c 128
 139 268 131 228 131 172 c 0
 131 66 162 13 224 13 c 0
 250 13 271 24 286 47 c 128
 302 69 310 99 310 138 c 2
EndSplineSet
EndChar
StartChar: uni053B
Encoding: 1339 1339 518
Width: 444
VWidth: 2048
Flags: W
HStem: -22 20G<80 168> 447 29<304 346> 641 20<22 58>
VStem: 80 88<-2 427 -2 676>
Fore
468 249 m 1
 379 249 l 1
 379 328 l 2
 379 366 373 395 360 416 c 128
 347 437 328 447 304 447 c 0
 297 447 278 445 247 440 c 128
 216 436 190 431 168 427 c 1
 168 -2 l 1
 80 -2 l 1
 80 618 l 2
 80 629 78 636 75 638 c 128
 72 640 65 641 56 641 c 2
 22 641 l 1
 22 661 l 1
 55 661 l 2
 62 661 69 661 78 662 c 128
 86 663 94 664 103 665 c 128
 111 666 119 668 126 670 c 2
 147 676 l 1
 168 676 l 1
 168 451 l 1
 245 464 289 471 300 473 c 128
 310 475 326 476 346 476 c 0
 381 476 410 461 433 430 c 128
 456 400 468 363 468 321 c 2
 468 249 l 1
EndSplineSet
EndChar
StartChar: uni053C
Encoding: 1340 1340 519
Width: 311
VWidth: 2048
Flags: W
HStem: -185 21<165 194> -6 23<164 194> 635 23<26 59>
VStem: 76 89<-6 672> 255 77<-80 -67>
Fore
165 17 m 1
 228 17 l 2
 260 17 285 9 304 -7 c 128
 323 -22 332 -43 332 -69 c 0
 332 -98 320 -125 297 -149 c 128
 274 -173 239 -185 192 -185 c 2
 165 -185 l 1
 165 -164 l 1
 194 -163 217 -155 232 -139 c 128
 247 -123 255 -103 255 -78 c 0
 255 -55 248 -38 235 -25 c 128
 222 -12 204 -6 181 -6 c 2
 76 -6 l 1
 76 615 l 2
 76 623 75 628 72 631 c 128
 70 633 62 635 49 635 c 2
 26 635 l 1
 26 658 l 1
 44 658 l 2
 55 658 64 659 74 659 c 128
 83 660 92 660 101 662 c 128
 110 663 118 664 125 666 c 2
 143 672 l 1
 165 672 l 1
 165 17 l 1
EndSplineSet
EndChar
StartChar: uni053D
Encoding: 1341 1341 520
Width: 489
VWidth: 2048
Flags: W
HStem: -12 24<365 377> 364 20<167 180 366 391> 641 23<22 61>
VStem: 78 89<-1 364 -1 676> 413 88<67 353>
Fore
501 153 m 2
 501 101 490 60 466 31 c 128
 442 2 412 -12 375 -12 c 0
 319 -12 283 26 268 101 c 1
 224 315 l 1
 220 331 215 343 207 351 c 128
 198 360 185 364 167 364 c 1
 167 -1 l 1
 78 -1 l 1
 78 625 l 2
 78 636 72 641 59 641 c 2
 22 641 l 1
 22 664 l 1
 74 664 l 2
 82 664 91 664 101 665 c 128
 110 666 119 668 126 670 c 2
 149 676 l 1
 167 676 l 1
 167 384 l 1
 178 384 l 2
 211 384 234 378 247 367 c 128
 261 355 270 337 275 312 c 1
 324 82 l 1
 329 57 335 39 343 28 c 128
 350 18 361 12 374 12 c 0
 386 12 396 17 402 26 c 128
 409 36 413 50 413 67 c 2
 413 343 l 2
 413 353 411 359 407 361 c 128
 404 363 396 364 386 364 c 2
 366 364 l 1
 366 384 l 1
 414 384 l 2
 435 384 452 385 467 388 c 128
 481 390 492 392 501 392 c 1
 501 153 l 2
EndSplineSet
EndChar
StartChar: uni053E
Encoding: 1342 1342 521
Width: 587
VWidth: 2048
Flags: W
HStem: -11 24<307 325> 547 23<147 225 157 325 157 517> 547 129<36 124>
VStem: 36 88<591 676> 125 93<180 434> 407 94<113 374>
Fore
627 442 m 1xdc
 540 442 l 1
 540 517 l 2
 540 529 538 537 534 541 c 128
 530 545 522 547 509 547 c 2
 404 547 l 1
 440 522 465 494 480 464 c 128
 494 434 501 395 501 347 c 2
 501 189 l 2
 501 135 483 88 447 48 c 128
 411 9 367 -11 315 -11 c 0
 264 -11 219 8 181 48 c 128
 143 87 125 137 125 199 c 2
 125 358 l 2
 125 445 158 508 225 547 c 1xdc
 111 547 l 2
 61 547 36 566 36 604 c 2
 36 676 l 1
 124 676 l 1xbc
 124 591 l 2
 124 577 135 570 157 570 c 2
 554 570 l 2
 577 570 595 564 608 554 c 128
 621 543 627 527 627 507 c 2
 627 442 l 1xdc
407 113 m 2
 407 433 l 2
 407 468 399 495 381 516 c 128
 364 536 341 546 312 546 c 0
 285 546 262 536 245 515 c 128
 227 495 218 468 218 434 c 2
 218 135 l 2
 218 92 228 61 247 42 c 128
 266 23 289 13 314 13 c 0
 340 13 362 23 380 42 c 128
 398 62 407 85 407 113 c 2
EndSplineSet
EndChar
StartChar: uni053F
Encoding: 1343 1343 522
Width: 444
VWidth: 2048
Flags: W
HStem: -22 20G<341 430> 225 24<259 271> 458 23<285 322> 640 23<30 64>
VStem: 85 89<381 622> 341 89<-2 495>
Fore
430 -2 m 1
 341 -2 l 1
 341 253 l 1
 315 234 288 225 259 225 c 0
 206 225 164 243 133 278 c 128
 101 314 85 355 85 401 c 2
 85 620 l 2
 85 633 77 640 62 640 c 2
 30 640 l 1
 30 663 l 1
 60 663 l 2
 73 663 85 664 96 665 c 128
 108 666 118 667 127 669 c 2
 153 676 l 1
 174 676 l 1
 174 383 l 2
 174 294 202 249 259 249 c 0
 285 249 305 258 319 276 c 128
 334 294 341 318 341 347 c 2
 341 442 l 2
 341 453 333 458 318 458 c 2
 285 458 l 1
 285 481 l 1
 310 481 l 2
 326 481 341 481 354 482 c 128
 367 484 378 486 387 488 c 2
 411 495 l 1
 430 495 l 1
 430 -2 l 1
EndSplineSet
EndChar
StartChar: uni0540
Encoding: 1344 1344 523
Width: 355
VWidth: 2048
Flags: W
VStem: 359 20<-46 41>
Fore
91 94 m 1
 255 90 341 88 350 88 c 128
 359 87 367 84 373 79 c 128
 378 74 381 62 381 41 c 1
 379 -61 l 1
 357 -61 l 1
 359 -45 359 -34 359 -26 c 0
 359 -19 359 -13 357 -10 c 128
 356 -6 354 -4 352 -3 c 128
 349 -2 331 -1 298 0 c 2
 26 8 l 1
 26 43 l 1
 268 480 l 1
 181 511 134 528 127 531 c 128
 121 534 117 540 117 548 c 0
 117 555 120 564 126 576 c 2
 188 690 l 1
 214 690 l 1
 191 648 180 626 178 623 c 128
 177 620 176 617 176 614 c 0
 176 611 178 608 181 605 c 128
 184 603 201 596 233 584 c 2
 341 546 l 1
 91 94 l 1
EndSplineSet
EndChar
StartChar: uni0541
Encoding: 1345 1345 524
Width: 444
VWidth: 2048
Flags: W
HStem: -11 24<122 147> -10 72<392 431> 116 70<86 124> 261 34<257 289> 665 24<249 259>
VStem: 29 27<75 89> 64 88<480 502> 361 85<403 444>
Fore
479 59 m 1x7f
 469 38 455 21 438 9 c 128
 422 -4 406 -10 392 -10 c 0x7f
 378 -10 361 -6 342 1 c 128
 323 8 293 22 251 43 c 1
 211 7 173 -11 136 -11 c 0xbf
 104 -11 78 -1 59 19 c 128
 39 39 29 62 29 89 c 0
 29 117 38 140 57 158 c 128
 76 177 98 186 124 186 c 0
 141 186 160 181 180 172 c 2
 287 122 l 1
 329 182 351 236 354 284 c 1
 317 269 285 261 257 261 c 0
 201 261 154 282 118 324 c 128
 82 366 64 418 64 480 c 0
 64 539 82 588 118 628 c 128
 154 669 201 689 257 689 c 0
 315 689 361 667 395 622 c 128
 429 577 446 517 446 442 c 0
 446 380 436 324 417 273 c 128
 396 223 362 168 312 109 c 1
 376 78 415 62 431 62 c 0
 441 62 452 65 465 71 c 1
 479 59 l 1x7f
356 308 m 1
 359 336 361 368 361 403 c 0
 361 578 325 665 254 665 c 0
 224 665 200 647 181 612 c 128
 162 577 152 533 152 480 c 0
 152 419 164 373 188 342 c 128
 211 311 245 295 289 295 c 0
 313 295 335 299 356 308 c 1
226 54 m 1
 145 93 l 2
 113 109 94 116 86 116 c 0
 79 116 71 112 65 104 c 128
 59 97 56 88 56 77 c 0
 56 62 63 47 78 34 c 128
 93 20 112 13 135 13 c 0xbf
 168 13 198 27 226 54 c 1
EndSplineSet
EndChar
StartChar: uni0542
Encoding: 1346 1346 525
Width: 489
VWidth: 2048
Flags: W
HStem: -96 118<424 520> -1 23<353 378> 659 24<184 193>
VStem: 25 86<484 508.455> 266 88<-1 513> 432 88<-96 -73.827>
Fore
520 -96 m 1xbc
 432 -96 l 1xbc
 432 -60 427 -35 417 -21 c 128
 407 -8 390 -1 366 -1 c 2
 266 -1 l 1
 266 553 l 2
 266 584 259 610 244 630 c 128
 230 649 211 659 188 659 c 0
 137 659 111 614 111 524 c 2
 111 484 l 1
 25 484 l 1
 25 540 40 587 69 625 c 128
 98 664 139 683 191 683 c 0
 239 683 278 664 309 626 c 128
 339 588 354 545 354 497 c 2
 354 22 l 1x7c
 424 22 l 2
 454 22 478 12 495 -8 c 128
 512 -28 520 -58 520 -96 c 1xbc
EndSplineSet
EndChar
StartChar: uni0543
Encoding: 1347 1347 526
Width: 444
VWidth: 2048
Flags: W
HStem: 0 23<147 453>
VStem: 59 88<0 154> 365 88<23 129> 375 48<534 573>
Fore
453 0 m 1xe0
 59 0 l 1
 59 78 l 2
 59 163 73 229 101 273 c 128
 129 318 172 358 231 394 c 1
 197 411 149 423 87 429 c 1
 87 453 l 1
 148 448 204 433 256 407 c 1
 292 427 321 448 343 469 c 128
 364 489 375 511 375 534 c 0
 375 569 343 602 281 633 c 1
 334 708 l 1
 362 693 384 673 399 648 c 128
 415 624 423 599 423 573 c 0xd0
 423 510 376 450 281 394 c 1
 395 324 453 230 453 112 c 2
 453 0 l 1xe0
365 23 m 1xe0
 365 159 l 2
 365 222 356 270 339 303 c 128
 323 335 295 362 257 382 c 1
 220 358 192 329 174 292 c 128
 156 256 147 210 147 154 c 2
 147 23 l 1
 365 23 l 1xe0
EndSplineSet
EndChar
StartChar: uni0544
Encoding: 1348 1348 527
Width: 533
VWidth: 2048
Flags: W
HStem: -11 24<247 265> 514 163<487 577> 644 17<24 64 280 318>
VStem: 81 88<147 676> 337 89<149 630>
Fore
577 514 m 1xd8
 488 514 l 1xd8
 488 592 l 2
 488 629 476 648 452 648 c 0
 442 648 433 647 426 646 c 1
 426 178 l 2
 426 126 410 81 378 44 c 128
 346 7 305 -11 256 -11 c 0
 210 -11 170 6 134 39 c 128
 99 73 81 116 81 168 c 2
 81 625 l 2
 81 629 79 633 74 638 c 128
 70 642 66 644 62 644 c 2
 24 644 l 1
 24 661 l 1
 43 661 l 2xb8
 52 661 62 661 71 662 c 128
 101 665 l 128
 110 667 119 668 127 670 c 2
 150 677 l 1xd8
 169 676 l 1
 169 145 l 2
 169 103 177 70 191 47 c 128
 206 25 227 13 254 13 c 0
 281 13 301 25 315 48 c 128
 330 72 337 105 337 149 c 2
 337 623 l 2
 337 637 330 644 316 644 c 2
 280 644 l 1
 280 661 l 1
 291 661 l 2xb8
 344 661 400 665 461 673 c 0
 478 676 488 677 493 677 c 0
 519 677 540 667 555 647 c 128
 569 627 577 598 577 561 c 2
 577 514 l 1xd8
EndSplineSet
EndChar
StartChar: uni0545
Encoding: 1349 1349 528
Width: 587
VWidth: 2048
Flags: W
HStem: -10 24<318.101 351> 324 23<183 367> 660 24<332 356>
VStem: 95 88<236 324 236 437> 498 88<181 199 485 504>
Fore
98 489 m 1
 127 619 209 684 344 684 c 0
 420 684 479 665 522 626 c 128
 565 588 587 546 587 502 c 0
 587 464 573 430 545 399 c 128
 517 369 477 348 425 336 c 1
 474 332 514 316 542 289 c 128
 571 262 586 230 586 194 c 0
 586 143 562 97 514 54 c 128
 467 12 407 -10 334 -10 c 0
 275 -10 223 8 180 45 c 128
 137 81 109 127 94 184 c 1
 180 184 l 1
 188 132 206 91 235 60 c 128
 265 29 298 14 334 14 c 0
 374 14 411 30 446 62 c 128
 480 95 498 137 498 188 c 0
 498 231 486 265 462 289 c 128
 439 312 405 324 363 324 c 2
 183 324 l 1
 183 236 l 1
 95 236 l 1
 95 437 l 1
 183 437 l 1
 183 347 l 1
 356 347 l 2
 399 347 433 360 459 386 c 128
 486 412 499 449 499 495 c 0
 499 548 482 588 449 617 c 128
 416 646 379 660 338 660 c 0
 298 660 263 645 234 613 c 128
 206 582 188 541 180 489 c 1
 98 489 l 1
EndSplineSet
EndChar
StartChar: uni0546
Encoding: 1350 1350 529
Width: 533
VWidth: 2048
Flags: W
HStem: -11 24<369 387> 483 23<177 198> 662 23<168 202>
VStem: 34 74<564 582> 198 89<164 506>
Fore
553 187 m 1
 546 124 526 76 494 41 c 128
 461 6 420 -11 371 -11 c 0
 322 -11 280 7 248 45 c 128
 214 83 198 128 198 181 c 2
 198 483 l 1
 131 483 l 2
 102 483 78 491 61 507 c 128
 43 524 34 546 34 573 c 0
 34 603 47 629 73 651 c 128
 99 674 131 685 168 685 c 2
 202 685 l 1
 202 662 l 1
 183 662 l 2
 163 662 146 653 131 636 c 128
 116 619 108 600 108 578 c 0
 108 556 115 538 128 525 c 128
 142 512 162 506 188 506 c 2
 287 506 l 1
 287 154 l 2
 287 109 294 74 310 50 c 128
 325 25 347 13 374 13 c 0
 401 13 422 26 438 52 c 128
 455 78 463 111 463 150 c 2
 463 187 l 1
 553 187 l 1
EndSplineSet
EndChar
StartChar: uni0547
Encoding: 1351 1351 530
Width: 533
VWidth: 2048
Flags: W
HStem: -11 24<327 351> 540 80<453 500> 607 77<97 149>
VStem: 114 98<203 256>
Fore
560 640 m 1xd0
 522 573 486 540 453 540 c 0xd0
 451 540 390 552 271 575 c 1
 256 548 242 493 230 412 c 128
 218 331 212 261 212 203 c 0
 212 142 223 95 247 62 c 128
 269 29 301 13 341 13 c 0
 368 13 392 28 413 59 c 128
 433 89 444 129 444 179 c 0
 444 188 444 196 443 205 c 1
 538 205 l 1
 533 138 511 86 472 47 c 128
 433 8 385 -11 329 -11 c 0
 266 -11 214 13 174 62 c 128
 134 110 114 175 114 256 c 0
 114 366 157 474 244 580 c 1
 150 598 101 607 97 607 c 0
 78 607 63 595 50 572 c 1
 30 576 l 1
 50 615 69 643 86 659 c 128
 103 676 124 684 149 684 c 0xb0
 156 684 176 681 208 676 c 1
 398 639 495 620 500 620 c 0
 515 620 528 628 539 645 c 1
 560 640 l 1xd0
EndSplineSet
EndChar
StartChar: uni0548
Encoding: 1352 1352 531
Width: 444
VWidth: 2048
Flags: W
HStem: -21 20G<83 172 340 428> 660 24<256 260>
VStem: 83 89<-1 533> 340 88<-1 496>
Fore
428 -1 m 1
 340 -1 l 1
 340 529 l 2
 340 616 312 660 256 660 c 0
 200 660 172 618 172 533 c 2
 172 -1 l 1
 83 -1 l 1
 83 487 l 2
 83 548 101 596 135 631 c 128
 169 666 209 684 256 684 c 0
 310 684 352 666 382 629 c 128
 413 592 428 544 428 485 c 2
 428 -1 l 1
EndSplineSet
EndChar
StartChar: uni0549
Encoding: 1353 1353 532
Width: 444
VWidth: 2048
Flags: W
HStem: 261 34<257 287> 665 24<241.457 260>
VStem: 64 88<478 494> 360 85<391 442>
Fore
455 73 m 1
 442 -19 l 1
 71 41 l 1
 84 133 l 1
 274 103 l 1
 324 168 350 228 353 282 c 1
 319 268 287 261 257 261 c 0
 201 261 154 282 118 324 c 128
 82 366 64 417 64 478 c 0
 64 537 82 586 118 627 c 128
 154 668 201 689 257 689 c 0
 313 689 358 667 393 624 c 128
 428 580 445 519 445 440 c 0
 445 373 435 315 414 266 c 128
 393 217 357 161 304 98 c 1
 455 73 l 1
356 309 m 1
 359 327 360 354 360 391 c 0
 360 487 351 557 334 601 c 128
 317 644 290 665 253 665 c 0
 225 665 201 648 182 613 c 128
 162 579 152 534 152 478 c 0
 152 419 164 374 187 343 c 128
 209 311 243 295 287 295 c 0
 313 295 336 300 356 309 c 1
EndSplineSet
EndChar
StartChar: uni054A
Encoding: 1354 1354 533
Width: 587
VWidth: 2048
Flags: W
HStem: -21 20G<483 571>
VStem: 73 93<371 437> 296 50<128 658> 483 88<-1 420>
Fore
571 -1 m 1
 483 -1 l 1
 483 418 l 2
 483 507 468 569 439 604 c 128
 410 638 379 656 346 658 c 1
 346 92 l 1
 296 129 l 1
 296 659 l 1
 268 656 243 645 221 625 c 128
 199 605 185 577 177 542 c 128
 169 507 166 450 166 371 c 0
 166 330 168 282 172 226 c 1
 141 252 116 284 99 322 c 128
 81 361 73 399 73 435 c 0
 73 505 96 564 141 611 c 128
 187 659 247 683 322 683 c 0
 396 683 457 658 502 606 c 128
 548 556 571 486 571 398 c 2
 571 -1 l 1
EndSplineSet
EndChar
StartChar: uni054B
Encoding: 1355 1355 534
Width: 444
VWidth: 2048
Flags: W
HStem: -23 20G<51 140> 666 24<257 271>
VStem: 51 89<-3 77 -3 138> 75 84<520 538> 245 23<160 235> 361 84<385 451>
Fore
472 -23 m 1xdc
 385 -23 l 1
 381 0 370 19 354 31 c 128
 338 44 315 52 287 56 c 2
 140 77 l 1
 140 -3 l 1
 51 -3 l 1
 51 138 l 1
 140 138 l 1
 140 100 l 1xec
 235 87 l 1
 242 106 245 130 245 160 c 0
 245 188 240 216 230 244 c 128
 221 272 197 307 159 348 c 0
 122 387 98 420 89 446 c 128
 80 473 75 499 75 525 c 0
 75 566 93 604 127 638 c 128
 162 673 205 690 257 690 c 0
 316 690 362 668 396 624 c 128
 429 580 445 522 445 451 c 0
 445 369 432 301 407 245 c 128
 381 190 334 135 267 82 c 1
 335 75 385 64 416 49 c 128
 447 33 466 9 472 -23 c 1xdc
261 104 m 1
 297 138 322 177 338 219 c 128
 353 262 361 317 361 385 c 0
 361 477 353 546 338 594 c 128
 323 642 296 666 257 666 c 0
 231 666 208 653 188 628 c 128
 169 602 159 570 159 531 c 0xdc
 159 519 161 507 166 494 c 128
 170 481 181 462 199 437 c 0
 229 397 248 361 256 329 c 128
 264 297 268 266 268 235 c 0
 268 183 266 139 261 104 c 1
EndSplineSet
EndChar
StartChar: uni054C
Encoding: 1356 1356 535
Width: 533
VWidth: 2048
Flags: W
HStem: -22 20G<80 168 337 426> 185 164<472 576> 326 23<426 449> 659 24<239 256>
VStem: 80 88<-2 533> 337 89<-2 326 -2 495>
Fore
576 185 m 1xdc
 487 185 l 1xdc
 487 283 l 2
 487 296 483 307 476 314 c 128
 468 322 457 326 444 326 c 2
 426 326 l 1
 426 -2 l 1
 337 -2 l 1
 337 542 l 2
 337 578 330 607 315 628 c 128
 301 649 279 659 251 659 c 0
 224 659 204 648 190 627 c 128
 176 605 168 574 168 533 c 2
 168 -2 l 1
 80 -2 l 1
 80 482 l 2
 80 546 97 595 132 630 c 128
 167 666 207 683 254 683 c 0
 305 683 347 665 378 628 c 128
 410 591 426 543 426 483 c 2
 426 349 l 1xbc
 472 349 l 2
 502 349 527 341 546 324 c 128
 566 308 576 287 576 261 c 2
 576 185 l 1xdc
EndSplineSet
EndChar
StartChar: uni054D
Encoding: 1357 1357 536
Width: 444
VWidth: 2048
Flags: W
HStem: -12 24<251 269> 640 23<28 64 285 326>
VStem: 85 89<155 675> 341 89<155 629>
Fore
430 170 m 2
 430 118 413 74 378 40 c 128
 345 5 306 -12 263 -12 c 0
 212 -12 170 6 136 41 c 128
 102 76 85 120 85 172 c 2
 85 618 l 2
 85 627 84 632 80 636 c 128
 76 639 70 640 60 640 c 2
 28 640 l 1
 28 663 l 1
 61 663 l 2
 68 663 77 663 86 664 c 128
 95 664 104 665 113 666 c 128
 122 667 130 668 136 670 c 2
 153 675 l 1
 174 675 l 1
 174 145 l 2
 174 56 202 12 257 12 c 0
 286 12 308 24 321 47 c 128
 335 70 341 107 341 157 c 2
 341 624 l 2
 341 635 335 640 324 640 c 2
 285 640 l 1
 285 663 l 1
 295 663 l 2
 309 663 323 663 335 664 c 128
 348 665 359 666 370 667 c 128
 380 668 388 669 394 670 c 2
 410 675 l 1
 430 675 l 1
 430 170 l 2
EndSplineSet
EndChar
StartChar: uni054E
Encoding: 1358 1358 537
Width: 587
VWidth: 2048
Flags: W
HStem: -1 23<434 469> 225 24<258 276> 462 17<35 70> 644 17<289 328>
VStem: 90 88<387 449> 347 88<-1 676> 531 88<-96 -74.6607>
Fore
619 -96 m 1
 531 -96 l 1
 531 -65 526 -41 516 -25 c 128
 506 -9 490 -1 467 -1 c 2
 347 -1 l 1
 347 254 l 1
 336 245 323 239 306 233 c 128
 290 228 275 225 263 225 c 0
 214 225 173 243 140 279 c 128
 107 316 90 358 90 406 c 2
 90 435 l 2
 90 446 89 454 85 457 c 128
 81 460 74 462 64 462 c 2
 35 462 l 1
 35 479 l 1
 67 479 l 2
 76 479 86 480 98 481 c 128
 110 483 121 485 131 487 c 2
 160 495 l 1
 178 495 l 1
 178 389 l 2
 178 296 208 249 267 249 c 0
 291 249 311 258 325 277 c 128
 340 296 347 321 347 352 c 2
 347 618 l 2
 347 628 345 635 341 639 c 128
 336 642 329 644 318 644 c 2
 289 644 l 1
 289 661 l 1
 321 661 l 2
 327 661 334 661 343 662 c 128
 351 662 360 663 369 665 c 128
 377 666 385 667 393 669 c 2
 415 676 l 1
 435 676 l 1
 435 22 l 1
 509 22 l 2
 538 22 564 13 586 -5 c 128
 608 -22 619 -53 619 -96 c 1
EndSplineSet
EndChar
StartChar: uni054F
Encoding: 1359 1359 538
Width: 489
VWidth: 2048
Flags: W
HStem: -11 24<269 289> 659 24<269 289>
VStem: 94 88<161 192> 377 89<479 502>
Fore
466 479 m 1
 377 479 l 1
 377 500 l 2
 377 551 369 591 353 618 c 128
 336 646 312 659 280 659 c 0
 251 659 228 648 208 626 c 128
 189 605 179 582 179 557 c 0
 179 541 183 524 190 507 c 128
 198 490 208 476 220 464 c 2
 393 302 l 2
 416 279 434 256 446 232 c 128
 458 209 464 186 464 163 c 0
 464 117 447 77 412 42 c 128
 377 6 335 -11 287 -11 c 0
 233 -11 187 8 150 47 c 128
 113 85 94 129 94 178 c 2
 94 192 l 1
 182 192 l 1
 182 172 l 2
 182 124 191 85 208 57 c 128
 226 28 250 13 281 13 c 0
 309 13 333 25 353 48 c 128
 372 71 381 98 381 127 c 0
 381 146 377 164 370 182 c 128
 361 200 350 216 334 230 c 2
 167 389 l 1
 122 431 100 477 100 525 c 0
 100 566 116 603 150 635 c 128
 183 667 225 683 276 683 c 0
 330 683 375 663 411 624 c 128
 448 584 466 536 466 479 c 1
EndSplineSet
EndChar
StartChar: uni0550
Encoding: 1360 1360 539
Width: 400
VWidth: 2048
Flags: W
HStem: -27 20G<81 169> 656 21<241.34 258>
VStem: 81 88<-7 529> 332 88<481 509.028>
Fore
420 481 m 1
 332 481 l 1
 332 516 l 2
 332 564 326 599 314 622 c 128
 302 645 282 656 255 656 c 0
 228 656 206 645 191 623 c 128
 177 602 169 570 169 529 c 2
 169 -7 l 1
 81 -7 l 1
 81 472 l 2
 81 538 98 589 131 624 c 128
 164 659 206 677 255 677 c 0
 308 677 349 660 378 626 c 128
 406 592 420 544 420 481 c 1
EndSplineSet
EndChar
StartChar: uni0551
Encoding: 1361 1361 540
Width: 489
VWidth: 2048
Flags: W
HStem: -15 24<272 290> 353 24<272 290> 656 24<272 290>
VStem: 97 88<496 530> 375 88<138 194 496 530>
Fore
322 363 m 1
 416 328 463 268 463 182 c 0
 463 124 445 76 408 40 c 128
 371 3 328 -15 277 -15 c 0
 235 -15 196 -1 162 28 c 128
 126 57 106 95 101 143 c 1
 185 143 l 1
 185 99 194 65 212 43 c 128
 230 20 252 9 279 9 c 0
 308 9 331 21 349 44 c 128
 366 68 375 99 375 138 c 2
 375 212 l 2
 375 256 365 290 347 315 c 128
 329 340 307 353 281 353 c 0
 258 353 237 343 220 324 c 128
 202 304 191 278 186 245 c 1
 105 245 l 1
 122 302 165 342 234 364 c 1
 188 375 154 393 131 419 c 128
 108 446 97 478 97 515 c 0
 97 562 115 602 152 633 c 128
 189 664 234 680 285 680 c 0
 335 680 377 663 412 628 c 128
 446 593 463 555 463 513 c 0
 463 476 451 444 427 417 c 128
 403 391 368 373 322 363 c 1
276 377 m 0
 307 377 331 389 349 413 c 128
 366 437 375 472 375 516 c 0
 375 609 344 656 284 656 c 0
 218 656 185 608 185 513 c 0
 185 422 215 377 276 377 c 0
EndSplineSet
EndChar
StartChar: uni0552
Encoding: 1362 1362 541
Width: 444
VWidth: 2048
Flags: W
HStem: -27 20G<80 168> 166 22<456.5 476> 444 28<268 302> 637 20<21 58>
VStem: 80 88<-7 428 -7 671> 342 89<264 346>
Fore
476 166 m 1
 437 164 405 174 380 195 c 128
 355 216 342 243 342 274 c 2
 342 355 l 2
 342 382 336 404 322 420 c 128
 309 436 291 444 268 444 c 0
 250 444 217 439 168 428 c 1
 168 -7 l 1
 80 -7 l 1
 80 615 l 2
 80 630 72 637 56 637 c 2
 21 637 l 1
 21 657 l 1
 43 657 l 2
 51 657 59 658 68 658 c 128
 78 659 88 659 98 660 c 128
 108 661 118 663 126 665 c 2
 149 671 l 1
 168 671 l 1
 168 451 l 1
 225 465 269 472 302 472 c 0
 340 472 371 459 395 434 c 128
 419 408 431 374 431 333 c 2
 431 236 l 2
 431 223 435 212 442 203 c 128
 451 193 462 188 476 188 c 1
 476 166 l 1
EndSplineSet
EndChar
StartChar: uni0553
Encoding: 1363 1363 542
Width: 587
VWidth: 2048
Flags: W
HStem: -26 20G<289 376> 638 20<230 276>
VStem: 99 95<313 396> 289 87<-6 130 153 513 534 672> 471 94<280 347>
Fore
376 535 m 1
 427 537 471 518 509 478 c 128
 547 437 565 390 565 336 c 0
 565 280 548 232 514 193 c 128
 480 154 434 133 376 130 c 1
 376 -6 l 1
 289 -6 l 1
 289 130 l 1
 228 133 182 155 148 195 c 128
 115 235 99 282 99 337 c 0
 99 390 117 436 154 475 c 128
 191 513 236 533 289 535 c 1
 289 621 l 2
 289 632 281 638 267 638 c 2
 230 638 l 1
 230 658 l 1
 271 658 l 2
 280 658 289 659 299 660 c 128
 310 661 319 663 329 665 c 2
 354 672 l 1
 376 672 l 1
 376 535 l 1
289 153 m 1
 289 513 l 1
 262 513 239 501 221 478 c 128
 203 453 194 426 194 396 c 2
 194 276 l 2
 194 242 203 213 220 189 c 128
 237 165 260 153 289 153 c 1
471 280 m 2
 471 384 l 2
 471 422 462 453 445 478 c 128
 427 501 404 513 376 513 c 1
 376 154 l 1
 409 154 432 166 448 191 c 128
 463 216 471 246 471 280 c 2
EndSplineSet
EndChar
StartChar: uni0554
Encoding: 1364 1364 543
Width: 587
VWidth: 2048
Flags: W
HStem: -28 20G<208 295> 196 128<295 627> 301 23<144 208 295 513> 301 129<33 121> 366 23<295 394> 654 24<365 386>
VStem: 33 88<345 430> 208 87<-8 301 324 366 324 539> 454 88<497 525>
Fore
627 196 m 1xcf80
 540 196 l 1xcf80
 540 272 l 2
 540 291 530 301 511 301 c 2
 295 301 l 1
 295 -8 l 1
 208 -8 l 1
 208 301 l 1xa780
 99 301 l 2
 78 301 62 306 50 316 c 128
 39 326 33 340 33 357 c 2
 33 430 l 1
 121 430 l 1x9780
 121 346 l 2
 121 332 132 324 153 324 c 2
 208 324 l 1xa780
 208 496 l 2
 208 552 222 596 250 629 c 128
 279 662 319 678 369 678 c 0
 416 678 457 662 491 630 c 128
 525 598 542 556 542 504 c 0
 542 462 528 428 500 403 c 128
 472 379 436 366 394 366 c 2
 295 366 l 1
 295 324 l 1
 548 324 l 2
 601 324 627 303 627 260 c 2
 627 196 l 1xcf80
295 389 m 1
 367 389 l 2
 394 389 416 401 431 423 c 128
 446 446 454 479 454 523 c 0
 454 562 446 594 432 618 c 128
 418 642 399 654 374 654 c 0
 349 654 330 644 316 624 c 128
 302 604 295 576 295 539 c 2
 295 389 l 1
EndSplineSet
EndChar
StartChar: uni0555
Encoding: 1365 1365 544
Width: 533
VWidth: 2048
Flags: W
HStem: -16 24<302 318> 655 24<284 318>
VStem: 93 88<191 522> 420 89<133 481>
Fore
509 203 m 2
 509 137 490 84 453 44 c 128
 416 4 366 -16 302 -16 c 0
 236 -16 184 5 147 46 c 128
 111 88 93 142 93 208 c 2
 93 466 l 2
 93 533 113 585 152 623 c 128
 191 660 242 679 304 679 c 0
 369 679 419 659 455 619 c 128
 491 578 509 524 509 455 c 2
 509 203 l 2
420 133 m 2
 420 519 l 2
 420 562 409 595 387 619 c 128
 365 643 336 655 302 655 c 0
 265 655 236 643 214 619 c 128
 192 595 181 563 181 522 c 2
 181 145 l 2
 181 101 192 68 214 44 c 128
 236 20 265 8 302 8 c 0
 336 8 364 19 387 42 c 128
 409 66 420 96 420 133 c 2
EndSplineSet
EndChar
StartChar: uni0556
Encoding: 1366 1366 545
Width: 632
VWidth: 2048
Flags: W
HStem: -15 24<310 348> 343 23<338 360> 656 24<278 297>
VStem: 71 88<143 239> 118 89<483 514> 367 86<485 544> 575 88<192 209>
Fore
448 362 m 1xee
 517 360 570 345 607 315 c 128
 645 286 663 248 663 200 c 0
 663 137 636 85 582 45 c 128
 528 5 448 -15 340 -15 c 0
 248 -15 180 -1 136 26 c 128
 93 54 71 96 71 153 c 2
 71 239 l 1
 159 239 l 1
 159 145 l 2xf6
 159 98 171 64 196 42 c 128
 220 20 263 9 323 9 c 2
 348 9 l 1
 359 343 l 1
 307 343 266 346 239 353 c 128
 211 359 188 369 169 385 c 128
 150 400 137 417 130 437 c 128
 122 457 118 479 118 503 c 0
 118 555 135 598 169 631 c 128
 203 664 245 680 295 680 c 0
 342 680 380 663 409 628 c 128
 438 593 453 546 453 485 c 0
 453 470 451 429 448 362 c 1xee
360 366 m 1
 365 459 367 518 367 544 c 0
 367 580 360 608 345 627 c 128
 331 646 311 656 288 656 c 0
 262 656 242 643 228 617 c 128
 214 591 207 553 207 502 c 0xee
 207 460 217 426 239 402 c 128
 260 378 300 366 360 366 c 1
437 17 m 1
 481 23 515 43 539 78 c 128
 563 113 575 156 575 207 c 0
 575 248 564 280 543 304 c 128
 522 327 490 339 447 339 c 1
 437 17 l 1
EndSplineSet
EndChar
StartChar: uni0559
Encoding: 1369 1369 546
Width: 222
VWidth: 2048
Flags: W
VStem: 81 41<533 578>
Fore
196 646 m 1
 170 620 151 598 139 582 c 128
 127 565 122 549 122 533 c 0
 122 519 126 503 135 485 c 1
 114 485 l 1
 92 517 81 548 81 578 c 0
 81 624 102 666 144 705 c 1
 196 646 l 1
EndSplineSet
EndChar
StartChar: uni055A
Encoding: 1370 1370 547
Width: 222
VWidth: 2048
Flags: W
VStem: 152 40<533 578>
Fore
129 705 m 1
 171 666 192 624 192 578 c 0
 192 548 181 517 159 485 c 1
 139 485 l 1
 147 503 152 519 152 533 c 0
 152 549 146 565 134 582 c 128
 123 598 104 620 77 646 c 1
 129 705 l 1
EndSplineSet
EndChar
StartChar: uni055B
Encoding: 1371 1371 548
Width: 125
VWidth: 2048
Flags: W
Fore
106 702 m 1
 76 485 l 1
 32 485 l 1
 62 702 l 1
 106 702 l 1
EndSplineSet
EndChar
StartChar: uni055C
Encoding: 1372 1372 549
Width: 250
VWidth: 2048
Flags: W
VStem: 19 15<425 437.384>
Fore
259 702 m 1
 261 675 259 650 252 626 c 128
 246 603 235 584 220 570 c 128
 205 557 174 538 127 513 c 0
 88 492 62 477 51 467 c 128
 39 456 34 442 34 425 c 1
 19 425 l 1
 19 452 22 477 30 498 c 128
 37 518 48 535 62 547 c 128
 77 560 106 578 151 602 c 0
 174 614 174 614 196 626 c 128
 210 635 221 645 229 658 c 128
 238 670 243 685 245 702 c 1
 259 702 l 1
EndSplineSet
EndChar
StartChar: uni055D
Encoding: 1373 1373 550
Width: 222
VWidth: 2048
Flags: W
HStem: 498 20G<120 195>
Fore
195 518 m 1
 120 518 l 1
 81 699 l 1
 158 699 l 1
 195 518 l 1
EndSplineSet
EndChar
StartChar: uni055E
Encoding: 1374 1374 551
Width: 222
VWidth: 2048
Flags: W
HStem: 484 24<140 155> 678 24<140 158>
VStem: 217 22<599 605>
Fore
13 481 m 1
 27 556 44 612 66 648 c 128
 87 684 116 702 152 702 c 0
 176 702 196 692 213 673 c 128
 230 653 239 629 239 599 c 0
 239 566 230 538 212 517 c 128
 194 495 172 484 145 484 c 0
 106 484 80 503 65 541 c 1
 83 549 l 1
 95 521 115 508 144 508 c 0
 165 508 182 516 196 533 c 128
 210 549 217 571 217 599 c 0
 217 623 211 642 198 656 c 128
 185 671 169 678 151 678 c 0
 123 678 100 662 82 630 c 128
 63 598 47 546 34 476 c 1
 13 481 l 1
EndSplineSet
EndChar
StartChar: uni055F
Encoding: 1375 1375 552
Width: 349
VWidth: 2048
Flags: W
HStem: 484 23<147 197> 679 23<167 181>
VStem: 36 22<563 581>
Fore
369 534 m 1
 360 507 l 1
 298 492 233 484 164 484 c 0
 122 484 90 492 68 508 c 128
 47 525 36 548 36 577 c 0
 36 612 49 641 74 666 c 128
 100 690 131 702 167 702 c 0
 190 702 207 699 217 694 c 1
 213 669 l 1
 204 676 189 679 167 679 c 0
 138 679 112 669 90 649 c 128
 69 630 58 605 58 576 c 0
 58 530 95 507 168 507 c 0
 229 507 296 516 369 534 c 1
EndSplineSet
EndChar
StartChar: uni0561
Encoding: 1377 1377 553
Width: 489
VWidth: 2048
Flags: W
HStem: 0 17<475 513> 294 17<36 82 200 245 363 406>
VStem: 82 69<41 294> 245 68<42 294> 406 70<0 315>
Fore
513 0 m 1
 406 0 l 1
 406 26 l 1
 355 7 325 -3 317 -5 c 128
 308 -7 301 -8 295 -8 c 0
 271 -8 255 4 248 27 c 1
 236 23 220 17 199 9 c 0
 169 -2 147 -8 134 -8 c 0
 99 -8 82 14 82 57 c 2
 82 294 l 1
 36 294 l 1
 36 311 l 1
 92 311 l 1
 137 315 l 1
 151 315 l 1
 151 46 l 2
 151 40 153 36 158 32 c 128
 163 28 168 26 175 26 c 0
 195 26 218 32 245 43 c 1
 245 294 l 1
 200 294 l 1
 200 311 l 1
 258 311 l 1
 295 315 l 1
 313 315 l 1
 313 53 l 2
 313 34 321 25 337 25 c 0
 350 25 373 31 406 44 c 1
 406 294 l 1
 363 294 l 1
 363 311 l 1
 426 311 l 2
 431 311 437 312 443 312 c 2
 462 315 l 1
 476 315 l 1
 476 17 l 1
 513 17 l 1
 513 0 l 1
EndSplineSet
EndChar
StartChar: uni0562
Encoding: 1378 1378 554
Width: 355
VWidth: 2048
Flags: W
HStem: -210 17<48 194> 0 23<158 372> 294 17<51 89>
VStem: 89 69<-193 0 -193 262 -193 315> 265 69<106 269>
Fore
372 0 m 1
 158 0 l 1
 158 -193 l 1
 194 -193 l 1
 194 -210 l 1
 48 -210 l 1
 48 -193 l 1
 89 -193 l 1
 89 294 l 1
 51 294 l 1
 51 311 l 1
 100 311 l 1
 142 315 l 1
 158 315 l 1
 158 281 l 1
 235 307 l 2
 260 315 278 319 289 319 c 0
 319 319 334 302 334 267 c 2
 334 106 l 1
 265 106 l 1
 265 258 l 2
 265 276 258 285 243 285 c 0
 235 285 222 283 204 278 c 128
 185 273 170 268 158 262 c 1
 158 23 l 1
 372 23 l 1
 372 0 l 1
EndSplineSet
EndChar
StartChar: uni0563
Encoding: 1379 1379 555
Width: 355
VWidth: 2048
Flags: W
HStem: -210 17<217 366> 0 20<191 260 329 374> 294 17<317 368> 295 24<169 185>
VStem: 48 75<141 175> 260 69<-193 0 20 294>
Fore
374 0 m 1xec
 329 0 l 1
 329 -193 l 1
 366 -193 l 1
 366 -210 l 1
 217 -210 l 1
 217 -193 l 1
 260 -193 l 1
 260 0 l 1
 175 0 l 2
 138 0 107 15 83 44 c 128
 60 73 48 111 48 158 c 0
 48 204 60 243 83 273 c 128
 106 304 135 319 169 319 c 0xdc
 201 319 231 306 260 281 c 1
 260 315 l 1
 265 315 276 314 295 312 c 0
 308 312 315 311 317 311 c 2
 368 311 l 1
 368 294 l 1
 329 294 l 1
 329 20 l 1
 374 20 l 1
 374 0 l 1xec
260 20 m 1
 260 263 l 1
 232 284 207 295 185 295 c 0
 143 295 123 253 123 169 c 0
 123 70 148 20 199 20 c 2
 260 20 l 1
EndSplineSet
EndChar
StartChar: uni0564
Encoding: 1380 1380 556
Width: 355
VWidth: 2048
Flags: W
HStem: -210 17<218 364> 0 17<45 186> 294 17<45 83>
VStem: 83 69<17 263 17 315> 258 70<-193 0 -193 271>
Fore
403 0 m 1
 328 0 l 1
 328 -193 l 1
 364 -193 l 1
 364 -210 l 1
 218 -210 l 1
 218 -193 l 1
 258 -193 l 1
 258 261 l 2
 258 277 251 285 238 285 c 0
 219 285 191 278 152 263 c 1
 152 17 l 1
 186 17 l 1
 186 0 l 1
 45 0 l 1
 45 17 l 1
 83 17 l 1
 83 294 l 1
 45 294 l 1
 45 311 l 1
 97 311 l 2
 104 311 111 312 119 312 c 2
 140 315 l 1
 152 315 l 1
 152 281 l 1
 218 306 262 319 282 319 c 0
 295 319 306 314 314 304 c 128
 323 294 328 282 328 269 c 2
 328 23 l 1
 403 23 l 1
 403 0 l 1
EndSplineSet
EndChar
StartChar: uni0565
Encoding: 1381 1381 557
Width: 355
VWidth: 2048
Flags: W
HStem: -23 20G<258 275> 0 17<327 364> 0 180<258 328> 288 23<152 364> 593 17<45 83>
VStem: 83 69<44 288 46 613> 258 70<-3 180>
Fore
364 0 m 1xde
 308 0 l 2
 302 0 297 0 291 -1 c 2
 275 -3 l 1
 258 -3 l 1
 258 31 l 1
 192 5 150 -8 133 -8 c 0
 117 -8 105 -3 97 7 c 128
 88 17 83 30 83 46 c 2
 83 593 l 1
 45 593 l 1
 45 610 l 1
 96 610 l 2
 104 610 112 610 119 611 c 2
 137 613 l 1
 152 613 l 1
 152 311 l 1
 364 311 l 1
 364 288 l 1
 152 288 l 1
 152 50 l 2
 152 34 160 26 175 26 c 0
 191 26 219 33 258 47 c 1
 258 180 l 1
 328 180 l 1xbe
 328 17 l 1
 364 17 l 1
 364 0 l 1xde
EndSplineSet
EndChar
StartChar: uni0566
Encoding: 1382 1382 558
Width: 355
VWidth: 2048
Flags: W
HStem: -210 23<328 380> -8 24<166 180> 294 17<317 366> 295 24<167 183>
VStem: 44 75<141 175> 258 70<-210 294>
Fore
380 -210 m 1xec
 258 -210 l 1
 258 29 l 1
 226 4 195 -8 166 -8 c 0
 130 -8 101 8 78 41 c 128
 56 74 44 113 44 160 c 0
 44 203 56 240 80 271 c 128
 103 303 132 319 167 319 c 0xdc
 199 319 229 306 258 281 c 1
 258 315 l 1
 270 315 l 2
 273 315 280 314 289 313 c 0
 302 312 311 311 317 311 c 2
 366 311 l 1
 366 294 l 1
 328 294 l 1
 328 -187 l 1
 380 -187 l 1
 380 -210 l 1xec
258 48 m 1
 258 263 l 1
 229 284 204 295 183 295 c 0
 140 295 119 251 119 162 c 0
 119 110 123 72 132 50 c 128
 141 27 157 16 180 16 c 0
 202 16 228 27 258 48 c 1
EndSplineSet
EndChar
StartChar: uni0567
Encoding: 1383 1383 559
Width: 355
VWidth: 2048
Flags: W
HStem: 0 17<152 207> 288 23<152 366> 593 17<46 83>
VStem: 83 69<0 288 0 613>
Fore
366 288 m 1
 152 288 l 1
 152 17 l 1
 229 17 l 2
 257 17 280 9 298 -6 c 128
 317 -21 326 -41 326 -65 c 2
 326 -122 l 1
 256 -122 l 1
 256 -55 l 2
 256 -38 251 -25 239 -15 c 128
 228 -5 212 0 191 0 c 2
 83 0 l 1
 83 593 l 1
 46 593 l 1
 46 610 l 1
 86 610 l 1
 141 613 l 1
 152 613 l 1
 152 311 l 1
 366 311 l 1
 366 288 l 1
EndSplineSet
EndChar
StartChar: uni0568
Encoding: 1384 1384 560
Width: 355
VWidth: 2048
Flags: W
HStem: -210 23<154 358> 0 17<228 367> 294 17<48 85>
VStem: 85 69<-210 263 -210 315> 228 102<0 262> 261 69<17 266>
Fore
367 0 m 1xf8
 228 0 l 1
 228 17 l 1xf8
 261 17 l 1
 261 260 l 2xf4
 261 277 253 285 238 285 c 0
 220 285 192 278 154 263 c 1
 154 -187 l 1
 358 -187 l 1
 358 -210 l 1
 85 -210 l 1
 85 294 l 1
 48 294 l 1
 48 311 l 1
 106 311 l 2
 111 311 116 312 123 312 c 2
 141 315 l 1
 154 315 l 1
 154 281 l 1
 229 307 l 2
 253 315 271 319 282 319 c 0
 298 319 309 314 318 303 c 128
 326 293 330 279 330 262 c 2
 330 17 l 1
 367 17 l 1
 367 0 l 1xf8
EndSplineSet
EndChar
StartChar: uni0569
Encoding: 1385 1385 561
Width: 383
VWidth: 2048
Flags: W
HStem: -210 17<45 189> -9 24<264 277> 294 17<45 84>
VStem: 84 69<-193 260 -193 315> 208 16<61 81> 329 61<145 168>
Fore
406 254 m 1
 375 240 l 1
 385 214 390 189 390 168 c 0
 390 120 378 78 356 43 c 128
 333 9 307 -9 277 -9 c 0
 256 -9 239 -1 227 15 c 128
 214 30 208 51 208 79 c 0
 208 138 241 188 309 231 c 1
 289 267 265 285 235 285 c 0
 211 285 184 277 153 260 c 1
 153 -193 l 1
 189 -193 l 1
 189 -210 l 1
 45 -210 l 1
 45 -193 l 1
 84 -193 l 1
 84 294 l 1
 45 294 l 1
 45 311 l 1
 93 311 l 2
 105 311 114 311 120 312 c 2
 140 315 l 1
 153 315 l 1
 153 280 l 1
 201 306 243 319 277 319 c 0
 312 319 341 300 363 262 c 1
 401 279 l 1
 406 254 l 1
329 147 m 0
 329 153 328 164 326 180 c 128
 323 195 320 205 317 210 c 1
 288 194 265 174 249 149 c 128
 232 125 224 100 224 75 c 0
 224 56 228 42 235 31 c 128
 242 21 252 15 264 15 c 0
 284 15 300 28 312 54 c 128
 323 80 329 111 329 147 c 0
EndSplineSet
EndChar
StartChar: uni056A
Encoding: 1386 1386 562
Width: 355
VWidth: 2048
Flags: W
HStem: -8 21<196 213> 288 23<207 276 344 400> 593 17<233 276>
VStem: 37 69<151 169> 276 69<108 288 310 613>
Fore
400 288 m 1
 345 288 l 1
 345 129 l 2
 345 89 333 56 308 30 c 128
 283 5 250 -8 209 -8 c 0
 158 -8 117 7 85 38 c 128
 53 69 37 109 37 158 c 0
 37 206 53 243 85 271 c 128
 117 298 159 311 211 311 c 2
 276 311 l 1
 276 593 l 1
 233 593 l 1
 233 610 l 1
 302 610 l 2
 305 610 312 611 322 612 c 0
 330 612 335 613 337 613 c 2
 345 613 l 1
 345 311 l 1
 400 311 l 1
 400 288 l 1
276 108 m 2
 276 288 l 1
 227 288 l 2
 188 288 158 277 137 254 c 128
 116 231 106 199 106 157 c 0
 106 113 116 78 136 52 c 128
 156 26 179 13 205 13 c 0
 227 13 245 22 257 40 c 128
 270 58 276 81 276 108 c 2
EndSplineSet
EndChar
StartChar: uni056B
Encoding: 1387 1387 563
Width: 355
VWidth: 2048
Flags: W
HStem: -210 23<152 189> 0 17<225 367> 0 319<280 367> 285 34<237 282> 593 17<41 83>
VStem: 83 69<-210 264 -210 613> 225 103<0 267> 259 69<17 271>
Fore
367 0 m 1xce
 225 0 l 1
 225 17 l 1xce
 259 17 l 1
 259 259 l 2
 259 269 258 276 255 279 c 128
 252 283 246 285 237 285 c 0xdd
 233 285 222 283 204 278 c 128
 185 274 168 269 152 264 c 1
 152 -187 l 1
 189 -187 l 1
 189 -210 l 1
 83 -210 l 1
 83 593 l 1
 41 593 l 1
 41 610 l 1
 95 610 l 1
 138 613 l 1
 152 613 l 1
 152 281 l 1
 229 306 273 319 282 319 c 0xad
 297 319 308 314 316 304 c 128
 324 294 328 282 328 267 c 2
 328 17 l 1
 367 17 l 1
 367 0 l 1xce
EndSplineSet
EndChar
StartChar: uni056C
Encoding: 1388 1388 564
Width: 266
VWidth: 2048
Flags: W
HStem: -210 23<152 288> 294 17<35 84>
VStem: 84 69<-210 315>
Fore
288 -210 m 1
 84 -210 l 1
 84 294 l 1
 35 294 l 1
 35 311 l 1
 97 311 l 2
 104 311 111 311 118 312 c 2
 138 315 l 1
 153 315 l 1
 153 -187 l 1
 288 -187 l 1
 288 -210 l 1
EndSplineSet
EndChar
StartChar: uni056D
Encoding: 1389 1389 565
Width: 444
VWidth: 2048
Flags: W
HStem: -210 17<40 183> -8 18<330 343> 294 17<342 379> 593 17<36 80>
VStem: 80 69<-193 269 -193 613> 237 52<85 271> 379 69<87 294>
Fore
448 111 m 2
 448 76 438 48 418 25 c 128
 398 3 372 -8 341 -8 c 0
 308 -8 283 3 265 23 c 128
 246 44 237 70 237 102 c 2
 237 263 l 2
 237 284 228 295 210 295 c 0
 194 295 174 286 149 269 c 1
 149 -193 l 1
 183 -193 l 1
 183 -210 l 1
 40 -210 l 1
 40 -193 l 1
 80 -193 l 1
 80 593 l 1
 36 593 l 1
 36 610 l 1
 93 610 l 1
 131 613 l 1
 149 613 l 1
 149 288 l 1
 185 309 214 319 235 319 c 0
 271 319 289 299 289 259 c 2
 289 66 l 2
 289 51 293 37 301 26 c 128
 310 15 320 10 332 10 c 0
 364 10 379 35 379 87 c 2
 379 294 l 1
 342 294 l 1
 342 311 l 1
 400 311 l 1
 432 315 l 1
 448 315 l 1
 448 111 l 2
EndSplineSet
EndChar
StartChar: uni056E
Encoding: 1390 1390 566
Width: 355
VWidth: 2048
Flags: W
HStem: -8 21<200 220>
VStem: 42 70<135 169> 306 58<106 136>
Fore
384 281 m 1
 356 287 329 291 304 292 c 1
 344 232 364 180 364 136 c 0
 364 95 350 61 321 33 c 128
 293 6 256 -8 209 -8 c 0
 159 -8 118 7 88 38 c 128
 57 68 42 108 42 157 c 0
 42 194 56 228 83 258 c 128
 111 288 151 307 202 315 c 1
 170 363 125 424 65 495 c 1
 101 521 134 550 162 580 c 1
 177 564 l 1
 138 523 l 1
 176 473 227 405 289 318 c 1
 317 317 349 313 384 305 c 1
 384 281 l 1
306 106 m 0
 306 131 299 158 285 185 c 128
 270 212 248 248 217 292 c 1
 186 288 161 273 141 245 c 128
 122 217 112 186 112 151 c 0
 112 108 121 74 139 50 c 128
 157 25 182 13 214 13 c 0
 242 13 264 21 281 38 c 128
 298 54 306 77 306 106 c 0
EndSplineSet
EndChar
StartChar: uni056F
Encoding: 1391 1391 567
Width: 355
VWidth: 2048
Flags: W
HStem: -210 17<219 364> -8 34<130 178> 294 17<225 260> 593 17<49 86>
VStem: 86 69<45 593> 219 110<-210 315> 260 69<-193 315>
Fore
364 -210 m 1xfc
 219 -210 l 1
 219 -193 l 1xfc
 260 -193 l 1
 260 29 l 1
 191 4 147 -8 130 -8 c 0
 118 -8 107 -3 99 7 c 128
 90 17 86 31 86 48 c 2
 86 593 l 1
 49 593 l 1
 49 610 l 1
 95 610 l 1
 141 613 l 1
 155 613 l 1
 155 56 l 2
 155 45 157 37 161 32 c 128
 164 28 170 26 178 26 c 0
 194 26 222 33 260 47 c 1
 260 294 l 1xfa
 225 294 l 1
 225 311 l 1
 280 311 l 1
 317 315 l 1
 329 315 l 1
 329 -193 l 1
 364 -193 l 1
 364 -210 l 1xfc
EndSplineSet
EndChar
StartChar: uni0570
Encoding: 1392 1392 568
Width: 355
VWidth: 2048
Flags: W
HStem: 0 17<46 189 228 370> 285 34<239 286> 593 17<42 86>
VStem: 86 69<17 263 17 613> 228 104<0 265> 263 69<17 267>
Fore
370 0 m 1xf8
 228 0 l 1
 228 17 l 1xf8
 263 17 l 1
 263 252 l 2xf4
 263 265 262 273 258 278 c 128
 255 283 249 285 239 285 c 0
 229 285 201 278 155 263 c 1
 155 17 l 1
 189 17 l 1
 189 0 l 1
 46 0 l 1
 46 17 l 1
 86 17 l 1
 86 593 l 1
 42 593 l 1
 42 610 l 1
 99 610 l 2
 102 610 109 610 119 611 c 0
 131 612 139 613 144 613 c 2
 155 613 l 1
 155 280 l 1
 230 306 274 319 286 319 c 0
 298 319 308 313 318 303 c 128
 327 292 332 279 332 265 c 2
 332 17 l 1
 370 17 l 1
 370 0 l 1xf8
EndSplineSet
EndChar
StartChar: uni0571
Encoding: 1393 1393 569
Width: 355
VWidth: 2048
Flags: W
HStem: -8 30<163 188> 0 17<330 368>
VStem: 47 75<135 169> 141 47<463 515> 201 48<344 394> 261 69<-5 217>
Fore
369 0 m 1x7c
 334 0 l 2x7c
 326 0 316 0 304 -1 c 2
 273 -5 l 1
 261 -5 l 1
 261 35 l 1
 228 7 195 -8 163 -8 c 0xbc
 129 -8 102 8 80 40 c 128
 58 71 47 109 47 152 c 0
 47 198 60 237 85 269 c 128
 110 301 144 317 186 319 c 1
 196 328 201 336 201 344 c 0
 201 352 191 370 173 398 c 0
 152 431 141 452 141 463 c 0
 141 491 160 524 198 561 c 1
 207 547 l 1
 194 537 188 527 188 515 c 0
 188 508 196 492 213 466 c 0
 237 431 249 407 249 394 c 0
 249 372 235 347 208 319 c 1
 247 314 277 302 298 282 c 128
 319 262 330 237 330 207 c 2
 330 17 l 1
 369 17 l 1
 369 0 l 1x7c
261 54 m 1
 261 229 l 2
 261 251 256 268 244 282 c 128
 233 295 218 302 201 302 c 0
 148 302 122 248 122 141 c 0
 122 100 127 70 137 51 c 128
 147 32 164 22 188 22 c 0xbc
 207 22 232 33 261 54 c 1
EndSplineSet
EndChar
StartChar: uni0572
Encoding: 1394 1394 570
Width: 355
VWidth: 2048
Flags: W
HStem: -210 23<328 373> 0 17<46 187> 294 17<46 84>
VStem: 84 69<17 263 17 315> 260 69<-210 271>
Fore
373 -210 m 1
 260 -210 l 1
 260 262 l 2
 260 279 253 288 238 288 c 0
 233 288 222 286 206 281 c 128
 188 276 171 270 153 263 c 1
 153 17 l 1
 187 17 l 1
 187 0 l 1
 46 0 l 1
 46 17 l 1
 84 17 l 1
 84 294 l 1
 46 294 l 1
 46 311 l 1
 98 311 l 2
 104 311 111 312 118 312 c 2
 139 315 l 1
 153 315 l 1
 153 282 l 1
 171 288 194 295 220 305 c 128
 247 314 267 319 281 319 c 0
 296 319 308 314 316 304 c 128
 325 294 329 282 329 266 c 2
 329 -187 l 1
 373 -187 l 1
 373 -210 l 1
EndSplineSet
EndChar
StartChar: uni0573
Encoding: 1395 1395 571
Width: 355
VWidth: 2048
Flags: W
HStem: -24 20G<253 266> 0 17<321 359> 288 23<7 75 143 216> 594 24<214 233>
VStem: 7 132<288 491> 75 64<311 491> 253 69<-4 249>
Fore
359 0 m 1xfa
 318 0 l 2
 312 0 304 0 295 -1 c 2
 266 -4 l 1
 253 -4 l 1
 253 32 l 1
 189 6 148 -8 129 -8 c 0
 110 -8 96 -1 87 14 c 128
 79 28 75 51 75 83 c 2
 75 288 l 1xf6
 7 288 l 1
 7 311 l 1xfa
 75 311 l 1
 75 456 l 2xf6
 75 505 89 544 117 573 c 128
 145 603 184 618 233 618 c 0
 300 618 341 590 357 533 c 1
 275 533 l 1
 274 551 269 566 258 577 c 128
 248 589 235 594 217 594 c 0
 194 594 176 585 161 565 c 128
 146 546 139 521 139 491 c 1
 143 311 l 1
 249 311 l 2
 271 311 288 304 302 291 c 128
 315 278 322 262 322 243 c 2
 322 17 l 1
 359 17 l 1
 359 0 l 1xfa
253 48 m 1
 253 244 l 2
 253 257 249 268 240 276 c 128
 231 284 219 288 206 288 c 2
 144 288 l 1
 144 83 l 2
 144 63 146 49 148 40 c 128
 151 30 158 26 168 26 c 0
 176 26 187 28 200 32 c 2
 253 48 l 1
EndSplineSet
EndChar
StartChar: uni0574
Encoding: 1396 1396 572
Width: 355
VWidth: 2048
Flags: W
HStem: -8 34<125 171> 0 17<321 360> 294 17<41 78> 534 84<293 350> 584 34<270 293>
VStem: 78 69<42 294> 202 28<494 512> 253 69<-6 352> 299 76<533 548.978>
Fore
375 533 m 1x3680
 367 534 358 534 350 534 c 0
 323 534 306 534 299 533 c 1x3680
 299 548 297 560 291 569 c 128
 285 579 278 584 270 584 c 0
 257 584 247 577 240 563 c 128
 233 550 230 532 230 510 c 0
 230 479 238 451 253 423 c 128
 269 395 292 371 322 352 c 1
 322 17 l 1x6f
 360 17 l 1
 360 0 l 1
 327 0 l 2
 319 0 310 -1 299 -2 c 2x6e80
 266 -6 l 1
 253 -6 l 1
 253 31 l 1
 216 18 188 9 170 2 c 128
 152 -5 137 -8 125 -8 c 0
 110 -8 98 -3 90 7 c 128
 82 16 78 28 78 42 c 2
 78 294 l 1
 41 294 l 1
 41 311 l 1
 99 311 l 1
 133 315 l 1
 147 315 l 1
 147 59 l 2
 147 37 155 26 171 26 c 0
 176 26 182 27 190 29 c 1
 209 35 230 41 253 47 c 1
 253 325 l 1
 219 393 202 450 202 496 c 0
 202 532 210 561 228 584 c 128xaf
 246 607 268 618 293 618 c 0
 315 618 335 611 351 598 c 128
 367 584 375 562 375 533 c 1x3680
EndSplineSet
EndChar
StartChar: uni0575
Encoding: 1397 1397 573
Width: 222
VWidth: 2048
Flags: W
HStem: -210 18<66 86> 294 17<62 114>
VStem: 5 61<-149 -135> 114 69<-3 315> 133 50<-114 -78>
Fore
183 -78 m 2xe8
 183 -112 172 -142 150 -169 c 128
 129 -196 103 -210 74 -210 c 0
 54 -210 37 -204 24 -191 c 128
 12 -178 5 -164 5 -149 c 0
 5 -136 9 -125 16 -117 c 128
 23 -109 31 -105 40 -105 c 0
 47 -105 53 -108 59 -114 c 128
 63 -120 66 -127 66 -135 c 0
 66 -153 57 -164 39 -169 c 1
 47 -184 59 -192 76 -192 c 0
 92 -192 106 -185 117 -170 c 128
 127 -155 133 -137 133 -114 c 0xe8
 133 -101 130 -83 125 -59 c 0
 118 -29 114 -5 114 14 c 2
 114 294 l 1
 62 294 l 1
 62 311 l 1
 132 311 l 2
 137 311 143 312 151 312 c 2
 171 315 l 1
 183 315 l 1xf0
 183 -78 l 2xe8
EndSplineSet
EndChar
StartChar: uni0576
Encoding: 1398 1398 574
Width: 355
VWidth: 2048
Flags: W
HStem: -9 34<133 177> 0 17<329 366> 294 17<224 260> 594 24<222 244>
VStem: 83 69<70 282> 260 69<-5 315>
Fore
367 0 m 1x7c
 337 0 l 2x7c
 329 0 318 0 307 -1 c 2
 271 -5 l 1
 260 -5 l 1
 260 32 l 1
 188 5 l 2
 164 -4 145 -9 133 -9 c 0
 116 -9 104 -2 96 13 c 128
 88 27 83 52 83 86 c 2
 83 455 l 2
 83 507 98 547 127 575 c 128
 156 604 195 618 244 618 c 0
 277 618 304 611 325 595 c 128
 346 580 359 559 364 533 c 1
 283 533 l 1
 283 553 277 568 265 579 c 128
 253 589 240 594 224 594 c 0
 200 594 181 584 167 563 c 128
 152 543 145 515 145 480 c 1
 152 281 l 1
 152 73 l 2
 152 56 154 43 158 36 c 128
 161 29 167 25 177 25 c 0xbc
 187 25 215 33 260 50 c 1
 260 294 l 1
 224 294 l 1
 224 311 l 1
 269 311 l 2
 279 311 288 311 295 312 c 2
 317 315 l 1
 329 315 l 1
 329 17 l 1
 367 17 l 1
 367 0 l 1x7c
EndSplineSet
EndChar
StartChar: uni0577
Encoding: 1399 1399 575
Width: 311
VWidth: 2048
Flags: W
HStem: -8 18<178 196> 303 16<185 196>
VStem: 53 61<114 137>
Fore
334 116 m 1
 308 34 259 -8 187 -8 c 0
 147 -8 115 6 90 33 c 128
 66 60 53 91 53 127 c 0
 53 159 62 188 81 216 c 128
 98 243 126 272 163 302 c 1
 134 299 92 291 38 276 c 1
 35 291 l 1
 102 310 153 319 190 319 c 0
 225 319 256 311 281 295 c 128
 306 279 323 258 331 231 c 1
 257 231 l 1
 257 278 232 302 185 303 c 1
 138 260 114 203 114 133 c 0
 114 94 121 64 134 42 c 128
 147 21 166 10 189 10 c 0
 209 10 227 18 243 36 c 128
 258 53 265 80 265 116 c 1
 334 116 l 1
EndSplineSet
EndChar
StartChar: uni0578
Encoding: 1400 1400 576
Width: 355
VWidth: 2048
Flags: W
HStem: 0 17<46 187 227 369> 294 17<46 84>
VStem: 84 69<17 261 17 315> 227 103<0 258> 261 69<17 264>
Fore
369 0 m 1xf0
 227 0 l 1
 227 17 l 1xf0
 261 17 l 1
 261 256 l 2xe8
 261 275 252 285 234 285 c 0
 224 285 197 277 153 261 c 1
 153 17 l 1
 187 17 l 1
 187 0 l 1
 46 0 l 1
 46 17 l 1
 84 17 l 1
 84 294 l 1
 46 294 l 1
 46 311 l 1
 89 311 l 2
 100 311 109 311 118 312 c 2
 142 315 l 1
 153 315 l 1
 153 279 l 1
 217 306 260 319 283 319 c 0
 297 319 309 313 317 302 c 128
 326 291 330 276 330 258 c 2
 330 17 l 1
 369 17 l 1
 369 0 l 1xf0
EndSplineSet
EndChar
StartChar: uni0579
Encoding: 1401 1401 577
Width: 311
VWidth: 2048
Flags: W
HStem: -210 23<175 294>
VStem: 74 48<-158 -146> 246 49<19 63>
Fore
177 362 m 1
 156 344 145 326 145 309 c 0
 145 294 151 279 164 264 c 2
 276 123 l 1
 282 114 287 105 291 96 c 128
 294 86 295 75 295 63 c 0
 295 19 273 -17 229 -47 c 2
 165 -89 l 2
 151 -98 140 -108 133 -118 c 128
 125 -128 122 -137 122 -146 c 0
 122 -158 127 -168 139 -176 c 128
 150 -183 166 -187 188 -187 c 2
 294 -187 l 1
 294 -210 l 1
 160 -210 l 2
 133 -210 111 -205 96 -196 c 128
 81 -187 74 -174 74 -158 c 0
 74 -147 77 -135 85 -123 c 128
 93 -111 104 -100 119 -90 c 2
 201 -35 l 1
 231 -16 246 2 246 19 c 0
 246 30 244 39 242 46 c 128
 239 53 234 61 225 72 c 2
 132 187 l 2
 119 202 109 217 103 231 c 128
 96 246 93 260 93 274 c 0
 93 282 95 290 100 299 c 128
 104 308 116 322 135 341 c 0
 150 356 161 368 168 376 c 1
 177 362 l 1
EndSplineSet
EndChar
StartChar: uni057A
Encoding: 1402 1402 578
Width: 489
VWidth: 2048
Flags: W
HStem: -210 17<367 512> -9 34<136 177> 294 17<36 82 199 245 362 407>
VStem: 82 69<44 294> 245 68<42 294> 407 70<-193 315>
Fore
512 -210 m 1
 367 -210 l 1
 367 -193 l 1
 407 -193 l 1
 407 27 l 1
 350 3 313 -9 295 -9 c 0
 285 -9 275 -6 266 1 c 128
 257 7 251 16 249 27 c 1
 188 4 l 2
 165 -5 147 -9 136 -9 c 0
 100 -9 82 15 82 62 c 2
 82 294 l 1
 36 294 l 1
 36 311 l 1
 99 311 l 1
 135 315 l 1
 151 315 l 1
 151 50 l 2
 151 43 153 37 159 32 c 128
 164 27 170 25 177 25 c 0
 188 25 211 31 245 43 c 1
 245 294 l 1
 199 294 l 1
 199 311 l 1
 261 311 l 1
 296 315 l 1
 313 315 l 1
 313 50 l 2
 313 33 321 25 337 25 c 0
 354 25 378 31 407 44 c 1
 407 294 l 1
 362 294 l 1
 362 311 l 1
 418 311 l 1
 457 315 l 1
 477 315 l 1
 477 -193 l 1
 512 -193 l 1
 512 -210 l 1
EndSplineSet
EndChar
